<svg xmlns="http://www.w3.org/2000/svg" viewBox="0 0 449.61 130.24" class="SVG replaced-svg" height="49" width="154"><defs><style>.cls-1{fill:none;}.cls-2{fill:#010101;}.cls-3{fill:#010202;}.cls-4,.cls-5{fill:#e33b2e;}.cls-4{fill-rule:evenodd;}</style></defs><g id="Layer_2" data-name="Layer 2"><g id="katman_1" data-name="katman 1"><path class="cls-1" d="M352.51,117h0Z"></path><path class="cls-1" d="M70.62,57.66h34.31l5.33,10.23h14.66L94.72,11.07H80.84L50.62,67.9H65.31ZM87.81,25.29l10.52,20H77.22Z"></path><path class="cls-1" d="M193.48,112.74v0a.59.59,0,0,0-.33-.15.21.21,0,0,0-.18.12.45.45,0,0,1-.24.16.44.44,0,0,0-.28.14.46.46,0,0,1-.3.13.71.71,0,0,0-.42.24l-.2,0-.12.08-.19-.05a3.84,3.84,0,0,1-.49.48,2.08,2.08,0,0,0-.39.42h-.23c-.09,0-.17.12-.25.36a1.28,1.28,0,0,0-.33.3l-.41.17a1,1,0,0,1-.3.32l-.64.81a.37.37,0,0,1-.15.08l-.17,0,.09.33h-.06a1,1,0,0,0-.49.74l-.1.39c0,.06,0,.09.07.09a.3.3,0,0,0,.18-.11,3.48,3.48,0,0,1,.41-.32,1.17,1.17,0,0,1,.45-.23l.57-.1.52-.09a.4.4,0,0,1,.15,0l.25.09a.77.77,0,0,1,.31.36,5,5,0,0,0,1-.53.48.48,0,0,1,.28-.17.26.26,0,0,1,.1,0l.08-.2a1.06,1.06,0,0,1,.24-.26,4.08,4.08,0,0,0,.59-.71l.55-.59.57-.83a2.92,2.92,0,0,0,.37-.75l.1-.21a1.49,1.49,0,0,0,.06-.23,1.58,1.58,0,0,0-.23-.53Z"></path><path class="cls-1" d="M183.36,121.46c-.06.13-.12.2-.16.2l-.25,0a2.54,2.54,0,0,0-.26.58l-.07.08a.38.38,0,0,0-.33.26l-.28.56v.23c0,.26-.19.5-.58.72-.12.32-.2.47-.23.47H181l.07.29a1,1,0,0,1-.22.64,1.79,1.79,0,0,0-.23.3l0,.32,0,.29a2.94,2.94,0,0,0-.19,1.13V128a12.72,12.72,0,0,0,.84-1.25l.16-.31c.1-.17.2-.31.28-.42l0-.13a.83.83,0,0,0,.16-.24l.91-2.34c.13-.34.22-.59.26-.73s.19-.6.45-1.35C183.49,121.24,183.43,121.32,183.36,121.46Z"></path><path class="cls-1" d="M255.1,114.64a2.78,2.78,0,0,0,.59-.37,8.53,8.53,0,0,1,.78-.55l.13-.13a1.14,1.14,0,0,1,.31-.23,2.17,2.17,0,0,0,.41-.33l.16-.07a1.26,1.26,0,0,1,.57-.53c.19-.06.29-.13.29-.19s-.11-.19-.32-.19a.85.85,0,0,0-.39.16h-.38a1.09,1.09,0,0,0-.37.19l-.28.06-.2.1-.38.28a3.27,3.27,0,0,1-.63.4,1.77,1.77,0,0,0-.63.81,3.47,3.47,0,0,0-.32.74c0,.06,0,.09.1.09Z"></path><path class="cls-1" d="M345.69,114.64a3.18,3.18,0,0,0,.68-.37c.21-.15.51-.33.9-.55l.15-.13a1.44,1.44,0,0,1,.36-.23,2.11,2.11,0,0,0,.46-.33l.19-.07a1.4,1.4,0,0,1,.66-.53c.22-.06.33-.13.33-.19s-.12-.19-.36-.19a1.13,1.13,0,0,0-.46.16h-.43a1.41,1.41,0,0,0-.42.19l-.33.06-.22.1c-.05,0-.2.12-.45.28a3.76,3.76,0,0,1-.72.4,1.84,1.84,0,0,0-.73.81,3.37,3.37,0,0,0-.37.74q0,.09.12.09Z"></path><path class="cls-1" d="M206.08,113.35l-.14.08-.29,0-.32,0-.23-.11-.22,0-.32-.06a1,1,0,0,0-.46.1,3.35,3.35,0,0,1-.73.24,2.55,2.55,0,0,0-1,.44,1.33,1.33,0,0,1-.63.31,2.54,2.54,0,0,1-.78.7.75.75,0,0,0-.51.56,1.93,1.93,0,0,0-.43.39l-.11.27a1.06,1.06,0,0,1-.33.19.38.38,0,0,0-.24.34.85.85,0,0,1-.22.48.58.58,0,0,0-.19.35c0,.52.11.79.31.79a2.12,2.12,0,0,0,.56-.17,2.32,2.32,0,0,0,.49-.24.86.86,0,0,1,.26-.13l.32-.15a.24.24,0,0,1,.14-.09.31.31,0,0,0,.17-.1,1.08,1.08,0,0,1,.3-.2.75.75,0,0,0,.33-.28c.18-.11.49-.27.91-.5l.34-.26a1.31,1.31,0,0,0,.45-.27.87.87,0,0,1,.33-.23.74.74,0,0,1,.4-.53.86.86,0,0,0,.41-.39,9,9,0,0,0,.9-.8c.39-.39.58-.63.58-.71s0-.05-.06-.05Z"></path><path class="cls-1" d="M362.52,113.35l-.16.08-.34,0-.36,0-.27-.11-.25,0-.37-.06a1.22,1.22,0,0,0-.53.1,4.18,4.18,0,0,1-.84.24,3.19,3.19,0,0,0-1.11.44,1.61,1.61,0,0,1-.72.31,2.79,2.79,0,0,1-.89.7.78.78,0,0,0-.59.56,2.37,2.37,0,0,0-.5.39l-.13.27a1.23,1.23,0,0,1-.38.19.39.39,0,0,0-.27.34.79.79,0,0,1-.26.48.58.58,0,0,0-.21.35c0,.52.12.79.36.79a2.85,2.85,0,0,0,.64-.17,2.91,2.91,0,0,0,.56-.24,1.12,1.12,0,0,1,.3-.13l.36-.15a.32.32,0,0,1,.17-.09.32.32,0,0,0,.19-.1,1.63,1.63,0,0,1,.35-.2.84.84,0,0,0,.38-.28l1-.5.4-.26a1.36,1.36,0,0,0,.51-.27,1.33,1.33,0,0,1,.38-.23.79.79,0,0,1,.47-.53.92.92,0,0,0,.47-.39,9.34,9.34,0,0,0,1-.8c.45-.39.68-.63.68-.71s0-.05-.08-.05Z"></path><path class="cls-1" d="M176.94,114.64a2.78,2.78,0,0,0,.59-.37,8.53,8.53,0,0,1,.78-.55l.14-.13a1,1,0,0,1,.3-.23,1.89,1.89,0,0,0,.41-.33l.16-.07a1.26,1.26,0,0,1,.57-.53c.19-.06.29-.13.29-.19s-.1-.19-.31-.19a.87.87,0,0,0-.4.16h-.38a1.08,1.08,0,0,0-.36.19l-.28.06-.2.1a3.36,3.36,0,0,0-.39.28,3.27,3.27,0,0,1-.63.4,1.84,1.84,0,0,0-.63.81,3.47,3.47,0,0,0-.32.74c0,.06,0,.09.1.09Z"></path><polygon class="cls-1" points="357.59 67.89 370.74 67.89 370.74 23.42 397.06 23.42 397.06 11.07 331.27 11.07 331.27 23.42 357.59 23.42 357.59 67.89"></polygon><polygon class="cls-1" points="18.91 111.54 19.38 111.1 19.42 110.5 19.69 110.1 20.4 107.94 21.38 105.63 21.38 105.34 21.67 104.81 21.81 104.26 22.17 103.45 22.45 102.26 22.34 101.51 21.64 101.78 21.04 102.24 20.55 102.46 20.12 103.07 19.85 103.22 19.14 103.78 18.77 104.34 17.79 105.5 16.62 107.27 16.26 107.63 15.84 108.43 15.56 108.55 15.2 108.31 15.2 108.79 15.44 108.99 14.81 110.27 13.81 111.19 12.71 112.7 12.54 113.11 13.73 112.86 14.53 112.82 14.9 112.92 15.25 112.78 16.17 112.61 16.55 112.37 16.82 112.47 17.23 112.47 18.74 112.16 18.91 111.54"></polygon><polygon class="cls-1" points="123.37 114.6 124.05 114.01 124.31 113.88 124.7 113.5 124.92 113.36 125.02 113.16 125.28 113.09 125.54 112.78 126.09 112.33 125.86 112.09 125.44 112.23 124.99 112.3 124.73 112.47 124.12 112.71 122.98 113.6 122.73 114.22 122.47 114.67 122.37 115.04 122.79 114.87 123.37 114.6"></polygon><polygon class="cls-1" points="301.04 67.18 301.04 45.9 323.01 45.9 323.01 33.07 301.04 33.07 301.04 11.79 295.32 11.79 294.77 11.79 288.65 11.79 288.65 33.07 267.37 33.07 267.37 45.9 288.65 45.9 288.65 67.18 294.77 67.18 295.32 67.18 301.04 67.18"></polygon><path class="cls-1" d="M262.17,30.05c0-10.69-8.21-19-19.76-19h-46V67.89h13.16V49h25.92l13.05,18.86h16.06L250.26,47.5A17.92,17.92,0,0,0,262.17,30.05ZM242,36.71h-32.5V23.43H242a6.65,6.65,0,1,1,0,13.28Z"></path><polygon class="cls-1" points="56.85 112.98 57.2 112.67 57.11 112.47 56.75 112.64 56.49 112.91 55.53 113.22 55.14 113.09 54.91 113.5 54.62 113.56 54.3 113.94 53.91 114.08 53.72 114.56 52.87 115.49 52.55 116.49 52.45 116.93 52.13 117.14 52.09 117.38 52.28 117.62 52.13 118.48 52.35 119.1 52.42 119.51 52.77 119.51 53.32 119.61 53.97 119.44 54.23 119.17 54.59 119.03 54.91 118.58 55.17 118.58 55.3 118.24 55.91 117.72 56.1 117.28 56.46 116.97 56.98 115.83 57.11 115.08 57.01 114.7 56.66 114.32 56.49 114.05 56.43 113.81 56.49 113.47 56.85 112.98"></polygon><polygon class="cls-1" points="87.91 112.98 88.27 112.67 88.17 112.47 87.81 112.64 87.55 112.91 86.58 113.22 86.2 113.09 85.97 113.5 85.68 113.56 85.36 113.94 84.97 114.08 84.78 114.56 83.93 115.49 83.61 116.49 83.51 116.93 83.19 117.14 83.15 117.38 83.35 117.62 83.19 118.48 83.41 119.1 83.48 119.51 83.83 119.51 84.38 119.61 85.03 119.44 85.29 119.17 85.65 119.03 85.97 118.58 86.23 118.58 86.36 118.24 86.97 117.72 87.17 117.28 87.52 116.97 88.04 115.83 88.17 115.08 88.07 114.7 87.72 114.32 87.55 114.05 87.49 113.81 87.55 113.47 87.91 112.98"></polygon><path class="cls-1" d="M403,114.64a3.44,3.44,0,0,0,.68-.37c.21-.15.51-.33.9-.55l.15-.13a1.51,1.51,0,0,1,.35-.23,2,2,0,0,0,.47-.33l.19-.07a1.32,1.32,0,0,1,.66-.53c.22-.06.33-.13.33-.19s-.12-.19-.36-.19a1.08,1.08,0,0,0-.46.16h-.44a1.3,1.3,0,0,0-.41.19l-.33.06-.22.1a4.51,4.51,0,0,0-.45.28,3.76,3.76,0,0,1-.72.4,1.84,1.84,0,0,0-.73.81,2.91,2.91,0,0,0-.37.74q0,.09.12.09Z"></path><path class="cls-2" d="M25.25,79h125V0h-125Zm55.59-67.9H94.72l30.2,56.82H110.26l-5.33-10.23H70.62L65.31,67.9H50.62Z"></path><polygon class="cls-3" points="87.81 25.29 77.22 45.31 98.33 45.31 87.81 25.29"></polygon><path class="cls-3" d="M242,23.43h-32.5V36.71H242a6.65,6.65,0,1,0,0-13.28Z"></path><path class="cls-3" d="M294.77,67.18h-6.12V45.9H267.37V33.07h21.28V11.79h6.12V0H163.4V79H294.77Zm-46.28.71L235.44,49H209.52V67.89H196.36V11.07h46c11.55,0,19.76,8.29,19.76,19A17.92,17.92,0,0,1,250.26,47.5l14.29,20.39Z"></path><path class="cls-4" d="M409.23,68.46a6.76,6.76,0,0,0,5-2,6.89,6.89,0,0,0,2-5,6.53,6.53,0,0,0-2-4.87,6.91,6.91,0,0,0-11.86,4.87,6.89,6.89,0,0,0,2,5A6.67,6.67,0,0,0,409.23,68.46Zm-3.18-11.38h3.12q3.76,0,3.76,2.59A2.44,2.44,0,0,1,411,62l2,3.92h-2.12l-1.69-3.66H407.9v3.66h-1.85Z"></path><path class="cls-4" d="M301,11.79V33.07h22V45.9H301V67.18h-5.72V79H426.68V0H295.32V11.79ZM403.45,55.7a8,8,0,0,1,5.78-2.38A8.12,8.12,0,0,1,415,67.24a8.14,8.14,0,0,1-5.92,2.38,7.61,7.61,0,0,1-5.67-2.38,8.27,8.27,0,0,1-2.33-5.93A7.67,7.67,0,0,1,403.45,55.7ZM331.27,11.07h65.8V23.42H370.74V67.89H357.59V23.42H331.27Z"></path><path class="cls-4" d="M410.92,59.77c0-.84-.62-1.26-1.85-1.26H407.9V61h1.27C410.33,61,410.92,60.62,410.92,59.77Z"></path><rect class="cls-5" x="294.77" y="67.18" width="0.54" height="11.78"></rect><rect class="cls-5" x="294.77" width="0.54" height="11.79"></rect><polygon class="cls-3" points="105.96 107.31 105.6 107.17 104.89 107.48 104.76 107.65 104.63 108.34 104.79 109.3 105.15 109.61 105.92 109.85 106.54 109.41 106.7 108.24 106.6 107.93 106.34 107.59 105.96 107.31"></polygon><path class="cls-3" d="M130.59,113.47l-.52.3-.16.45-.42.17-.42.38v.48l-.26-.24-.62.45-.29.37-.45.14-.26.31-.52.21-.29.37-.74.35-.13.31-.39.07-.32.13-.29.42-.72,0-.71.35-1.68-.11-.06-.31.19-1,.42,0,.32-.34.39-.1.23-.07,0-.35.13-.2.29,0,.68-.58.36-.17.06-.25.29-.2H125l.36-.55.48-.07.33-.28.25-.13.23-.31.33-.1.58-.52.35-.62.1-.45-.06-.31-.32-.41-.33-.17-.71-.14-.26-.1-1,.07-.75.21-.29-.07-.51.34-.81.34-.68.62-.33.17-.12.14-.1.59-.75.54-.13.35-.42.75-.26.52-.22.89-.36.38-.16.34-.1.52.13.34.39.21.36,1.24.29,0,.19.52,1,.55.51-.07.39-.1.46.24.35-.07,1.13-.45.29-.07.91-.58.68-.21.29-.48.39,0,.23-.21.45-.27.13-.21.06-.28.33.11.26-.21.84-1,.26-.1.35-.35.23-.1.16-.65.29-.45-.06-.51.09-.49Zm-8.12,1.19.26-.44.25-.62,1.14-.89.61-.24.26-.18.45-.06.42-.14.23.24-.55.45-.26.31-.26.07-.1.2-.22.14-.39.38-.26.13-.68.59-.58.27-.42.17Z"></path><path class="cls-3" d="M58.86,113.5l-.23-.38-.16-.38L58,112.5l.23-.34,0-.21-.06-.34-.16-.24-.45-.31L56,110.51l-.42.2-1.59.45-.84.34-1.62,1.07-.32.1-.52.52-.68.55-.29.45-.58.21-.35.4-1.27,1.07-.16.31H47l-.26.14-.26.34-.39.17-.25.21-.33.14-1.13.72H44l-.56.27h-.87L42.2,118l-.06-.37v-.28l.1-.24,0-.41.23-.21.1-.41.25-.41v-.52l.52-.48.07-.34.19-.21.36-.45.1-.3.22-.35.36-.89.42-.42.26-.58.39-.2.83-1.72.32-.17.1-.41.23-.14.12-.38h.36l.42-.27.58.07.68-.28.55,0,1.46-.41.68,0,.58-.21.58,0,.39-.14h.78l.94-.41.29.13.32-.06.81,0,1.36-.34.36,0,1.39-.17.51.07,1.46.07.45-.24.07-.24-.1-.62-.26-.45-.35-.48-.65-.21-.26,0-.42-.07-.49.14-.29,0-.61.28-.65-.14-1.46.31h-.39l-.26-.11-.35.25-.88.17-.32.13-.35-.1h-.29l-1.14.24-1.32.21-1.1.34-1.4.17-.28.18-.23-.11,0-.2.23-.28.55-.48.12-.62-.22-.79-.36-.45-.32-.13-.26.27-.32.45-.58,1.07-.49.44-.52.69-.78.44-1.13.24-.45.25-1,.3h-.84l-.3.42-.22-.21-.36.27-.48.83,0,.21.06.31.36.27.39,0,.32.06.45-.27.81-.14.39-.13.71-.07.36,0-.07.24-.26.17-.7,1.51-.35.38-.36.55-.26.31-.13.55.23.24-.13.24-.39-.1-.13.38-.49,1-.2.26-.3.11-.71.63-.36.45-.1.35-.55.17-.26.31-.52.49-.19.35-.42.14-.45.27-.33.14.13-.62.55-2.09.71-2.12-.19-.35-1-1-.42,0-.61.11-.36.24-.81.8-.36.24-.19.35-1,.91-.17.48h-.25l-.17.24-.58.49-.36.39-.39.24-.06.31-.39.07-.65.66-.16.32-.29.07-1,.66-.1-.25.27-.93.32-.46.19-.94.26,0,.13-.31.26-.21.32-.8.07-.42.36-.24-.1-.87-.23-.42-.75-.84-.64.07-.23.11-.32.07-.42.28-.3.24-.22.41-.36,0-.42.56-.42.1-.19.49-.33,0-.39.32-.61.64-.6.29-.22.29-.39.51-1.08,1-.93.58-.34.46-1.16.92-.31.12-.47,0-.4.48-.59.16-.07-.4.11-.4v-.36l.36-.44.27-1,.47-.92.16-.48-.12-.2.32-.32v-.36l.2-.57.55.07,1.54.07.48-.24.07-.25L23,113l-.27-.45-.37-.49-.75-.21.5-.94-.08-.51.2-.24.08-.52.19-.44-.08-.44.44-.28,0-.68.27-.36.08-.36v-.76l.23-.35.24-.42.11-.38.35-1.64-.07-.45.17-1-.2-1.54-.4-.25-.17-.29-1-.26-1,.46-.8.84-.4.08-.24.38-.9.67-.4.65-.55.48-.77.82-.77,1-1,1-.7,1.16-1.48,1.2-.35.52-.23.56-.4.28-.12.44-.43.6-.35,0-.31.43-.09.45-.19.28-.35.16-.08.47-.79.6-.36.49-.68.16L8,114l-1.17.43-1.55.37-1.2.24-.48.24-1,.32H1.66l-.31.42-.24-.21-.37.27-.34.31,0,.21.24.48.62.08L2,117l.85-.13.42-.14.75-.07.37,0,.32-.13.83-.25.57,0,.56,0h.38l.66-.3-.93,1.1-.39.16-.23.44-.67.44-.28.32-.43.32-.16.28-.39.35-.51.32-.08.21-.24.2v.23l-1.37.52-.86.2-.48.24-.58.72-.15.86.2.93.38.4.31,0,.32.2.75-.12.45-.17.3-.33.27-.3.42-.16.91-.68.12-.44.63,0,.15-.48.78-.3.67-.84.78-.76.16-.24,0-.24.51-.4.08-.36-.32-.12.28-.28h.43l.35-.2,0-.31.47-.36,0-.2.23-.32,0-.4.44.08.94-1.16.69,0,.62-.21.61,0,.41-.14,1.31,0,1-.41.31.14.34-.07,1.15,0-.56,1-.31.88-.32.44-1,1.88-.28.56-.24.72-.07.55.19.77.52.47.78.24,1.69-.43,1.41-.65.83-.47.07-.33h.32l.63-.47.86-.56.44-.4.51-.2.43-.56.39-.16.58-.63.26-.17,1.37-1.24.23-.24.33-.21.26-.24.32-.14.32-.28.56-.28v.25l-.23.27-.2.29-.13.38-.58,1.29-.09.73v.34l.7,1.26.3.28.26.34.22.21.26.11.85.07,1-1,.55-.31.1-.38.29,0,.55-.56.1-.41h.29l.52-.46.19-.27.33-.21.06-.46h.36l.23-.2.22-.11.2-.49h.38l.33-.45.39-.24-.07.42.07.24-.29.56v.62l-.26.59v.56l-.1.49.91,1.29.65.62.42-.07.68-.69.48-.21.33-.45.58-.42.2-.28.22.07.49-.31.8-1,.29-.17.13.79v.37L41,118l.06.45.78,1.1.45.28.45.37.49-.17.58,0,.26-.1.68-.11.49-.41.32-.1.55-.31.39-.11.42-.48.38-.1.16-.35.36-.27.33-.41.64-.62.2-.34.39-.31.25-.48.29,0,.1-.34.26-.07.22-.28.13.21-.39,1.27V117l-.13.28,0,.89.16.48.36.69.19.24.62.55.42.45.39.1.25.21.36-.1h.78l.26-.21.38,0,1.4-.65.61-.62.23.07,1.23-1.17.09-.34.26-.34.16-.38.46-.66.06-.48v-.38l.16-.27.07-.41,0-.86Zm-41.62-1h-.42l-.27-.1-.38.24-.92.18-.35.14-.37-.11-.8,0-1.19.25.17-.41,1.1-1.51,1-.92.63-1.28-.24-.2v-.48l.36.24.27-.12.43-.8.36-.36,1.17-1.77,1-1.16.37-.56.71-.56.27-.15.43-.61.49-.22.6-.47.7-.26.11.75-.28,1.19-.36.81-.14.55-.29.53v.29l-1,2.31-.71,2.16-.27.4,0,.6-.47.44-.17.61Zm39.25,1.58.17.27.35.38.1.38-.13.75L56.46,117l-.36.31-.19.44-.61.52-.13.34h-.26l-.32.45-.36.14-.26.27-.65.17-.55-.1h-.35l-.07-.41-.22-.62.16-.86-.2-.24,0-.24.32-.21.1-.44.32-1,.84-.93.2-.48.38-.14.33-.37.29-.07.23-.41.39.13,1-.31.26-.27.36-.17.1.2-.36.31-.36.49-.06.34Z"></path><polygon class="cls-3" points="119.92 113.63 120.21 113.56 120.54 113.33 121.06 113.33 121.28 112.95 121.44 112.3 121.31 111.75 120.76 111.19 120.28 111.06 119.5 111.23 119.17 111.4 118.17 112.26 117.98 112.53 116.88 113.77 116.52 114.05 116.1 114.6 115.97 114.84 115.49 115.22 115.36 115.56 115.2 115.8 114.91 116.04 114.45 116.63 113.93 117.14 113.87 117.45 113.58 117.49 113.52 117.79 113 118.07 113.13 117.35 112.84 117 112.84 116.8 113.16 116.66 113.23 116.25 113.55 115.66 113.52 114.84 113.77 114.53 113.8 113.94 114.09 113.26 114.19 112.78 114 112.05 113.52 111.54 112.84 111.33 112.31 111.47 111.83 111.81 111.51 111.95 111.31 112.19 110.96 112.43 110.64 112.53 110.38 112.98 109.92 113.02 109.66 113.53 109.24 113.6 109.15 113.81 108.6 114.36 108.16 114.91 108.1 115.11 106.12 116.66 105.35 117.04 105.13 117.24 104.8 117.42 104.57 117.69 104.12 117.69 103.83 117.66 103.99 117.42 104.03 116.66 104.22 116.35 104.12 115.87 104.32 115.66 104.45 115.32 104.67 115.08 105.19 113.36 105.32 112.61 105.19 112.05 104.87 111.64 104.35 111.16 103.73 111.06 103.22 111.33 102.67 111.71 102.34 112.05 102.02 112.26 101.82 112.57 101.34 112.61 100.85 113.05 100.14 113.5 99.78 114.01 99.4 114.32 99.17 114.32 98.85 114.81 97.59 115.87 97.42 116.18 97.07 116.18 96.81 116.32 96.55 116.66 96.16 116.83 95.9 117.04 95.58 117.18 94.45 117.9 94.09 117.9 93.54 118.17 92.67 118.17 92.28 118.03 92.22 117.66 92.22 117.38 92.31 117.14 92.28 116.73 92.5 116.52 92.6 116.11 92.86 115.7 92.86 115.18 93.38 114.7 93.44 114.36 93.64 114.15 94 113.7 94.09 113.4 94.32 113.05 94.67 112.16 95.09 111.75 95.35 111.16 95.74 110.95 96.57 109.24 96.9 109.07 97 108.66 97.22 108.52 97.35 108.14 97.7 108.14 98.13 107.87 98.71 107.94 99.39 107.66 99.94 107.63 101.39 107.21 102.08 107.18 102.66 106.97 103.24 107.01 103.63 106.87 104.41 106.87 105.34 106.46 105.63 106.59 105.96 106.53 106.77 106.56 108.12 106.22 108.48 106.25 109.87 106.08 110.39 106.15 111.84 106.22 112.3 105.98 112.36 105.74 112.27 105.12 112.01 104.67 111.65 104.19 111 103.98 110.75 104.02 110.32 103.95 109.84 104.09 109.54 104.12 108.93 104.4 108.29 104.26 106.83 104.57 106.44 104.57 106.18 104.47 105.83 104.71 104.96 104.88 104.63 105.01 104.27 104.91 103.98 104.91 102.85 105.15 101.52 105.36 100.42 105.7 99.03 105.87 98.74 106.05 98.51 105.94 98.55 105.74 98.77 105.46 99.32 104.98 99.45 104.36 99.23 103.57 98.87 103.12 98.55 102.99 98.29 103.26 97.96 103.71 97.38 104.78 96.9 105.22 96.38 105.91 95.6 106.35 94.47 106.59 94.02 106.83 93.05 107.14 92.21 107.14 91.92 107.56 91.69 107.35 91.33 107.63 90.85 108.45 90.81 108.66 90.88 108.97 91.23 109.24 91.62 109.21 91.94 109.28 92.4 109 93.21 108.86 93.6 108.73 94.31 108.66 94.66 108.62 94.6 108.86 94.34 109.03 93.64 110.54 93.28 110.92 92.93 111.47 92.67 111.78 92.54 112.33 92.76 112.57 92.64 112.81 92.25 112.71 92.12 113.09 91.63 114.08 91.31 114.5 91.25 114.84 91.02 115.25 91.05 116.14 90.86 116.56 90.98 117.35 90.98 117.72 91.11 118.03 91.18 118.48 91.96 119.58 92.41 119.86 92.86 120.23 93.35 120.06 93.93 120.03 94.19 119.92 94.87 119.82 95.35 119.41 95.68 119.31 96.22 119 96.61 118.89 97.03 118.41 97.42 118.31 97.59 117.97 97.94 117.69 98.26 117.28 98.91 116.66 99.11 116.32 99.43 115.98 99.75 115.71 100 115.23 100.92 114.77 101.21 114.22 101.43 114.32 101.73 114.12 101.98 114.05 102.25 113.81 102.47 113.88 102.8 113.63 103.02 113.84 102.77 114.39 102.67 114.84 102.44 115.18 102.08 116.11 101.98 116.63 101.76 117.45 101.73 117.76 101.79 118.28 101.95 118.79 102.02 119.65 102.34 119.96 102.92 120.27 103.25 120.2 103.6 120.2 103.96 119.89 104.32 119.86 104.57 119.75 105.03 119.34 105.45 119.2 105.64 118.96 106.06 118.69 106.87 117.93 107.29 117.62 107.88 117.11 108.36 116.52 108.71 115.77 108.99 115.63 109.24 115.25 109.53 115.11 109.76 114.73 110.34 114.46 110.5 113.94 111.06 113.88 111.51 113.56 111.61 113.88 111.25 114.87 110.83 116.8 110.5 117.69 110.41 118.24 110.6 119.13 110.73 119.41 111.8 120.68 112.22 120.82 112.45 120.79 112.87 120.34 113.26 120.03 113.71 119.24 114.16 118.86 114.39 118.41 114.68 118.14 114.88 117.72 115.23 117.55 115.36 117.18 115.68 117.07 115.91 116.73 115.97 116.45 116.1 116.25 116.39 116.18 116.65 115.87 116.98 115.63 117.23 115.22 117.79 114.91 118.11 114.43 118.37 114.29 118.76 114.19 118.98 113.84 119.34 113.77 119.6 113.56 119.92 113.63"></polygon><path class="cls-3" d="M89.91,113.5l-.22-.38-.16-.38-.46-.24.23-.34,0-.21-.06-.34-.16-.24-.45-.31L87,110.51l-.42.2-1.59.45-.84.34-1.62,1.07-.32.1-.52.52-.68.55-.29.45-.35.1-.53.81h-.16l-.25.14-.94.89-.2.38H78l-.26.14-.1.48-.35,0-.33.24-.32.06-.16-.3.06-1,0-.41.16-.2-.26-.52.07-.38-.07-.82,0-.41-.09-.31-.55-.62-.62-.18-.39.11-.26.24-.23-.07-.48.38-.23.24-.71.41-.77.93-.29.13-.17.28-.26.14-.48.38-.38.1.09-1-.07-.41.07-.56-.09-.54,0-.73-.06-.27-.16-.35-.75-.65-.26-.07-.32.11-.26.31-.35-.07-.55.31-.52.41-.45.48-.59.21-.55.55-.77.61,0-1.23-.12-.42-.26-.3-.39-.11-.91.28H63l-.32.1-.55.35-.58.58-1.2.86-.26.38-.25.86.09.41.23.38.68-.25.16-.3.36-.49.39-.31.19-.27.39-.14.29-.2h.48l0,.34-.2.38-.58.93-.87,1.16-.59.93-.06.42.1.92.19.59.32.41.36.07.25,0,.2-.2,0-.38.3-.21.55-.89.32-.34.32-.21.29-.38.13-.27.36-.24.16-.59.26-.31h.39l.42-.72.26,0,.06-.35.23-.45,1.59-1.37.25-.17h.26l.13.28,0,.58.08,1.27-.1.21v.68l-.13.38.13.55,0,.89.36.76.52.69h.36l.35-.28.61-1,.39-.31.32-.55.3-.14.39-.58.35-.28,0-.48.36-.1.19-.28.3-.24.19-.34.29-.18.26-.27.29.31-.07.34-.09,2.1.09.28.3.27-.17.31.07.34.23.59.51.48,1.07.38.84-.62.49-.55.77-.48.26-.42.43-.1.58-.76.42-.37.29-.42.22-.24.2-.37.29,0,.1-.34.26-.07.22-.28.13.21-.38,1.27V117l-.14.28,0,.89.17.48.35.69.19.24.62.55.42.45.39.1.25.21.36-.1h.77l.27-.21.38,0,1.39-.65.62-.62.23.07,1.23-1.17.1-.34.25-.34.16-.38.46-.66.06-.48v-.38l.17-.27.06-.41,0-.86Zm-2.36.55.17.27.35.38.1.38-.13.75L87.52,117l-.35.31-.2.44-.61.52-.13.34H86l-.32.45-.36.14-.26.27-.65.17-.55-.1h-.35l-.07-.41-.22-.62.16-.86-.2-.24,0-.24.32-.21.1-.44.32-1,.84-.93.2-.48.38-.14.33-.37.29-.07.23-.41.39.13,1-.31.26-.27.36-.17.1.2-.36.31-.36.49-.06.34Z"></path><path class="cls-3" d="M184.65,114.61a2.71,2.71,0,0,0-.55.34l-.16,0a2.34,2.34,0,0,1-.55.53l-.06.1a.73.73,0,0,1-.64.36c-.3,0-.47-.18-.52-.5a.59.59,0,0,1-.37.2.43.43,0,0,0-.32.2.67.67,0,0,1-.45.23.8.8,0,0,0-.55.49l-.07,0h-.23a.38.38,0,0,0-.25.14l-.13.11a.43.43,0,0,0-.2.26l-.16.09a1.09,1.09,0,0,0-.5.2,1,1,0,0,0-.43.43l-.16-.06a1.11,1.11,0,0,1-.3.06,1.21,1.21,0,0,0-.59.16,1.08,1.08,0,0,1-.58.16l-.8.12c-.58,0-.87-.16-.87-.47t.06-.33c0-.2.08-.36.1-.49a1,1,0,0,1,.51-.17l.33-.34.17,0,.21-.19c.18,0,.27-.1.27-.23a.52.52,0,0,1,.13-.34l.23.06c.14,0,.42-.19.82-.59a.33.33,0,0,0,.35-.21.93.93,0,0,1,.36-.39l.3,0c.21-.42.4-.62.58-.62a.17.17,0,0,1,.1,0,.11.11,0,0,0,.1,0,.43.43,0,0,0,.25-.15,1.12,1.12,0,0,1,.31-.22,2,2,0,0,0,.42-.35,2,2,0,0,0,.85-.58,1.46,1.46,0,0,0,.52-1,.9.9,0,0,0-.3-.59.92.92,0,0,0-.67-.33,1.21,1.21,0,0,1-.5-.09.77.77,0,0,0-.28-.1l-.69,0a2.16,2.16,0,0,0-.65.11,1.76,1.76,0,0,1-.56.12l-.26-.07-.07,0a1.24,1.24,0,0,1-.37.3,4.48,4.48,0,0,0-1.36.62l-.2.28a.86.86,0,0,0-.54.64.42.42,0,0,1-.43.41l-.35.27-.29.57-.38.67a1,1,0,0,1-.17.33l-.23.83c0,.09-.14.22-.36.38a1.22,1.22,0,0,0-.32,1,.27.27,0,0,0,.22.31.57.57,0,0,1,.31.19,4.18,4.18,0,0,0,.45,1.14l.2,0c.13.48.35.73.67.73a1.87,1.87,0,0,1,.32.16.68.68,0,0,0,.36.11,2.39,2.39,0,0,0,.63-.09l.3-.1s.06,0,.13.13a.27.27,0,0,0,.2.13l.46-.07a.5.5,0,0,0,.21-.08l1.4-.48a2,2,0,0,1,.46-.26.3.3,0,0,0,.15-.07,1.16,1.16,0,0,1,.55-.19.48.48,0,0,0,.47-.36c.06-.21.15-.32.3-.32h.3l.09,0a1.8,1.8,0,0,1,.65-.42.73.73,0,0,0,.17-.34.21.21,0,0,1,.21-.19s.07,0,.07,0l.13.13s.1,0,.18-.13l.28-.29.56-.63a.52.52,0,0,1,.28-.2,1.4,1.4,0,0,0,.47-.36h.1c.09,0,.16-.15.21-.38a1.33,1.33,0,0,1,.24-.52.45.45,0,0,0,.16-.26l-.06-.29-.12,0C184.85,114.25,184.76,114.42,184.65,114.61Zm-8.05-.56a1.84,1.84,0,0,1,.63-.81,3.27,3.27,0,0,0,.63-.4,3.36,3.36,0,0,1,.39-.28l.2-.1.28-.06a1.08,1.08,0,0,1,.36-.19h.38a.87.87,0,0,1,.4-.16c.21,0,.31.06.31.19s-.1.13-.29.19a1.26,1.26,0,0,0-.57.53l-.16.07a1.89,1.89,0,0,1-.41.33,1,1,0,0,0-.3.23l-.14.13a8.53,8.53,0,0,0-.78.55,2.78,2.78,0,0,1-.59.37l-.56.24c-.07,0-.1,0-.1-.09A3.47,3.47,0,0,1,176.6,114.05Z"></path><path class="cls-3" d="M198,115.58l.17-.21a.53.53,0,0,1,.23-.41,2.31,2.31,0,0,0,.4-.45,2.22,2.22,0,0,1,.56-.5l.5-.48.16-.14c-.06-.16-.14-.26-.24-.26l-.07,0-.19.06a2,2,0,0,0-.88.6.2.2,0,0,1-.15.13.63.63,0,0,0-.31.25.68.68,0,0,1-.35.25.68.68,0,0,0-.31.14.35.35,0,0,1-.23.11l-.16.18a1.91,1.91,0,0,0-.35.33.83.83,0,0,0-.43.22c-.16.14-.32.26-.47.37l-.14-.06-.77.47c-.19.19-.33.29-.43.29a.22.22,0,0,1-.12-.07,4.2,4.2,0,0,1,.55-.66,5.74,5.74,0,0,0,.74-.92c.1-.49.17-.8.2-.9l.36-.92v0l-.1-.25a.58.58,0,0,1,.05-.2.33.33,0,0,0,0-.14,1.62,1.62,0,0,0-.47-1.13,1.51,1.51,0,0,0-1.15-.52s-.06,0-.06,0-.11.09-.14.09l-.38-.16a.41.41,0,0,1-.3.13,4.06,4.06,0,0,0-1.06.23l-.39.3a6,6,0,0,0-.65.42l-.06.24-.17.1a1.52,1.52,0,0,0-.77.36,6.54,6.54,0,0,1-.68.48,1.5,1.5,0,0,0-.4.33,1.49,1.49,0,0,1-.46.35.75.75,0,0,0-.4.47c-.15.17-.24.25-.28.25s-.07,0-.07-.06l0-.13,0-.15.48-2.08a1.45,1.45,0,0,0-.46-1.11c-.31-.29-.51-.43-.6-.43h-.33a1.27,1.27,0,0,1-.32.21.53.53,0,0,0-.26.25,8.25,8.25,0,0,1-1.23,1.39c-.23.17-.39.29-.45.35-.28.08-.41.15-.41.22l0,.22a.44.44,0,0,0-.3.07l-.28.09c-.07,0-.14.06-.23.18l-.16.23a2.25,2.25,0,0,0-.71.5,1.65,1.65,0,0,1-.58.42.75.75,0,0,0-.45.69.8.8,0,0,0,0,.23s0,0,0,0a1.67,1.67,0,0,1,.39-.35l.32-.24a.22.22,0,0,1,.16-.08c.06,0,.1,0,.1.14s0,.15.06.15.07,0,.07-.07a.61.61,0,0,0,0-.16v-.11a.31.31,0,0,1,.26-.32l.74-.47c0-.23.09-.36.19-.4a.66.66,0,0,0,.24-.13.27.27,0,0,1,.18-.07c.15,0,.22.08.22.24L185,114l0,.15h.06a.5.5,0,0,0,.17,0q.3,0,.3-.24l.11-.45c0-.09.14-.13.33-.13h.14c.06,0,.1,0,.1.16v.07l-.14.35,0,.24a6,6,0,0,0-.48,1.39l-.06.42-.2.37-.07.32s-.1.27-.25.68l-.39,1.14a.48.48,0,0,1-.1.29l-.19.24c-.11,0-.25.14-.39.39a.88.88,0,0,0-.36.36,1.37,1.37,0,0,1-.32.4l-.16.27a.4.4,0,0,1-.26.22c-.15.05-.24.19-.29.42s-.09.37-.15.41a4.59,4.59,0,0,0-.34.38,3.09,3.09,0,0,0-.42.62c-.23.15-.34.29-.34.42l-.24.44a6.07,6.07,0,0,0-.47.89,1,1,0,0,0-.46.47,1.9,1.9,0,0,1-.17.37.72.72,0,0,0-.12.25l-.19.44a2.68,2.68,0,0,0-.34,1.11l-.14.66a2.38,2.38,0,0,0,.28,1.29,5,5,0,0,1,.33.53,1.09,1.09,0,0,0,1.09.83l.71-.44a2.2,2.2,0,0,0,.63-.57,4.11,4.11,0,0,1,.37-.48c.11-.11.17-.18.17-.22a1.55,1.55,0,0,0,.31-.81l.1-.06,0-.17a.4.4,0,0,0,.1-.12l.09-.31.17-.29.15-.53a4.08,4.08,0,0,0,.57-1c.16-.42.27-.63.34-.64l0-.34a4,4,0,0,0,.33-.79v-.23l.07-.15a1.44,1.44,0,0,0,.31-.81,1.15,1.15,0,0,0,.27-.5.25.25,0,0,1,.06-.16l.22-.26c.2-.59.35-1,.46-1.24a1.47,1.47,0,0,0,.15-.55.39.39,0,0,1,.13-.21.8.8,0,0,0,.14-.21l.13-.07a.82.82,0,0,0,.31.2l.17.25a1.29,1.29,0,0,0,.43.47,1.17,1.17,0,0,0,.47.26l.38-.09h.2l.17,0s.06,0,.06,0,.2-.23.25-.23l.27.06.29,0a.4.4,0,0,1,.15,0l.53-.19a.8.8,0,0,1,.35-.16l.13-.08a.54.54,0,0,1,.3-.16l.34.06s0,0,0,0l.51-.19a.7.7,0,0,1,.43-.26h0l.25.09a0,0,0,0,0,0,0,1.15,1.15,0,0,1,.5-.27h.34a1.88,1.88,0,0,1,.22-.24,3.17,3.17,0,0,0,.2-.27c.09-.12.14-.19.16-.19l.3,0c.19,0,.62-.32,1.29-1l.16,0a.84.84,0,0,1,.28-.09l.2-.4.07,0h.1q.13,0,.51-.45l.22.07.08-.13A2.46,2.46,0,0,1,198,115.58Zm-14.91,7c0,.14-.13.39-.26.73l-.91,2.34a.83.83,0,0,1-.16.24l0,.13c-.08.11-.18.25-.28.42l-.16.31a12.72,12.72,0,0,1-.84,1.25v-.43a2.94,2.94,0,0,1,.19-1.13l0-.29,0-.32a1.79,1.79,0,0,1,.23-.3,1,1,0,0,0,.22-.64l-.07-.29h.17s.11-.15.23-.47c.39-.22.58-.46.58-.72v-.23l.28-.56a.38.38,0,0,1,.33-.26l.07-.08a2.54,2.54,0,0,1,.26-.58l.25,0s.1-.07.16-.2.13-.22.2-.24Q183.17,122.35,183.11,122.57Zm10.95-9.25-.1.21a2.92,2.92,0,0,1-.37.75l-.57.83-.55.59a4.08,4.08,0,0,1-.59.71,1.06,1.06,0,0,0-.24.26l-.08.2a.26.26,0,0,0-.1,0,.48.48,0,0,0-.28.17,5,5,0,0,1-1,.53.77.77,0,0,0-.31-.36l-.25-.09a.4.4,0,0,0-.15,0l-.52.09-.57.1a1.17,1.17,0,0,0-.45.23,3.48,3.48,0,0,0-.41.32.3.3,0,0,1-.18.11c-.05,0-.07,0-.07-.09l.1-.39a1,1,0,0,1,.49-.74H188l-.09-.33.17,0a.37.37,0,0,0,.15-.08l.64-.81a1,1,0,0,0,.3-.32l.41-.17a1.28,1.28,0,0,1,.33-.3c.08-.24.16-.36.25-.36h.23a2.08,2.08,0,0,1,.39-.42,3.84,3.84,0,0,0,.49-.48l.19.05.12-.08.2,0a.71.71,0,0,1,.42-.24.46.46,0,0,0,.3-.13.44.44,0,0,1,.28-.14.45.45,0,0,0,.24-.16.21.21,0,0,1,.18-.12.59.59,0,0,1,.33.15v0l.41-.18a1.58,1.58,0,0,1,.23.53A1.49,1.49,0,0,1,194.06,113.32Z"></path><path class="cls-3" d="M185.09,113.59c0-.16-.07-.24-.22-.24a.27.27,0,0,0-.18.07.66.66,0,0,1-.24.13c-.1,0-.17.17-.19.4l-.74.47a.31.31,0,0,0-.26.32v.11a.61.61,0,0,1,0,.16s0,.07-.07.07-.06,0-.06-.15,0-.14-.1-.14a.22.22,0,0,0-.16.08l-.32.24a1.67,1.67,0,0,0-.39.35s0,0,0,0c.05.32.22.5.52.5a.73.73,0,0,0,.64-.36l.06-.1a2.34,2.34,0,0,0,.55-.53l.16,0a2.71,2.71,0,0,1,.55-.34c.11-.19.2-.36.26-.48l.12,0,0-.15Z"></path><path class="cls-3" d="M211.23,115.17a.8.8,0,0,1-.33.41.72.72,0,0,1-.33.19c-.31,0-.46-.17-.46-.5l0-.13a.5.5,0,0,0-.21.25.26.26,0,0,1-.29.22l-.27.22a1.73,1.73,0,0,0-.34.41l-.17.06a1,1,0,0,0-.33.33,1.4,1.4,0,0,1-.77.43.5.5,0,0,1-.12-.4l.07-.45,0-.41a.49.49,0,0,1,.14-.3.51.51,0,0,0,.14-.26v0l.23-.67a1,1,0,0,1,.1-.29,2.74,2.74,0,0,0,1-2c0-.59-.24-.89-.71-.89a1.33,1.33,0,0,0-1.3.59c-.21.39-.36.59-.47.59s-.15-.1-.17-.29c-.07-.92-.44-1.39-1.12-1.39a.43.43,0,0,0-.17,0l-.26.14h0a1.07,1.07,0,0,0-.31-.14h-.1a6.78,6.78,0,0,1-.88.41h-.13a1.35,1.35,0,0,0-.59.21,4.56,4.56,0,0,1-.75.34,2,2,0,0,0-.7.43,1.88,1.88,0,0,1-.41.33,4.66,4.66,0,0,0-1.09.76.25.25,0,0,1,0,.07l-.22.33V114l.06.18a.79.79,0,0,1-.2.41.6.6,0,0,1-.45.25.59.59,0,0,0-.34.28,1.35,1.35,0,0,1-.49.44,1.38,1.38,0,0,0-.52.51c-.07.14-.16.22-.28.22l-.08,0a2,2,0,0,0-.21.38l0,.44c-.21,0-.31.06-.31.19l0,.54v.09a.72.72,0,0,0,0,.26,1.23,1.23,0,0,0,.14.63l.17.66c0,.22.25.42.64.58a2.89,2.89,0,0,0,1,.24,4.36,4.36,0,0,0,1.86-.85l.1-.1c.26-.13.45-.24.58-.32l1.26-1a1.49,1.49,0,0,0,.38-.41,1.73,1.73,0,0,1,.18-.29l.31,0,.17-.16a.54.54,0,0,1,.29-.19c.15,0,.23-.11.25-.18l.07-.1a1.56,1.56,0,0,0,.33-.29.77.77,0,0,1,.21-.41.57.57,0,0,0,.41-.16c.11-.1.19-.16.24-.16s.06,0,.06.1l-.1.79a.62.62,0,0,0,0,.16.61.61,0,0,1,0,.17.13.13,0,0,1,0,.1.15.15,0,0,0,0,.1.26.26,0,0,0,.09.16.33.33,0,0,1,.08.16l-.07.31a.79.79,0,0,0,.15.51.67.67,0,0,1,.17.3.43.43,0,0,0,.11.21,1.8,1.8,0,0,1,.55.15,1.37,1.37,0,0,0,.58.12.72.72,0,0,0,.24-.09,2.52,2.52,0,0,1,.52-.18,1.32,1.32,0,0,0,.52-.26l0-.16.39-.15a.91.91,0,0,1,.49-.32.47.47,0,0,0,.35-.29.72.72,0,0,1,.48-.37l.17-.23a1.27,1.27,0,0,0,.39-.35.76.76,0,0,1,.32-.28l.12-.21.06-.45a2.34,2.34,0,0,0,.29-.81l-.21,0A.49.49,0,0,0,211.23,115.17Zm-5.64-1.06a9,9,0,0,1-.9.8.86.86,0,0,1-.41.39.74.74,0,0,0-.4.53.87.87,0,0,0-.33.23,1.31,1.31,0,0,1-.45.27l-.34.26c-.42.23-.73.39-.91.5a.75.75,0,0,1-.33.28,1.08,1.08,0,0,0-.3.2.31.31,0,0,1-.17.1.24.24,0,0,0-.14.09l-.32.15a.86.86,0,0,0-.26.13,2.32,2.32,0,0,1-.49.24,2.12,2.12,0,0,1-.56.17c-.2,0-.31-.27-.31-.79a.58.58,0,0,1,.19-.35.85.85,0,0,0,.22-.48.38.38,0,0,1,.24-.34,1.06,1.06,0,0,0,.33-.19l.11-.27a1.93,1.93,0,0,1,.43-.39.75.75,0,0,1,.51-.56,2.54,2.54,0,0,0,.78-.7,1.33,1.33,0,0,0,.63-.31,2.55,2.55,0,0,1,1-.44,3.35,3.35,0,0,0,.73-.24,1,1,0,0,1,.46-.1l.32.06.22,0,.23.11.32,0,.29,0,.14-.08h0s.06,0,.06.05S206,113.72,205.59,114.11Z"></path><path class="cls-3" d="M197.92,116a1.38,1.38,0,0,1,.52-.51,1.35,1.35,0,0,0,.49-.44.59.59,0,0,1,.34-.28.6.6,0,0,0,.45-.25.79.79,0,0,0,.2-.41l-.06-.18v-.16l.22-.33a.25.25,0,0,0,0-.07l-.16.14-.5.48a2.22,2.22,0,0,0-.56.5,2.31,2.31,0,0,1-.4.45.53.53,0,0,0-.23.41l-.17.21a2.46,2.46,0,0,0-.38.5l-.08.13.08,0C197.76,116.24,197.85,116.16,197.92,116Z"></path><path class="cls-3" d="M219.82,115.76a.71.71,0,0,1-.58.2c-.17,0-.25-.13-.25-.38,0-.07,0-.11,0-.17l-1.54,1.15a4.48,4.48,0,0,0-.7.32,2.59,2.59,0,0,1-.32.15l-.37.35-.26,0a.67.67,0,0,0-.45.1l-.1-.07c.16-.07.24-.17.24-.29v-.66c0-.06,0-.1,0-.1s.18-.18.18-.24l-.1-.39c0-.06.08-.15.23-.25l.07-.34c.23,0,.44-.53.63-1.45l.28-1.26a1.28,1.28,0,0,0-.52-.91,1.52,1.52,0,0,0-1-.48.77.77,0,0,0-.54.2,1.54,1.54,0,0,1-.47.33l-.22.1a1.57,1.57,0,0,1-.48.44,1.18,1.18,0,0,0-.39.38,1,1,0,0,0-.27,0c-.11,0-.25.09-.43.27a1.85,1.85,0,0,1-.4.31.44.44,0,0,0-.19.12l-.27.19a1.45,1.45,0,0,0-.58.56l-.16.07c-.15.16-.27.24-.35.24h-.1l-.26.23,0,.09-.11.63a.78.78,0,0,1,.15-.1,1.37,1.37,0,0,0,.57-.52c.17-.26.35-.4.54-.4s.14.06.23.17a.43.43,0,0,1,.13.25,2.89,2.89,0,0,1,0,.29l.15,0a.87.87,0,0,0,.48-.34c0-.24.09-.36.2-.36h.06l.22.1.13,0a.54.54,0,0,1,.28-.25c.1,0,.15,0,.15-.09s.16-.16.18-.16l.3.09a1.61,1.61,0,0,1,.41-.26.18.18,0,0,1,.2.2,1.06,1.06,0,0,1-.15.29,1,1,0,0,0-.17.46.6.6,0,0,1-.16.35l-.16.22-.07.29c-.06.21-.11.35-.13.44a.49.49,0,0,0-.17.26l-.08.4q0,.13-.06.33a1.25,1.25,0,0,1-.1.31,1.26,1.26,0,0,0-.07.55l0,.1,0,.23a1.53,1.53,0,0,0,.1.29,1.34,1.34,0,0,1,.1.33l0,.23v.1a.91.91,0,0,0,.4.7,1.2,1.2,0,0,0,.68.33l.34-.1.24,0a.44.44,0,0,0,.27-.16.56.56,0,0,1,.39-.19.78.78,0,0,0,.32-.08l.3-.16a1.87,1.87,0,0,1,.48-.27,1.15,1.15,0,0,0,.31-.14l.1-.16.71-.5a3.56,3.56,0,0,0,.5-.42,4.67,4.67,0,0,1,.74-.59,1.69,1.69,0,0,0,.54-.45,1.35,1.35,0,0,1,.26-.28,1.13,1.13,0,0,0,.27-.46,2.67,2.67,0,0,1,.26-.56v0l-.32.08A1.49,1.49,0,0,0,219.82,115.76Z"></path><path class="cls-3" d="M218.47,104.58c-.39.13-.62.19-.7.21-.35,0-.52.33-.52.84v.09l.1.63a1,1,0,0,0,.38.56,1,1,0,0,0,.59.31A1.07,1.07,0,0,0,219,107a.75.75,0,0,0,.32-.55,2,2,0,0,1,.07-.43.59.59,0,0,0,0-.14,1.45,1.45,0,0,0-.32-.79A1.17,1.17,0,0,0,218.47,104.58Z"></path><path class="cls-3" d="M211.62,114.29c-.09-.11-.16-.17-.23-.17s-.37.14-.54.4a1.37,1.37,0,0,1-.57.52.78.78,0,0,0-.15.1l0,.13c0,.33.15.5.46.5a.72.72,0,0,0,.33-.19.8.8,0,0,0,.33-.41.49.49,0,0,1,.27-.29l.21,0a2.89,2.89,0,0,0,0-.29A.43.43,0,0,0,211.62,114.29Z"></path><path class="cls-3" d="M231.61,115.51a.25.25,0,0,1-.19.15.36.36,0,0,0-.22.11.44.44,0,0,1-.31.1q-.15,0-.27-.3c0-.09-.07-.16-.09-.22l-.31.23a6.61,6.61,0,0,1-.89.77,3.44,3.44,0,0,0-.5.38,1.75,1.75,0,0,1-.48.3,1.93,1.93,0,0,0-.52.31,1.76,1.76,0,0,1-.56.32,2.48,2.48,0,0,0-.49.22,1.73,1.73,0,0,1-.48.2,1.12,1.12,0,0,0-.41.17.38.38,0,0,1-.16.1l-.23-.07a1,1,0,0,1-.25.1c-.43,0-.64-.08-.64-.24a.52.52,0,0,1,.12-.26,1.24,1.24,0,0,0,.19-.36,1.13,1.13,0,0,1,.13-.27l.13-.19a3,3,0,0,1,.21-.37.27.27,0,0,0,.07-.13v-.29c0-.09.12-.17.34-.24a3.23,3.23,0,0,0,.34-.58l.17-.12a6.58,6.58,0,0,1,1.1-1.21,1.56,1.56,0,0,0,.29-.87,5,5,0,0,0-.24-.85,5.82,5.82,0,0,0-.38-.92l-.09-.24c-.05-.79-.4-1.18-1.06-1.18a2,2,0,0,0-1.46.6.78.78,0,0,1-.24.22.4.4,0,0,0-.15.13,4.27,4.27,0,0,1-1.16.89l-.1.21-.24.06-.2.23a1.71,1.71,0,0,0-.74.49,1.84,1.84,0,0,1-.59.47.58.58,0,0,0-.33.27c0,.1-.15.16-.32.19a2.07,2.07,0,0,0-.84.5,1.53,1.53,0,0,0-.54,1.09l.62-.46c.3-.29.52-.44.68-.44s.25.1.25.31a1,1,0,0,1-.14.55h0a1.28,1.28,0,0,1,.35-.13,3.64,3.64,0,0,1,.4-.45.45.45,0,0,0,.38-.18,1,1,0,0,1,.16-.19c.35-.09.55-.14.62-.17s.14-.13.23-.34l.28-.12a1.08,1.08,0,0,1,.47-.38,1.07,1.07,0,0,0,.35-.21,2.31,2.31,0,0,1,.44-.24.84.84,0,0,0,.45-.33c.07-.11.13-.17.19-.17.28,0,.43.16.43.47a.94.94,0,0,1-.14.29c-.06,0-.12.11-.16.25a1.28,1.28,0,0,1-.1.25l-.22.29a1.24,1.24,0,0,1-.28.52,7.86,7.86,0,0,0-.66,1.14,1.53,1.53,0,0,1-.25.61.72.72,0,0,0-.19.35,3.22,3.22,0,0,1-.17.49,3.22,3.22,0,0,0-.13,1.1,1.2,1.2,0,0,0,.18.46,5.32,5.32,0,0,1,.3.65,1.44,1.44,0,0,0,.7.65c.39.22.59.32.6.32l.48,0,.27-.08a.94.94,0,0,1,.24.11l.4-.21.48-.09a3.55,3.55,0,0,1,1.06-.6c.17,0,.26-.08.26-.23v0l-.1-.16c0-.1.07-.15.2-.15H228l.1,0a1.59,1.59,0,0,0,.24-.13l.07-.16c0-.15.06-.23.13-.23a.33.33,0,0,1,.13.06.33.33,0,0,0,.14.07s.13-.07.25-.2a4.77,4.77,0,0,1,.7-.57,8.68,8.68,0,0,0,.8-.65,1.2,1.2,0,0,1,.44-.32c.1,0,.18-.17.25-.41a.37.37,0,0,0,.31-.26.71.71,0,0,1,.18-.33c.08-.09.12-.15.12-.2a.26.26,0,0,0,0-.14l0-.19a.46.46,0,0,1-.07.07A.83.83,0,0,0,231.61,115.51Z"></path><path class="cls-3" d="M220.32,114.51c-.16,0-.38.15-.68.44l-.62.46c0,.06,0,.1,0,.17,0,.25.08.38.25.38a.71.71,0,0,0,.58-.2,1.49,1.49,0,0,1,.29-.31l.32-.08a1,1,0,0,0,.14-.55C220.57,114.61,220.48,114.51,220.32,114.51Z"></path><path class="cls-3" d="M251.87,115.83a.9.9,0,0,0-.13-.38,2.38,2.38,0,0,0,.06-.34c0-.15-.08-.23-.26-.23a1.79,1.79,0,0,0-.9.46,2.48,2.48,0,0,0-.69.7,1.45,1.45,0,0,1-.14.26l-.39,0a.51.51,0,0,0-.33.41c0,.17-.07.25-.15.25h-.07l-.2-.06h0l-.1.06a1.11,1.11,0,0,1-.28.1,1.06,1.06,0,0,0-.28.12.83.83,0,0,1-.21-.37l.08-.89,0-.29a.67.67,0,0,1,.19-.28.51.51,0,0,0-.14-.24.57.57,0,0,1-.14-.27l.09-.34v-.32l-.12-.5.08-.37a1.12,1.12,0,0,0-.4-.64,1.39,1.39,0,0,0-1-.41.67.67,0,0,0-.33.16,1.17,1.17,0,0,1-.27.16h0l-.15-.06-.36.27a.62.62,0,0,0-.26.19c-.11.11-.18.17-.22.17a4,4,0,0,0-1.43,1.12.35.35,0,0,1-.23.23.58.58,0,0,0-.27.22c-.07.1-.13.15-.17.15s-.11.05-.2.13l-.23.23a1.21,1.21,0,0,0-.48.3c-.14,0-.22-.1-.22-.3l.19-.79-.07-.41.07-.38v-.14a5.49,5.49,0,0,1-.14-.72l.07-.55c0-.22-.17-.48-.51-.77a1.48,1.48,0,0,0-.81-.44.54.54,0,0,0-.41.2c-.11.14-.18.21-.2.21l-.27-.1a1.93,1.93,0,0,0-.65.32l-.57.4a1.59,1.59,0,0,1-.45.42l-.46.21a1.35,1.35,0,0,0-.51.32,2.16,2.16,0,0,1-.43.37,3.9,3.9,0,0,0-.56.46l-.07-.13,0-.29c0-1.15-.24-1.67-.71-1.56l-1.11.27h-.23a2.85,2.85,0,0,0-1,.55l-.07.11a.83.83,0,0,0-.25.18,2,2,0,0,1-.34.22c-1.07.57-1.61,1.25-1.61,2a1.19,1.19,0,0,0,0,.14.79.79,0,0,1,.24-.11,2,2,0,0,0,.28-.43c.18-.29.37-.43.59-.43s.35.11.35.33a.45.45,0,0,1-.16.33v.17c.07-.07.15-.17.27-.32a1.35,1.35,0,0,1,.49-.41.41.41,0,0,1,.29-.23,1,1,0,0,0,.4-.21.72.72,0,0,1,.5-.16c.09,0,.13.09.13.26a.32.32,0,0,1-.08.24.43.43,0,0,0-.08.29l-.22.34a7.82,7.82,0,0,0-.64.79,7.26,7.26,0,0,1-.75.89,4.34,4.34,0,0,1-.4.69.85.85,0,0,0-.21.5c0,1.35.33,2,1,2,.35,0,.52-.09.52-.26l0-.27c0-.06.06-.12.19-.19s.2-.13.22-.18a5.9,5.9,0,0,1,.4-.55c.24-.32.37-.47.37-.48s.17-.14.43-.25a2.37,2.37,0,0,0,.31-.47.49.49,0,0,1,.32-.27c.14,0,.21-.1.21-.19,0-.55.13-.82.4-.82l.31.06.06-.06c.29-.47.46-.7.52-.7h.06c.07,0,.1,0,.1.06s.07,0,.07,0a1,1,0,0,1,.47-.82,7,7,0,0,0,.53-.5,4.23,4.23,0,0,1,.77-.58,2.27,2.27,0,0,1,.69-.37s.06,0,.12.12a.39.39,0,0,1,.09.17l-.07.5,0,.56-.07.26.1.47a.9.9,0,0,0-.13.26v.08a.22.22,0,0,1,0,.1V116a2.28,2.28,0,0,0-.13.37v.06a1.06,1.06,0,0,1,.13.26l-.06.6a2.64,2.64,0,0,0,.39,1.13c.26.48.49.72.68.72s.52-.27,1-.82l.1-.18a2.66,2.66,0,0,0,.23-.35l.2-.1a1,1,0,0,1,.31-.34l.2-.38a.47.47,0,0,1,.23,0,2.16,2.16,0,0,1,.62-.67c.16-.08.24-.18.24-.27l0-.13v-.07a.35.35,0,0,1,.2-.28l.13,0s.1-.06.18-.16a1.17,1.17,0,0,1,.4-.31.93.93,0,0,1,.38-.46.72.72,0,0,0,.28-.2c.08-.09.14-.13.19-.13s.23.06.23.19l-.1.82,0,.18-.06.29,0,.57a2.11,2.11,0,0,1,0,.21.52.52,0,0,0,0,.21,1.53,1.53,0,0,0,.38.69.21.21,0,0,1-.09.13c-.06,0-.09.09-.09.11a1.09,1.09,0,0,0,.27.86,3.32,3.32,0,0,1,.42.4,1.53,1.53,0,0,0,.58.35,2.07,2.07,0,0,0,.59.16,1.44,1.44,0,0,0,.93-.58c.38-.39.59-.61.66-.66l.35-.21a.45.45,0,0,1,.22-.09c.12,0,.21-.12.3-.28s.13-.25.15-.25l.33,0,.07-.07a2.43,2.43,0,0,1,.81-.88C251.69,116.26,251.87,116,251.87,115.83Z"></path><path class="cls-3" d="M231.83,115a.45.45,0,0,0,.16-.33c0-.22-.12-.33-.35-.33s-.41.14-.59.43a2,2,0,0,1-.28.43.79.79,0,0,0-.24.11c0,.06.05.13.09.22s.17.3.27.3a.44.44,0,0,0,.31-.1.36.36,0,0,1,.22-.11.25.25,0,0,0,.19-.15.83.83,0,0,1,.15-.23.46.46,0,0,0,.07-.07V115Z"></path><path class="cls-3" d="M263,114.79l-.27-.05a6,6,0,0,1-.86.56.9.9,0,0,0-.36.37c0,.07,0,.11-.12.13a1.79,1.79,0,0,0-.43.26h-.1c-.28,0-.41-.19-.41-.58l0-.1a.34.34,0,0,0-.09.08.63.63,0,0,1-.39.21.41.41,0,0,0-.32.2.7.7,0,0,1-.45.23.81.81,0,0,0-.56.49l-.06,0h-.23a.38.38,0,0,0-.25.14l-.13.11a.39.39,0,0,0-.2.26l-.16.09a1.43,1.43,0,0,0-.93.63l-.16-.06a1.27,1.27,0,0,1-.3.06,1.21,1.21,0,0,0-.59.16,1.1,1.1,0,0,1-.58.16l-.8.12c-.58,0-.87-.16-.87-.47t.06-.33c0-.2.08-.36.1-.49a1,1,0,0,1,.51-.17l.33-.34.17,0,.21-.19c.18,0,.26-.1.26-.23a.53.53,0,0,1,.14-.34l.23.06c.14,0,.41-.19.82-.59a.34.34,0,0,0,.35-.21.82.82,0,0,1,.36-.39l.3,0c.21-.42.4-.62.57-.62a.13.13,0,0,1,.1,0,.12.12,0,0,0,.1,0,.42.42,0,0,0,.26-.15,1,1,0,0,1,.3-.22,2.24,2.24,0,0,0,.43-.35,2,2,0,0,0,.84-.58,1.48,1.48,0,0,0,.53-1,1.15,1.15,0,0,0-1-.92,1.29,1.29,0,0,1-.51-.09.75.75,0,0,0-.27-.1l-.69,0a2.16,2.16,0,0,0-.65.11,1.82,1.82,0,0,1-.56.12l-.26-.07a.11.11,0,0,0-.07,0,1.18,1.18,0,0,1-.38.3,4.38,4.38,0,0,0-1.35.62l-.2.28a.86.86,0,0,0-.54.64.42.42,0,0,1-.43.41l-.35.27q-.23.45-.3.57l-.38.67a.87.87,0,0,1-.16.33l-.23.83a1,1,0,0,1-.36.38,1.22,1.22,0,0,0-.32,1c0,.17.07.28.21.31a.56.56,0,0,1,.32.19,4.18,4.18,0,0,0,.45,1.14l.19,0c.13.48.36.73.68.73a1.85,1.85,0,0,1,.31.16.71.71,0,0,0,.37.11,2.39,2.39,0,0,0,.63-.09l.29-.1s.07,0,.13.13a.31.31,0,0,0,.2.13l.47-.07a.55.55,0,0,0,.21-.08l1.39-.48a2.48,2.48,0,0,1,.46-.26c.08,0,.13,0,.15-.07a1.21,1.21,0,0,1,.56-.19.5.5,0,0,0,.47-.36c0-.21.15-.32.3-.32h.29l.1,0a1.8,1.8,0,0,1,.65-.42.73.73,0,0,0,.17-.34.21.21,0,0,1,.21-.19s.06,0,.06,0l.14.13s.1,0,.18-.13l.28-.29.56-.63a.54.54,0,0,1,.27-.2,1.32,1.32,0,0,0,.48-.36h.1c.08,0,.15-.15.21-.38a1.2,1.2,0,0,1,.24-.52.51.51,0,0,0,.16-.26h0A1.9,1.9,0,0,0,263,114.79Zm-8.19-.74a1.77,1.77,0,0,1,.63-.81,3.27,3.27,0,0,0,.63-.4l.38-.28.2-.1.28-.06a1.09,1.09,0,0,1,.37-.19h.38a.85.85,0,0,1,.39-.16c.21,0,.32.06.32.19s-.1.13-.29.19a1.26,1.26,0,0,0-.57.53l-.16.07a2.17,2.17,0,0,1-.41.33,1.14,1.14,0,0,0-.31.23l-.13.13a8.53,8.53,0,0,0-.78.55,2.78,2.78,0,0,1-.59.37l-.56.24c-.07,0-.1,0-.1-.09A3.47,3.47,0,0,1,254.76,114.05Z"></path><path class="cls-3" d="M277.87,115.5l.21-.37.05-.31.19-.23h-.05a.5.5,0,0,0-.35.21l-.13.16-.2.09-.41.36-.92.53a.77.77,0,0,0-.38.47.57.57,0,0,0-.26.47.09.09,0,0,1-.07,0l-.16-.07h-.07a.33.33,0,0,0-.31.26,2.1,2.1,0,0,1-.47.39.63.63,0,0,1-.38.34l-.53.14c-.05,0-.13-.11-.23-.35l-.33-.68v-.14a.18.18,0,0,1,.08-.17,1.3,1.3,0,0,0,.34-1l0-.31.13-.89v-.06l-.06-.44,0-.29a2,2,0,0,0-.49-1.06,1.38,1.38,0,0,0-1.76-.54l-.49.17a.59.59,0,0,0-.2.08l-.23.13-.24.06a1.4,1.4,0,0,1-.57.29.68.68,0,0,0-.39.21,1.85,1.85,0,0,1-.6.36l-.13.24-.16.13a2,2,0,0,1-.51.24.93.93,0,0,0-.58.53.57.57,0,0,1-.24.2,1.6,1.6,0,0,0-.37.25.49.49,0,0,1-.27.13c-.11,0-.16,0-.16-.13a.85.85,0,0,1,.2-.43,3.12,3.12,0,0,0,.09-.63l0-.44a2,2,0,0,0-.48-1,1.61,1.61,0,0,0-1.38-.65c-.24,0-.42.15-.55.45a1.24,1.24,0,0,1-.76.66l-.11.16a1.39,1.39,0,0,0-.76.29,9,9,0,0,1-.93.58,1.35,1.35,0,0,0-.71.73l-.3.82a1.26,1.26,0,0,1,.29-.27l.33-.24a.22.22,0,0,1,.15-.08c.07,0,.1,0,.1.14s0,.15.07.15a.06.06,0,0,0,.07-.07.73.73,0,0,0,0-.16v-.11a.32.32,0,0,1,.26-.32l.75-.47c0-.23.09-.36.19-.4a.89.89,0,0,0,.24-.13.27.27,0,0,1,.18-.07c.14,0,.22.08.22.24l-.09.42.09.43a.42.42,0,0,1,.19-.12,1.73,1.73,0,0,0,.6-.4l0,.06a1.35,1.35,0,0,1-.23.41,1.51,1.51,0,0,0-.23.5.38.38,0,0,1-.1.23.26.26,0,0,0-.09.18c0,.23,0,.34-.06.34h-.22a1.27,1.27,0,0,0-.26.3,1.07,1.07,0,0,1-.39.36.28.28,0,0,0-.19.29v.13l0,.07c-.48.1-.71.75-.71,1.95a1.11,1.11,0,0,0,.22.58c.15.24.28.37.41.4a1.46,1.46,0,0,1,.3.11.4.4,0,0,0,.19.07c.1,0,.22-.15.37-.44a1.08,1.08,0,0,0,.35-.23c.13-.13.2-.19.23-.19h.16l.07-.06a.64.64,0,0,1,.11-.24c.29,0,.47-.12.54-.26.06-.35.17-.53.31-.53a1.42,1.42,0,0,1,.3.19,2,2,0,0,1,.34-.35c.2-.13.3-.22.3-.26,0-.25.07-.39.22-.41a2,2,0,0,0,.72-.48c.33-.29.69-.6,1.11-.93a3.21,3.21,0,0,0,.61-.54,2.62,2.62,0,0,0,.27-.19l.13-.1a.84.84,0,0,0,.38-.18.62.62,0,0,0,.38-.13,3.63,3.63,0,0,1,.62-.35l.12,0a.55.55,0,0,1,.33-.18c.19,0,.29.11.29.34l0,.39.06.4-.09.79a.44.44,0,0,0,.05.19.54.54,0,0,1,0,.18s0,.11-.13.19a1,1,0,0,1,.1.38.94.94,0,0,0,.09.43.84.84,0,0,1,.1.23v0c-.1.2-.16.3-.16.32a.68.68,0,0,0,.08.19.59.59,0,0,1,.08.22,3,3,0,0,0,.38.68,1.55,1.55,0,0,0,.59.6,2.29,2.29,0,0,1,.46.2.69.69,0,0,0,.35.13l.32-.07.46.07a.29.29,0,0,0,.21-.1l.23-.16a1.25,1.25,0,0,0,.68-.6L275,119h.26a.39.39,0,0,0,.15-.34l.64-.53a1.7,1.7,0,0,1,.3-.23l.45-.22.84-.87.15-.15.16-.35Z"></path><path class="cls-3" d="M263.25,113.59c0-.16-.08-.24-.22-.24a.27.27,0,0,0-.18.07.89.89,0,0,1-.24.13c-.1,0-.17.17-.19.4l-.75.47a.32.32,0,0,0-.26.32v.11a.73.73,0,0,1,0,.16.06.06,0,0,1-.07.07c-.05,0-.07,0-.07-.15s0-.14-.1-.14a.22.22,0,0,0-.15.08l-.33.24a1.26,1.26,0,0,0-.29.27l0,.1c0,.39.13.58.41.58h.1a1.79,1.79,0,0,1,.43-.26c.08,0,.12-.06.12-.13a.9.9,0,0,1,.36-.37,6,6,0,0,0,.86-.56l.27.05a1.9,1.9,0,0,1,.3-.35l-.09-.43Z"></path><polygon class="cls-3" points="173.31 123.15 172.63 122.57 172.3 122.4 172.04 121.98 171.49 121.4 169.75 119.96 169.43 119.58 168.94 119.31 168.68 119.03 167.9 118.48 167.42 117.93 166.28 116.94 165.51 116.66 165.31 116.21 164.38 115.49 164.15 115.53 164.18 115.28 163.86 115.08 162.4 113.81 161.79 113.02 162.3 112.05 162.63 111.71 162.63 111.4 162.95 111.06 162.99 110.65 163.21 110.4 163.31 109.99 163.5 109.55 163.93 109.3 164.28 109.17 164.7 109.2 165.15 108.79 165.57 109 166.03 108.72 166.51 108.55 166.77 108.65 167.28 108.45 167.81 108.48 168.52 108.27 168.91 108.1 169.39 108.17 169.75 107.93 170.1 107.89 170.33 107.72 172.76 107.35 172.98 107.24 173.18 106.97 173.53 106.97 174.15 106.86 174.79 106.45 175.21 106.42 175.8 106 176.15 105.83 176.45 105.39 176.9 105.04 177.03 104.73 177.09 104.05 177.19 103.57 177.19 103.12 176.99 102.47 176.99 102.09 176.54 101.71 176.34 101.16 175.89 100.82 175.74 100.5 175.12 100.33 174.53 99.92 174.15 99.95 173.53 99.68 172.92 99.65 172.4 99.47 171.78 99.51 171.56 99.41 170.62 99.55 170.2 99.34 169.65 99.44 168.91 99.34 168.03 99.55 167.65 99.34 166.51 99.41 165.41 99.65 164.5 99.75 163.79 99.95 163.57 99.92 163.21 100.09 162.86 100.06 162.18 100.23 161.69 100.23 161.43 100.5 161.08 100.37 160.85 100.4 159.81 100.75 158.84 100.99 158 101.3 157.72 101.47 156.9 102.26 156.8 102.64 156.97 103.15 157.26 103.46 157.81 103.6 158.35 103.5 158.81 103.22 158.97 102.95 159.1 102.57 159.39 102.43 159.81 102.02 160.27 101.85 160.49 101.61 160.91 101.64 161.14 101.3 161.63 101.26 161.92 101.37 162.21 101.16 163.25 101.16 163.6 101.06 163.82 101.09 164.54 100.95 164.93 100.89 165.77 100.95 166.19 100.92 166.51 100.75 167 101.06 168.22 100.95 169.1 101.09 169.62 101.19 169.97 101.16 170.49 101.16 170.72 101.3 171.49 101.33 171.85 101.37 172.47 101.71 172.79 101.71 173.18 101.95 173.89 102.19 174.12 102.16 174.57 102.57 174.93 102.64 175.12 102.98 175.18 103.25 175.15 103.5 174.6 104.22 173.04 104.73 172.5 105.01 171.94 105.39 171.13 105.49 170.85 105.7 170.33 105.83 170.3 106.04 170.03 105.83 169.58 106.07 169.58 106.28 169.2 106.18 168.36 106.28 166.28 106.86 165.38 107.04 165.12 107.31 164.73 107.38 165.28 105.8 165.67 104.94 165.93 104.53 165.9 103.7 165.48 102.91 164.5 102.29 164.12 102.33 163.6 102.67 163.54 102.98 163.57 103.29 163.76 103.63 163.63 103.84 163.79 104.29 163.38 104.56 163.08 105.73 162.86 106 162.44 107 162.21 107.31 161.82 108.34 161.56 108.51 161.14 108.58 160.2 109.1 159.62 109.3 159.07 109.65 158.13 110.4 158.06 110.61 158.2 111.13 158.52 111.47 158.88 111.75 159.07 112.16 159.49 112.5 159.56 112.91 159.07 113.7 158.49 114.91 157.32 117.28 157.1 118.52 157.68 119.68 158.32 120.09 158.91 120.23 159.33 120.09 159.46 119.82 159.65 118.27 160.4 116.45 160.49 115.94 160.66 115.73 161.08 114.87 161.3 114.67 161.4 114.46 161.69 114.63 161.69 114.84 161.95 115.04 162.53 115.73 162.79 115.9 163.08 116.35 163.31 116.49 163.63 116.59 163.67 116.9 164.02 117.18 164.41 117.31 164.6 117.83 165.25 118.31 165.41 118.65 166.03 119.48 166.74 120.06 167.16 120.61 167.61 120.89 168.32 121.71 168.58 121.95 168.91 122.36 169.65 123.09 170.13 123.7 170.98 124.12 171.21 124.73 171.53 124.84 172.08 125.11 172.47 125.18 172.76 125.15 173.72 124.39 173.72 123.98 173.63 123.57 173.31 123.15"></polygon><path class="cls-3" d="M296.52,106.1l-.32-.43-.57-.19-.23,0-.38-.06-.42.12-.27,0-.54.24-.58-.12-1.29.28h-.34l-.24-.1-.31.22-.77.15-.29.12-.32-.09h-.26l-1,.21-1.18.19-1,.3-1.24.16-.25.15-.21-.1,0-.18.2-.24.49-.43.11-.55-.2-.7-.31-.4-.29-.12-.23.24-.28.4-.52,1-.43.39-.46.61-.69.4-1,.22-.4.21-.86.27h-.75l-.26.37-.2-.18-.32.24-.43.74,0,.18.06.27.31.25.35,0,.29.06.4-.25.72-.12.35-.12.62-.06.32,0-.06.21-.23.15-.62,1.34-.31.34-.32.49-.23.27-.12.49.2.21-.11.22-.35-.09-.11.33-.43.89-.1.13c.12,0,.2.06.2.16l-.15.33.07.53a.73.73,0,0,1-.21.51c-.11.13-.28.3-.49.52h0l.12.71v.33l.11.28.06.4.69,1,.4.25.4.33.43-.15.52,0,.23-.09.6-.09.43-.37.29-.09.49-.28.34-.09.38-.43.34-.09.15-.3.31-.25.29-.36.58-.55.17-.31.29-.3.28-.23.23-.43.81-.41-.06-1.53-.63.4-.32.46-.34.27h-.2l-.29.43-1.12.94-.15.28h-.31l-.23.12-.23.31-.35.15-.23.18-.28.13-1,.64h-.31l-.5.24h-.77L279,118l-.06-.34v-.24l.09-.22,0-.36.2-.19.08-.36.23-.37v-.46L280,115l.06-.31.17-.18.32-.4.09-.27.2-.31.31-.79.37-.37.23-.52.35-.18.74-1.52.29-.16.08-.36.2-.13.12-.33h.31l.38-.24.52.06.6-.25.49,0,1.29-.36.61,0,.52-.18.51,0,.35-.12h.69l.83-.37.26.13.28-.07.72,0,1.21-.3.32,0,1.23-.15.46.06,1.29.06.41-.21.05-.22-.08-.55Z"></path><path class="cls-3" d="M278.44,115.61l-.07-.53.15-.33c0-.1-.08-.15-.2-.16l-.19.23-.05.31-.21.37,0,.79-.16.35c.21-.22.38-.39.49-.52A.73.73,0,0,0,278.44,115.61Z"></path><path class="cls-3" d="M375.52,115.87c-.12,0-.22-.1-.31-.3a1.44,1.44,0,0,1-.15-.36,1.27,1.27,0,0,1,.06-.28l-.12.17-1.25.94-.16.28h-.34l-.26.12-.25.31-.38.15-.26.18-.31.13-1.11.64h-.35l-.55.24h-.85l-.38-.12-.07-.34v-.24l.1-.22,0-.36.22-.19.09-.36.25-.37v-.46l.52-.42.06-.31.19-.18.35-.4.1-.27.22-.31.35-.79.41-.37.25-.52.38-.18.82-1.52.32-.16.1-.36.22-.13.12-.33h.35l.42-.24.57.06.66-.25.55,0,1.43-.36.66,0,.58-.18.57,0,.38-.12h.76l.92-.37.29.13.31-.07.8,0,1.33-.3.35,0,1.37-.15.51.06,1.43.06.44-.21.06-.22-.09-.55-.25-.39-.35-.43-.64-.19-.25,0-.42-.06-.47.12-.29,0-.6.24-.64-.12-1.43.28h-.38l-.25-.1-.35.22-.86.15-.32.12-.35-.09H380l-1.11.21-1.31.19-1.08.3-1.36.16-.29.15-.22-.1,0-.18.22-.24.54-.43.13-.55-.22-.7-.35-.4-.32-.12-.25.24-.32.4-.57,1-.48.39-.51.61-.76.4-1.11.22-.45.21-.95.27h-.82l-.29.37-.23-.18-.35.24-.47.74,0,.18.06.27.35.25.38,0,.32.06.44-.25.8-.12.38-.12.7-.06.34,0-.06.21-.25.15-.69,1.34-.35.34-.35.49-.25.27-.13.49.22.21-.13.22-.38-.09-.12.33-.48.89-.32.36,0,.1a1.6,1.6,0,0,0,.43-.4.85.85,0,0,1,.63-.4c.08,0,.16.06.27.17a.43.43,0,0,1,.15.25,2,2,0,0,1-.38,1.1l-.08.45-.13.21a.77.77,0,0,0-.37.28,1.46,1.46,0,0,1-.45.35l-.19.23a1.19,1.19,0,0,0-.2.08l0,.12v.33l.13.28.06.4.77,1,.44.25.44.33.48-.15.57,0,.26-.09.67-.09.47-.37.32-.09.54-.28.38-.09.41-.43.38-.09.16-.3.36-.25.31-.36.64-.55.19-.31.32-.3.31-.23.11-.19s-.08,0-.11,0A.59.59,0,0,1,375.52,115.87Z"></path><path class="cls-3" d="M376.52,115.28s0,0,0,0l.52-.24v-.27l-.11.09A3.33,3.33,0,0,1,376.52,115.28Z"></path><path class="cls-3" d="M328.07,105.69c0-.13.06-.19.17-.19h.27l.22-.23.23-.1a4.2,4.2,0,0,1,.78-.83l.17-.39a.27.27,0,0,0,.12-.2.22.22,0,0,1,0-.14l.16-.13a1.75,1.75,0,0,1,.47-.5.56.56,0,0,0,.46-.29,2.49,2.49,0,0,1,.7-.64c.34-.23.58-.4.7-.5l.27-.22c0-.06.09-.2.28-.43a.6.6,0,0,0-.16-.34.71.71,0,0,1-.16-.38c0-.2.2-.31.61-.33a5.5,5.5,0,0,0,.8-.08l.26,0,.4.07.57,0,1.41.07.26-.1.21,0,.78-.06h.15a.47.47,0,0,1,.23,0l.82.29c.1,0,.2.12.28.29a.65.65,0,0,0,.61.25,3.62,3.62,0,0,0,1.13-.1,1.11,1.11,0,0,1,.34-.14c.11,0,.17,0,.17-.07a.48.48,0,0,0,.28-.26l0-.32.12-.28-.08-.5a.8.8,0,0,0-.32-.57,1.34,1.34,0,0,0-.94-.28l-.42.06-.47,0-1.29.13-.12-.1a1.52,1.52,0,0,1-.53.18l-.36-.08a.5.5,0,0,0-.23.11l-.15,0-1.37.16h0l-.19-.06h-.07l-.21.06-.54-.1-.51.17-.49-.07a6.55,6.55,0,0,0-1.53.1l-.36.09-.19,0h-.19a1.2,1.2,0,0,0-.7.17l-.23-.07-.78.16h-.21a.68.68,0,0,0-.41.18l-.12,0-.44,0a2.86,2.86,0,0,0-.77.13l-.35-.07h-.11a.89.89,0,0,0-.52.29l-.11-.09a2.75,2.75,0,0,1-.74.19.89.89,0,0,0-.52.15.82.82,0,0,1-.45.16h-.08a.75.75,0,0,0-.2-.07l-1.74.46a4.13,4.13,0,0,1-.5.13.89.89,0,0,0-.39.19,1.2,1.2,0,0,1-.55.2,1.2,1.2,0,0,0-.58.2.73.73,0,0,1-.34.16,1,1,0,0,0-.37.16,1,1,0,0,1-.56.15l-.37,0-.33.23-.74.27a4.38,4.38,0,0,1-1.08.36,1.72,1.72,0,0,0-1.22,1l-.38.69q0,1,.93,1a.21.21,0,0,0,.16-.12,2.2,2.2,0,0,1,.36-.31,2.18,2.18,0,0,0,.44-.47,1.5,1.5,0,0,1,.26-.36.7.7,0,0,0,.33-.12,1.19,1.19,0,0,1,.35-.15,1.1,1.1,0,0,0,.39-.25c.14-.14.25-.21.34-.21l.23,0h.08a.73.73,0,0,0,.31-.13,1.3,1.3,0,0,1,.35-.18,1.75,1.75,0,0,0,.31-.15,1,1,0,0,1,.31-.16,2,2,0,0,0,.39-.17l.34,0a4.91,4.91,0,0,0,.52-.2,2.27,2.27,0,0,1,.78-.19h.23a1,1,0,0,0,.6-.26.65.65,0,0,1,.46-.21h0l.34.07a2.82,2.82,0,0,0,.67-.22,4.78,4.78,0,0,1,1.17-.3,2.25,2.25,0,0,0,.61-.11,1.13,1.13,0,0,1,.55-.19l.5.06.17,0,.23-.2h.42l.25-.14a1.84,1.84,0,0,0,.52-.1l.33.07h.11l.35-.07h.15a2.7,2.7,0,0,1,.51-.1c.11,0,.15,0,.15.07s-.1.18-.3.26a.65.65,0,0,0-.41.34.83.83,0,0,1-.31.36,2.72,2.72,0,0,0-.54.52l-.3.28a2.27,2.27,0,0,0-1.12,1.14,2.16,2.16,0,0,0-.48.41,1.11,1.11,0,0,1-.31.29.54.54,0,0,0-.2.3l-.27.26a2.9,2.9,0,0,1-.66.56l-.12.6a.35.35,0,0,1-.38.34c-.24,0-.5.2-.79.57s-.58.71-.89,1a3.37,3.37,0,0,0-.61.85c-.09.22-.15.36-.16.4a.48.48,0,0,0-.25.19,1,1,0,0,0-.49.5l-.32.46c-.23.2-.35.35-.35.43l.08.57c-.17.15-.24.23-.23.26a1.21,1.21,0,0,0-.8.76c-.2.44-.33.71-.4.82a3,3,0,0,0-.13.3.87.87,0,0,0-.48.76.73.73,0,0,0,.06.32.22.22,0,0,0-.13.15,9,9,0,0,1-.62.84,2.11,2.11,0,0,0-.47,1.37.82.82,0,0,1-.07.39,1,1,0,0,0-.1.27,4.44,4.44,0,0,1-.13.55,4.51,4.51,0,0,0-.11.5,2.39,2.39,0,0,0,.64,1.77,2,2,0,0,0,1.45.65l.4,0h.15q.63-.17.63-.66a.64.64,0,0,1,.09-.36.58.58,0,0,0,.09-.37.56.56,0,0,0-.12-.34.63.63,0,0,1-.12-.25.33.33,0,0,1,.06-.19l.38-.91.11-.69a6.25,6.25,0,0,0,.36-1.39,1.15,1.15,0,0,0,.19-.26l.08-.13a2.94,2.94,0,0,0,.65-1.07c.21-.5.39-.88.52-1.13a2.67,2.67,0,0,0,.24-1c.13,0,.4-.29.78-.92a2.12,2.12,0,0,1,.22-.94c.89-.87,1.33-1.4,1.33-1.58l0-.16a3.38,3.38,0,0,0,.38-.7,3.5,3.5,0,0,1,.4-.37l.23-.32a1.47,1.47,0,0,1,.45-.56Z"></path><path class="cls-3" d="M342.17,115.83l.26-.83a.77.77,0,0,0,.2-.33l.12-.19a.44.44,0,0,0-.31-.1.82.82,0,0,0-.67.43,2.8,2.8,0,0,1-.33.43,2,2,0,0,0-.63.34,7.93,7.93,0,0,1-1,.77,6.46,6.46,0,0,0-.58.38,2,2,0,0,1-.55.3,2.15,2.15,0,0,0-.6.31,2.08,2.08,0,0,1-.63.32,2.61,2.61,0,0,0-.57.22,2.23,2.23,0,0,1-.55.2,1.26,1.26,0,0,0-.47.17.55.55,0,0,1-.19.1l-.27-.07a1.33,1.33,0,0,1-.28.1c-.5,0-.74-.08-.74-.24a.44.44,0,0,1,.14-.26,1.65,1.65,0,0,0,.22-.36.8.8,0,0,1,.15-.27l.15-.19a2.38,2.38,0,0,1,.24-.37.24.24,0,0,0,.08-.13v-.29c0-.09.13-.17.38-.24a3.19,3.19,0,0,0,.4-.58l.19-.12a7.1,7.1,0,0,1,1.28-1.21,1.46,1.46,0,0,0,.32-.87,3.78,3.78,0,0,0-.27-.85,6.54,6.54,0,0,0-.43-.92l-.12-.24a1.1,1.1,0,0,0-1.22-1.18,2.5,2.5,0,0,0-1.67.6.86.86,0,0,1-.28.22.43.43,0,0,0-.17.13,5,5,0,0,1-1.33.89l-.12.21-.28.06-.23.23a2,2,0,0,0-.85.49,2.14,2.14,0,0,1-.68.47.59.59,0,0,0-.37.27c-.05.1-.18.16-.38.19a2.41,2.41,0,0,0-1,.5,1.46,1.46,0,0,0-.66,1.26c0,.25.09.38.29.38a.91.91,0,0,0,.67-.2,1.31,1.31,0,0,1,.33-.31l.38-.08a1.59,1.59,0,0,1,.4-.13,4.8,4.8,0,0,1,.46-.45.56.56,0,0,0,.44-.18.75.75,0,0,1,.19-.19c.39-.09.62-.14.7-.17s.16-.13.27-.34l.32-.12a1.33,1.33,0,0,1,.54-.38,1.33,1.33,0,0,0,.41-.21,2.92,2.92,0,0,1,.5-.24,1,1,0,0,0,.53-.33c.07-.11.14-.17.21-.17.33,0,.49.16.49.47a.84.84,0,0,1-.15.29c-.08,0-.14.11-.19.25a1.06,1.06,0,0,1-.11.25l-.25.29a1.45,1.45,0,0,1-.33.52,7.68,7.68,0,0,0-.76,1.14,1.39,1.39,0,0,1-.29.61.81.81,0,0,0-.22.35,4.05,4.05,0,0,1-.19.49,2.9,2.9,0,0,0-.15,1.1,1.1,1.1,0,0,0,.21.46,4.52,4.52,0,0,1,.34.65,1.58,1.58,0,0,0,.81.65c.45.22.68.32.69.32l.55,0,.31-.08a1.26,1.26,0,0,1,.28.11l.46-.21.55-.09a4.32,4.32,0,0,1,1.22-.6c.2,0,.3-.08.3-.23v0L338,119c0-.1.08-.15.23-.15h.07l.12,0,.28-.13.08-.16c0-.15.07-.23.15-.23a.43.43,0,0,1,.15.06.41.41,0,0,0,.15.07c.05,0,.15-.07.3-.2a4.63,4.63,0,0,1,.81-.57,9.83,9.83,0,0,0,.91-.65l.2-.15a1,1,0,0,1,.33-.7C342,116.05,342.14,115.92,342.17,115.83Z"></path><path class="cls-3" d="M352.49,117h0l0-.43a2.35,2.35,0,0,1,.33-.51,2.17,2.17,0,0,1,.45-.5l.19-.21c0-.13.08-.27.27-.41a2.73,2.73,0,0,0,.45-.45,2.43,2.43,0,0,1,.65-.5l.21-.17.05-.25c0-.16-.08-.24-.25-.24a.35.35,0,0,0-.21.07.85.85,0,0,1-.27.13c-.12,0-.2.17-.22.4l-.85.47c-.21,0-.31.16-.31.32v.11a.73.73,0,0,1,0,.16s0,.07-.08.07-.07,0-.07-.15,0-.14-.12-.14a.28.28,0,0,0-.18.08l-.37.24a2.06,2.06,0,0,0-.45.35.73.73,0,0,1-.44.21.5.5,0,0,0-.37.2.84.84,0,0,1-.52.23.88.88,0,0,0-.63.49l-.08,0h-.27a.44.44,0,0,0-.28.14l-.16.11a.42.42,0,0,0-.22.26l-.19.09a1.41,1.41,0,0,0-.58.2,1.11,1.11,0,0,0-.49.43l-.19-.06a1.51,1.51,0,0,1-.34.06,1.58,1.58,0,0,0-.68.16,1.41,1.41,0,0,1-.67.16l-.91.12c-.68,0-1-.16-1-.47a2.72,2.72,0,0,1,.07-.33l.12-.49a1.21,1.21,0,0,1,.59-.17l.38-.34.19,0,.24-.19c.2,0,.31-.1.31-.23a.5.5,0,0,1,.15-.34l.26.06c.17,0,.48-.19.95-.59a.38.38,0,0,0,.4-.21.89.89,0,0,1,.42-.39l.34,0c.24-.42.46-.62.66-.62a.19.19,0,0,1,.12,0,.12.12,0,0,0,.11,0,.52.52,0,0,0,.3-.15,1.25,1.25,0,0,1,.35-.22,2.45,2.45,0,0,0,.49-.35,2.37,2.37,0,0,0,1-.58,1.4,1.4,0,0,0,.61-1,.87.87,0,0,0-.35-.59,1.13,1.13,0,0,0-.77-.33,1.61,1.61,0,0,1-.58-.09,1,1,0,0,0-.32-.1l-.8,0a2.9,2.9,0,0,0-.75.11,2.26,2.26,0,0,1-.63.12l-.31-.07a.11.11,0,0,0-.07,0,1.48,1.48,0,0,1-.44.3,5.41,5.41,0,0,0-1.56.62l-.23.28c-.39.18-.6.4-.62.64s-.19.39-.5.41l-.4.27c-.17.3-.29.49-.34.57l-.31.48a.27.27,0,0,1,.09.23.43.43,0,0,1-.19.33v.1l0,.26a.2.2,0,0,1,0,.14s-.05.11-.14.2a.66.66,0,0,0-.2.33.42.42,0,0,1-.36.26c-.08.24-.18.38-.3.41a1.07,1.07,0,0,0-.3.17,2.09,2.09,0,0,0,0,.28.28.28,0,0,0,.25.31.69.69,0,0,1,.36.19,4.43,4.43,0,0,0,.51,1.14l.23,0c.15.48.41.73.78.73a2.38,2.38,0,0,1,.36.16.88.88,0,0,0,.42.11,3.08,3.08,0,0,0,.72-.09l.34-.1s.08,0,.16.13a.32.32,0,0,0,.23.13l.53-.07a.71.71,0,0,0,.25-.08l1.59-.48a2.85,2.85,0,0,1,.54-.26.34.34,0,0,0,.17-.07,1.51,1.51,0,0,1,.63-.19.57.57,0,0,0,.55-.36c.06-.21.18-.32.34-.32h.34l.12,0a2,2,0,0,1,.74-.42.7.7,0,0,0,.2-.34.23.23,0,0,1,.24-.19c.05,0,.07,0,.07,0l.11.09C352.2,117.09,352.29,117,352.49,117Zm-7.19-3a1.84,1.84,0,0,1,.73-.81,3.76,3.76,0,0,0,.72-.4c.25-.16.4-.26.45-.28l.22-.1.33-.06a1.41,1.41,0,0,1,.42-.19h.43a1.13,1.13,0,0,1,.46-.16c.24,0,.36.06.36.19s-.11.13-.33.19a1.4,1.4,0,0,0-.66.53l-.19.07a2.11,2.11,0,0,1-.46.33,1.44,1.44,0,0,0-.36.23l-.15.13c-.39.22-.69.4-.9.55a3.18,3.18,0,0,1-.68.37l-.64.24q-.12,0-.12-.09A3.37,3.37,0,0,1,345.3,114.05Z"></path><path class="cls-3" d="M342,116.33a.42.42,0,0,0,.36-.26.66.66,0,0,1,.2-.33c.09-.09.14-.15.14-.2a.2.2,0,0,0,0-.14l0-.26V115a.43.43,0,0,0,.19-.33.27.27,0,0,0-.09-.23l-.12.19a.77.77,0,0,1-.2.33l-.26.83c0,.09-.16.22-.41.38a1,1,0,0,0-.33.7,1.07,1.07,0,0,1,.3-.17C341.85,116.71,342,116.57,342,116.33Z"></path><path class="cls-3" d="M367.34,116.29l0-.79.23-.37,0-.21a.94.94,0,0,1-.22.12c-.23.09-.37.21-.4.35s-.16.22-.35.22l-.3.22a2,2,0,0,0-.4.41l-.19.06a1.33,1.33,0,0,0-.39.33,1.62,1.62,0,0,1-.88.43c-.09-.06-.13-.2-.13-.4l.07-.45,0-.41a.49.49,0,0,1,.16-.3.45.45,0,0,0,.16-.26v0l.27-.67a1,1,0,0,1,.11-.29,2.63,2.63,0,0,0,1.1-2c0-.59-.27-.89-.81-.89a1.63,1.63,0,0,0-1.5.59c-.23.39-.41.59-.54.59s-.16-.1-.19-.29c-.08-.92-.51-1.39-1.3-1.39a.58.58,0,0,0-.19,0l-.3.14h0a1.36,1.36,0,0,0-.36-.14h-.12a9.39,9.39,0,0,1-1,.41h-.16a1.65,1.65,0,0,0-.67.21,5.91,5.91,0,0,1-.88.34,2.57,2.57,0,0,0-.8.43,2.17,2.17,0,0,1-.46.33,5.33,5.33,0,0,0-1.45.9l-.36.31,0,.17.09.44c0,.06-.06.15-.18.26a1.22,1.22,0,0,0-.28.52c-.06.23-.14.36-.24.38h-.12a1.58,1.58,0,0,1-.54.36.56.56,0,0,0-.31.2l-.65.63a2.73,2.73,0,0,0-.24.22h0l-.07.06a.32.32,0,0,1-.2.13l-.05,0s0,0,0,0l0,.54v.09a.72.72,0,0,0,0,.26,1,1,0,0,0,.16.63l.2.66c0,.22.28.42.74.58a3.64,3.64,0,0,0,1.2.24,5.52,5.52,0,0,0,2.15-.85l.11-.1c.29-.13.51-.24.66-.32l1.45-1a1.45,1.45,0,0,0,.44-.41,1.62,1.62,0,0,1,.21-.29l.36,0,.19-.16a.63.63,0,0,1,.34-.19c.17,0,.26-.11.29-.18l.07-.1a1.65,1.65,0,0,0,.38-.29.78.78,0,0,1,.25-.41.72.72,0,0,0,.47-.16.68.68,0,0,1,.27-.16c.05,0,.08,0,.08.1l-.12.79a.62.62,0,0,0,0,.16.41.41,0,0,1,0,.17.11.11,0,0,1,0,.1.15.15,0,0,0,0,.1.24.24,0,0,0,.1.16.29.29,0,0,1,.09.16l-.07.31a.7.7,0,0,0,.17.51.66.66,0,0,1,.19.3.4.4,0,0,0,.13.21,2.23,2.23,0,0,1,.63.15,1.78,1.78,0,0,0,.67.12.81.81,0,0,0,.27-.09,3.09,3.09,0,0,1,.61-.18,1.7,1.7,0,0,0,.6-.26l0-.16.45-.15a1.05,1.05,0,0,1,.56-.32.51.51,0,0,0,.4-.29.83.83,0,0,1,.36-.29l-.1-.59ZM362,114.11a9.34,9.34,0,0,1-1,.8.92.92,0,0,1-.47.39.79.79,0,0,0-.47.53,1.33,1.33,0,0,0-.38.23,1.36,1.36,0,0,1-.51.27l-.4.26-1,.5a.84.84,0,0,1-.38.28,1.63,1.63,0,0,0-.35.2.32.32,0,0,1-.19.1.32.32,0,0,0-.17.09l-.36.15a1.12,1.12,0,0,0-.3.13,2.91,2.91,0,0,1-.56.24,2.85,2.85,0,0,1-.64.17c-.24,0-.36-.27-.36-.79a.58.58,0,0,1,.21-.35.79.79,0,0,0,.26-.48.39.39,0,0,1,.27-.34,1.23,1.23,0,0,0,.38-.19l.13-.27a2.37,2.37,0,0,1,.5-.39.78.78,0,0,1,.59-.56,2.79,2.79,0,0,0,.89-.7,1.61,1.61,0,0,0,.72-.31,3.19,3.19,0,0,1,1.11-.44,4.18,4.18,0,0,0,.84-.24,1.22,1.22,0,0,1,.53-.1l.37.06.25,0,.27.11.36,0,.34,0,.16-.08h0c.05,0,.08,0,.08.05S362.4,113.72,362,114.11Z"></path><path class="cls-3" d="M367.64,116.93a1.46,1.46,0,0,0,.45-.35.77.77,0,0,1,.37-.28l.13-.21.08-.45a2,2,0,0,0,.38-1.1.43.43,0,0,0-.15-.25c-.11-.11-.19-.17-.27-.17a.85.85,0,0,0-.63.4,1.6,1.6,0,0,1-.43.4l0,.21-.23.37,0,.79-.19.36.1.59a1.19,1.19,0,0,1,.2-.08Z"></path><path class="cls-3" d="M354.16,114.51a2.73,2.73,0,0,1-.45.45c-.19.14-.29.28-.27.41l-.19.21a2.17,2.17,0,0,0-.45.5,2.35,2.35,0,0,0-.33.51l0,.43a2.73,2.73,0,0,1,.24-.22l.65-.63a.56.56,0,0,1,.31-.2,1.58,1.58,0,0,0,.54-.36h.12c.1,0,.18-.15.24-.38a1.22,1.22,0,0,1,.28-.52c.12-.11.18-.2.18-.26L355,114l0-.17-.21.17A2.43,2.43,0,0,0,354.16,114.51Z"></path><path class="cls-3" d="M352.42,117.09l.07-.06c-.2,0-.29.06-.32.15l.05,0A.32.32,0,0,0,352.42,117.09Z"></path><path class="cls-3" d="M399.46,115.83l.1-.28s0-.06,0-.1a3.31,3.31,0,0,0,.07-.34c0-.15-.1-.23-.3-.23a2.22,2.22,0,0,0-1,.46,2.76,2.76,0,0,0-.79.7,1.61,1.61,0,0,1-.16.26l-.46,0c-.24.11-.37.24-.38.41s-.07.25-.17.25h-.08l-.22-.06h0l-.12.06a1.21,1.21,0,0,1-.32.1,1.13,1.13,0,0,0-.32.12c-.17-.18-.25-.3-.25-.37l.1-.89,0-.29s.07-.14.23-.28c0,0-.06-.12-.17-.24a.57.57,0,0,1-.16-.27l.1-.34v-.32l-.14-.5.1-.37c0-.15-.16-.37-.46-.64a1.77,1.77,0,0,0-1.19-.41.82.82,0,0,0-.38.16,1.39,1.39,0,0,1-.31.16h0l-.17-.06-.42.27a.81.81,0,0,0-.29.19c-.12.11-.21.17-.26.17a4.57,4.57,0,0,0-1.63,1.12.42.42,0,0,1-.27.23.71.71,0,0,0-.32.22c-.08.1-.14.15-.2.15a.53.53,0,0,0-.22.13l-.27.23a1.45,1.45,0,0,0-.55.3c-.17,0-.25-.1-.25-.3l.21-.79-.07-.41.07-.38v-.14a4.64,4.64,0,0,1-.15-.72l.08-.55c0-.22-.2-.48-.59-.77a1.82,1.82,0,0,0-.93-.44.65.65,0,0,0-.47.2,1.06,1.06,0,0,1-.24.21l-.3-.1a2.24,2.24,0,0,0-.75.32l-.66.4a1.78,1.78,0,0,1-.52.42l-.53.21a1.78,1.78,0,0,0-.59.32,2.43,2.43,0,0,1-.48.37,4.12,4.12,0,0,0-.66.46l-.08-.13,0-.29c0-1.15-.27-1.67-.82-1.56l-1.27.27h-.27a3.34,3.34,0,0,0-1.14.55l-.07.11a.92.92,0,0,0-.3.18,2.26,2.26,0,0,1-.39.22c-1.08.51-1.66,1.1-1.79,1.76l.19-.26h.22l.39-.27.34-.46.7-.4.06,1.26a1.45,1.45,0,0,1,.45-.32.5.5,0,0,1,.34-.23,1.28,1.28,0,0,0,.46-.21.9.9,0,0,1,.57-.16c.1,0,.16.09.16.26a.33.33,0,0,1-.1.24.44.44,0,0,0-.09.29l-.25.34a8,8,0,0,0-.74.79,7.49,7.49,0,0,1-.86.89,4.36,4.36,0,0,1-.47.69.83.83,0,0,0-.23.5c0,1.35.38,2,1.14,2,.39,0,.59-.09.59-.26l-.05-.27c0-.06.07-.12.21-.19s.24-.13.26-.18a4.73,4.73,0,0,1,.46-.55c.28-.32.42-.47.42-.48a1.3,1.3,0,0,1,.5-.25,2.28,2.28,0,0,0,.35-.47.57.57,0,0,1,.38-.27c.15,0,.23-.1.23-.19,0-.55.16-.82.46-.82l.36.06.08-.06c.33-.47.52-.7.59-.7h.07c.08,0,.11,0,.11.06s.08,0,.08,0a1.07,1.07,0,0,1,.55-.82c.25-.2.46-.36.61-.5a4.66,4.66,0,0,1,.88-.58,2.84,2.84,0,0,1,.79-.37s.07,0,.15.12a.46.46,0,0,1,.1.17l-.08.5,0,.56-.08.26.12.47a1,1,0,0,0-.15.26v.08a.22.22,0,0,1,0,.1V116a2.5,2.5,0,0,0-.15.37v.06a1.16,1.16,0,0,1,.15.26l-.07.6a2.41,2.41,0,0,0,.45,1.13q.46.72.78.72c.22,0,.6-.27,1.15-.82l.11-.18a2.66,2.66,0,0,0,.27-.35l.23-.1a1,1,0,0,1,.36-.34L389,117a.62.62,0,0,1,.27,0,2.19,2.19,0,0,1,.7-.67c.19-.08.28-.18.28-.27l0-.13v-.07c0-.1.07-.2.22-.28l.16,0c.05,0,.11-.06.2-.16a1.33,1.33,0,0,1,.46-.31,1.07,1.07,0,0,1,.43-.46,1,1,0,0,0,.34-.2.32.32,0,0,1,.2-.13c.18,0,.27.06.27.19l-.11.82,0,.18-.07.29,0,.57a1,1,0,0,1,0,.21.52.52,0,0,0,0,.21,1.39,1.39,0,0,0,.44.69s0,.08-.11.13-.1.09-.1.11a1,1,0,0,0,.31.86,3.14,3.14,0,0,1,.48.4,1.91,1.91,0,0,0,.67.35,2.6,2.6,0,0,0,.68.16,1.77,1.77,0,0,0,1.08-.58,9.46,9.46,0,0,1,.75-.66l.4-.21a.55.55,0,0,1,.26-.09.49.49,0,0,0,.33-.28c.1-.17.16-.25.18-.25l.38,0,.08-.07a2.58,2.58,0,0,1,.65-.67.84.84,0,0,1,.3-.5C399.3,116.05,399.44,115.92,399.46,115.83Z"></path><path class="cls-3" d="M376,115.72c.05,0,.09-.06.14-.06a.28.28,0,0,0,.21-.15.69.69,0,0,1,.17-.2l-.38.17Z"></path><path class="cls-3" d="M376.26,113.94l-.34.46-.39.27h-.22l-.19.26a1.27,1.27,0,0,0-.06.28,1.44,1.44,0,0,0,.15.36c.09.2.19.3.31.3a.59.59,0,0,0,.36-.1s.07,0,.11,0l.14-.24.38-.17s0,0,0,0a3.33,3.33,0,0,0,.39-.39l.11-.09-.06-1.26Z"></path><path class="cls-3" d="M411.64,114.79l-.31-.05a7,7,0,0,1-1,.56,1,1,0,0,0-.42.37c0,.07,0,.11-.13.13a2.15,2.15,0,0,0-.5.26h-.11c-.28,0-.41-.17-.45-.46a.69.69,0,0,1-.15.07.52.52,0,0,0-.37.2.8.8,0,0,1-.51.23.91.91,0,0,0-.64.49l-.07,0h-.27a.48.48,0,0,0-.29.14l-.15.11a.42.42,0,0,0-.22.26l-.2.09a1.38,1.38,0,0,0-.57.2,1.11,1.11,0,0,0-.49.43l-.19-.06a1.51,1.51,0,0,1-.34.06,1.58,1.58,0,0,0-.68.16,1.41,1.41,0,0,1-.67.16l-.92.12c-.67,0-1-.16-1-.47a2.72,2.72,0,0,1,.07-.33c.05-.2.09-.36.11-.49a1.27,1.27,0,0,1,.59-.17l.38-.34.19,0,.25-.19c.2,0,.3-.1.3-.23a.5.5,0,0,1,.15-.34l.27.06a2.17,2.17,0,0,0,.95-.59.39.39,0,0,0,.4-.21.89.89,0,0,1,.42-.39l.34,0c.24-.42.46-.62.66-.62a.21.21,0,0,1,.12,0,.12.12,0,0,0,.11,0,.55.55,0,0,0,.3-.15,1,1,0,0,1,.35-.22,2.77,2.77,0,0,0,.49-.35,2.44,2.44,0,0,0,1-.58,1.43,1.43,0,0,0,.61-1,.86.86,0,0,0-.36-.59,1.09,1.09,0,0,0-.77-.33,1.68,1.68,0,0,1-.58-.09,1,1,0,0,0-.31-.1l-.8,0a2.9,2.9,0,0,0-.75.11,2.26,2.26,0,0,1-.63.12l-.31-.07-.08,0a1.4,1.4,0,0,1-.43.3,5.41,5.41,0,0,0-1.56.62l-.23.28c-.39.18-.6.4-.63.64s-.19.39-.49.41l-.4.27-.34.57-.44.67a.79.79,0,0,1-.19.33l-.17.55a.84.84,0,0,1,.11.28c0,.21-.21.43-.62.67a3.06,3.06,0,0,0-.29.21,1.68,1.68,0,0,0-.07.48.28.28,0,0,0,.24.31.62.62,0,0,1,.36.19,4.63,4.63,0,0,0,.52,1.14l.23,0c.15.48.41.73.78.73a2.38,2.38,0,0,1,.36.16.88.88,0,0,0,.42.11,3.08,3.08,0,0,0,.72-.09l.34-.1s.08,0,.16.13a.32.32,0,0,0,.22.13l.54-.07a.63.63,0,0,0,.24-.08l1.6-.48A2.85,2.85,0,0,1,406,119a.39.39,0,0,0,.17-.07,1.47,1.47,0,0,1,.63-.19q.45,0,.54-.36c.07-.21.18-.32.35-.32H408l.12,0a2,2,0,0,1,.74-.42.7.7,0,0,0,.2-.34.23.23,0,0,1,.24-.19s.07,0,.07,0l.15.13a.36.36,0,0,0,.21-.13l.32-.29.65-.63a.59.59,0,0,1,.32-.2,1.58,1.58,0,0,0,.54-.36h.11c.11,0,.19-.15.25-.38a1.22,1.22,0,0,1,.28-.52c.12-.11.18-.2.18-.26l0-.18-.12,0C412.07,114.34,411.88,114.49,411.64,114.79Zm-9-.74a1.84,1.84,0,0,1,.73-.81,3.76,3.76,0,0,0,.72-.4,4.51,4.51,0,0,1,.45-.28l.22-.1.33-.06a1.3,1.3,0,0,1,.41-.19h.44a1.08,1.08,0,0,1,.46-.16c.24,0,.36.06.36.19s-.11.13-.33.19a1.32,1.32,0,0,0-.66.53l-.19.07a2,2,0,0,1-.47.33,1.51,1.51,0,0,0-.35.23l-.15.13c-.39.22-.69.4-.9.55a3.44,3.44,0,0,1-.68.37l-.64.24q-.12,0-.12-.09A2.91,2.91,0,0,1,402.6,114.05Z"></path><path class="cls-3" d="M399.67,115.83a.84.84,0,0,0-.11-.28l-.1.28c0,.09-.16.22-.4.38a.84.84,0,0,0-.3.5,3.06,3.06,0,0,1,.29-.21C399.46,116.26,399.67,116,399.67,115.83Z"></path><path class="cls-3" d="M428.68,116.29l0-.79.23-.37.06-.31.17-.2a.64.64,0,0,0-.23.17l-.16.16-.23.09-.47.36c-.48.25-.84.42-1.06.53a.76.76,0,0,0-.43.47.56.56,0,0,0-.31.47.11.11,0,0,1-.07,0l-.19-.07h-.08a.39.39,0,0,0-.36.26,2.41,2.41,0,0,1-.53.39.8.8,0,0,1-.44.34l-.61.14c-.07,0-.15-.11-.27-.35l-.38-.68v-.14a.16.16,0,0,1,.1-.17,1.24,1.24,0,0,0,.38-1l0-.31.15-.89v-.06l-.08-.44,0-.29a1.87,1.87,0,0,0-.56-1.06,1.89,1.89,0,0,0-1.53-.66,2,2,0,0,0-.5.12l-.56.17a.77.77,0,0,0-.23.08l-.27.13-.28.06a1.72,1.72,0,0,1-.65.29.79.79,0,0,0-.45.21,2.2,2.2,0,0,1-.69.36l-.15.24-.19.13a2.18,2.18,0,0,1-.59.24,1,1,0,0,0-.66.53.73.73,0,0,1-.28.2,2,2,0,0,0-.43.25.53.53,0,0,1-.3.13c-.13,0-.19,0-.19-.13a.89.89,0,0,1,.23-.43,2.3,2.3,0,0,0,.11-.63l0-.44a1.9,1.9,0,0,0-.56-1,2,2,0,0,0-1.59-.65.69.69,0,0,0-.63.45,1.39,1.39,0,0,1-.87.66l-.14.16a1.77,1.77,0,0,0-.87.29,9.25,9.25,0,0,1-1.07.58,1.41,1.41,0,0,0-.81.73l-.4.92s0,.07,0,.12a.76.76,0,0,0,.3-.14,2.06,2.06,0,0,1,.45-.35l.37-.24a.28.28,0,0,1,.18-.08c.07,0,.11,0,.11.14s0,.15.08.15.08,0,.08-.07a.73.73,0,0,0,0-.16v-.11c0-.16.1-.27.3-.32l.86-.47c0-.23.09-.36.22-.4a.85.85,0,0,0,.27-.13.35.35,0,0,1,.21-.07.22.22,0,0,1,.25.24l-.1.42.06.26a2.71,2.71,0,0,0,.56-.35l0,.06a1.61,1.61,0,0,1-.26.41,1.54,1.54,0,0,0-.28.5.3.3,0,0,1-.11.23.26.26,0,0,0-.09.18c0,.23,0,.34-.08.34h-.25a1.27,1.27,0,0,0-.3.3,1.19,1.19,0,0,1-.45.36.3.3,0,0,0-.22.29v.13l0,.07c-.55.1-.82.75-.82,1.95a1,1,0,0,0,.25.58.9.9,0,0,0,.47.4,1.82,1.82,0,0,1,.35.11.53.53,0,0,0,.22.07c.11,0,.25-.15.42-.44a1.12,1.12,0,0,0,.4-.23.83.83,0,0,1,.27-.19h.19l.08-.06c.06-.15.1-.23.13-.24.33,0,.53-.12.61-.26.08-.35.2-.53.36-.53a1.39,1.39,0,0,1,.34.19,2.68,2.68,0,0,1,.4-.35c.23-.13.34-.22.34-.26,0-.25.08-.39.26-.41a2.41,2.41,0,0,0,.82-.48c.38-.29.81-.6,1.28-.93a3.9,3.9,0,0,0,.71-.54,2,2,0,0,0,.3-.19l.16-.1a1,1,0,0,0,.43-.18.8.8,0,0,0,.44-.13,4.39,4.39,0,0,1,.72-.35l.13,0a.67.67,0,0,1,.38-.18.3.3,0,0,1,.34.34l0,.39.08.4-.12.79a.49.49,0,0,0,.06.19.46.46,0,0,1,.06.18s-.05.11-.16.19a.9.9,0,0,1,.12.38.75.75,0,0,0,.11.43.6.6,0,0,1,.1.23v0a1.64,1.64,0,0,0-.17.32.68.68,0,0,0,.08.19.5.5,0,0,1,.09.22,2.84,2.84,0,0,0,.45.68,1.6,1.6,0,0,0,.67.6,2.86,2.86,0,0,1,.53.2.9.9,0,0,0,.41.13l.36-.07.53.07a.4.4,0,0,0,.25-.1l.26-.16q.66-.28.78-.6l.16-.06h.3a.36.36,0,0,0,.17-.34l.75-.53a1.69,1.69,0,0,1,.34-.23l.51-.22,1-.87,0,0,0-.12Z"></path><path class="cls-3" d="M412.37,113.59a.22.22,0,0,0-.25-.24.35.35,0,0,0-.21.07.85.85,0,0,1-.27.13c-.13,0-.2.17-.22.4l-.86.47c-.2,0-.3.16-.3.32v.11a.73.73,0,0,1,0,.16s0,.07-.08.07-.08,0-.08-.15,0-.14-.11-.14a.28.28,0,0,0-.18.08l-.37.24a2.06,2.06,0,0,0-.45.35.76.76,0,0,1-.3.14c0,.29.17.46.45.46h.11a2.15,2.15,0,0,1,.5-.26c.09,0,.13-.06.13-.13a1,1,0,0,1,.42-.37,7,7,0,0,0,1-.56l.31.05c.24-.3.43-.45.57-.47l.12,0-.06-.26Z"></path><path class="cls-3" d="M449.52,106.49l-.26-.39-.35-.43-.63-.19-.26,0-.41-.06-.48.12-.28,0-.61.24-.63-.12-1.43.28h-.38l-.26-.1-.34.22-.86.15-.32.12-.35-.09h-.28l-1.12.21-1.3.19-1.08.3-1.37.16-.28.15-.23-.1,0-.18.22-.24.54-.43.12-.55-.22-.7-.35-.4-.31-.12-.26.24-.32.4-.57,1-.47.39-.51.61-.77.4-1.11.22-.44.21-1,.27h-.82l-.29.37-.22-.18-.35.24-.47.74,0,.18.07.27.34.25.39,0,.31.06.45-.25.79-.12.39-.12.69-.06.35,0-.06.21-.26.15-.68,1.34-.35.34-.35.49-.26.27-.13.49.23.21-.13.22-.38-.09-.13.33-.48.89-.14.16a.53.53,0,0,1,.16,0c.19,0,.29.06.29.17l-.17.33.07.53a.67.67,0,0,1-.23.51l-.72.65.11.59v.33l.13.28.06.4.77,1,.44.25.44.33.48-.15.57,0,.25-.09.67-.09.48-.37.32-.09.53-.28.39-.09.41-.43.38-.09.16-.3.35-.25.32-.36.63-.55.19-.31.33-.3.31-.23.24-.43.9-.41-.06-1.53-.7.4-.35.46-.38.27h-.22l-.32.43-1.24.94-.16.28h-.35l-.25.12-.25.31-.39.15-.25.18-.32.13-1.11.64h-.35l-.54.24h-.86l-.38-.12-.06-.34v-.24l.09-.22,0-.36.22-.19.1-.36.25-.37v-.46L431,115l.06-.31.2-.18.35-.4.09-.27.22-.31.35-.79.41-.37.26-.52.38-.18.82-1.52.32-.16.09-.36.22-.13.13-.33h.35l.41-.24.57.06.67-.25.54,0,1.43-.36.67,0,.57-.18.57,0,.38-.12h.77l.92-.37.28.13.32-.07.8,0,1.33-.3.35,0,1.36-.15.51.06,1.43.06.45-.21.06-.22Z"></path><path class="cls-3" d="M429.46,115.61l-.07-.53.17-.33c0-.11-.1-.17-.29-.17a.53.53,0,0,0-.16,0l-.17.2-.06.31-.23.37,0,.79-.19.36,0,.12.72-.65A.67.67,0,0,0,429.46,115.61Z"></path></g></g></svg>
