<?xml version="1.0" encoding="utf-8"?>
<!-- Generator: Adobe Illustrator 24.3.0, SVG Export Plug-In . SVG Version: 6.00 Build 0)  -->
<svg version="1.1" id="Layer_1" xmlns="http://www.w3.org/2000/svg" xmlns:xlink="http://www.w3.org/1999/xlink" x="0px" y="0px"
	 viewBox="0 0 120.1 48.8" style="enable-background:new 0 0 120.1 48.8;" xml:space="preserve">
<style type="text/css">
	.st0{fill:#CD1719;}
	.st1{fill:#DC0D15;}
	.st2{fill:#E30F13;}
</style>
<g>
	<g>
		<path class="st0" d="M7.1,42.2H7C6.3,41.4,5.4,41,4.4,41c-1,0-1.8,0.4-2.5,1.1c-0.5,0.6-0.8,1.5-0.8,2.5c0,1.1,0.3,2,0.9,2.7
			c0.6,0.6,1.4,0.9,2.5,0.9c0.7,0,1.3-0.1,1.8-0.4v-1.8c0-0.3,0-0.7,0-1c0.3,0,0.5,0,0.5,0c0.3,0,0.4,0,0.5-0.1c0,0,0,0.1,0,0.3
			l0,1.1v1.7c-1,0.3-2,0.5-3.1,0.5c-0.8,0-1.5-0.2-2.2-0.5c-0.7-0.3-1.2-0.8-1.6-1.5c-0.3-0.5-0.4-1.2-0.4-2c0-1.3,0.4-2.3,1.3-3
			c0.8-0.7,1.9-1,3.2-1c1,0,1.9,0.2,2.8,0.6c0,0,0,0,0.1,0c0,0,0.1,0,0.1,0C7.3,41.5,7.2,41.8,7.1,42.2"/>
	</g>
	<g>
		<path class="st0" d="M12.9,45.3c0-1.3-0.5-1.9-1.4-1.9c-0.5,0-0.9,0.2-1.2,0.6c-0.3,0.3-0.4,0.8-0.4,1.3c1,0,1.5,0,1.5,0
			C11.4,45.4,11.9,45.4,12.9,45.3 M13.9,45.4l0,0.4l-2.3,0l-1.6,0c-0.1,0.7,0.1,1.2,0.4,1.7c0.4,0.5,0.9,0.7,1.5,0.7
			c0.6,0,1.1-0.2,1.6-0.7c0,0,0.1-0.1,0.2-0.1L13.6,48c-0.6,0.4-1.3,0.7-2,0.7c-0.1,0-0.4,0-0.8-0.1c-0.7-0.2-1.2-0.6-1.6-1.3
			c-0.2-0.4-0.3-0.9-0.3-1.4c0-0.9,0.2-1.6,0.7-2.1c0.5-0.5,1.1-0.8,1.9-0.8c0.7,0,1.3,0.2,1.7,0.6C13.6,44.1,13.8,44.6,13.9,45.4"
			/>
	</g>
	<g>
		<path class="st0" d="M19.9,45.3l0,1.7l0,1.6c-0.1,0-0.3,0-0.5,0c-0.2,0-0.4,0-0.5,0c0.1-2,0.1-3,0.1-3c0-0.6,0-0.9-0.1-1.1
			c-0.3-0.5-0.7-0.8-1.2-0.8c-0.6,0-1,0.2-1.3,0.7c-0.2,0.3-0.2,0.8-0.2,1.6v1.9l0,0.8c-0.1,0-0.3,0-0.5,0c-0.2,0-0.4,0-0.5,0
			c0-0.3,0-0.8,0.1-1.3c0-0.8,0-1.4,0-2c0-0.1,0-0.4,0-1.1c0-0.2,0-0.5,0-0.9c0.2,0,0.3,0,0.4,0c0.2,0,0.4,0,0.5,0v0.2l0,0.4v0.4
			c0.4-0.7,1-1.1,1.8-1.1c0.6,0,1.1,0.2,1.4,0.6c0.2,0.2,0.3,0.5,0.4,0.8C19.9,44.6,19.9,44.9,19.9,45.3"/>
	</g>
	<g>
		<path class="st0" d="M25.5,45.7v-1.9l0-0.7c0.1,0,0.3,0,0.5,0c0.2,0,0.4,0,0.5,0c-0.1,0.8-0.1,1.9-0.1,3.4c0,0.7,0,1.3,0,2
			c-0.2,0-0.3,0-0.4,0c-0.2,0-0.3,0-0.4,0v-0.2l0-0.8c-0.4,0.7-1,1.1-1.8,1.1c-0.6,0-1.1-0.2-1.4-0.6c-0.3-0.3-0.4-0.8-0.4-1.6
			l0-1.6l0-1.6c0.1,0,0.3,0,0.5,0c0.2,0,0.3,0,0.5,0c0,0.2,0,0.5-0.1,0.8c0,1.1-0.1,1.8-0.1,2.2c0,0.6,0.1,1,0.2,1.2
			c0.2,0.5,0.6,0.7,1.2,0.7c0.3,0,0.6-0.1,0.9-0.3c0.3-0.2,0.4-0.5,0.5-0.9C25.5,46.6,25.5,46.2,25.5,45.7"/>
	</g>
	<g>
		<path class="st0" d="M29.8,41.2c0,0.2-0.1,0.3-0.2,0.4c-0.1,0.1-0.2,0.2-0.4,0.2c-0.2,0-0.3-0.1-0.4-0.2c-0.1-0.1-0.2-0.3-0.2-0.4
			c0-0.2,0.1-0.3,0.2-0.4c0.1-0.1,0.3-0.2,0.4-0.2c0.2,0,0.3,0.1,0.4,0.2C29.7,40.9,29.8,41,29.8,41.2 M28.7,43.2L28.7,43.2
			c0.1-0.1,0.3,0,0.5,0c0.2,0,0.3,0,0.4,0c0,0.7-0.1,1.6-0.1,2.7c0,1.3,0,2.2,0.1,2.6l0,0.1c-0.2,0-0.3,0-0.5,0c-0.2,0-0.4,0-0.5,0
			c0-0.7,0.1-1.6,0.1-2.7c0-0.1,0-0.4,0-0.9c0-0.4,0-0.6,0-0.9C28.7,43.8,28.7,43.5,28.7,43.2"/>
	</g>
	<g>
		<path class="st0" d="M36.4,45.3l0,1.7l0,1.6c-0.1,0-0.3,0-0.5,0c-0.2,0-0.4,0-0.5,0c0.1-2,0.1-3,0.1-3c0-0.6,0-0.9-0.1-1.1
			c-0.3-0.5-0.7-0.8-1.2-0.8c-0.6,0-1,0.2-1.3,0.7c-0.2,0.3-0.2,0.8-0.2,1.6v1.9l0,0.8c-0.1,0-0.3,0-0.5,0c-0.2,0-0.4,0-0.5,0
			c0-0.3,0-0.8,0.1-1.3c0-0.8,0-1.4,0-2c0-0.1,0-0.4,0-1.1c0-0.2,0-0.5,0-0.9c0.2,0,0.3,0,0.4,0c0.2,0,0.4,0,0.5,0v0.2l0,0.4v0.4
			c0.4-0.7,1-1.1,1.8-1.1c0.6,0,1.1,0.2,1.4,0.6c0.2,0.2,0.3,0.5,0.4,0.8C36.4,44.6,36.4,44.9,36.4,45.3"/>
	</g>
	<g>
		<path class="st0" d="M41.9,45.3c0-1.3-0.5-1.9-1.4-1.9c-0.5,0-0.9,0.2-1.2,0.6c-0.3,0.3-0.4,0.8-0.4,1.3c1,0,1.5,0,1.5,0
			C40.4,45.4,40.9,45.4,41.9,45.3 M42.8,45.4l0,0.4l-2.3,0l-1.6,0c-0.1,0.7,0.1,1.2,0.4,1.7c0.4,0.5,0.9,0.7,1.5,0.7
			c0.6,0,1.1-0.2,1.6-0.7c0,0,0.1-0.1,0.2-0.1L42.5,48c-0.6,0.4-1.3,0.7-2,0.7c-0.1,0-0.4,0-0.8-0.1c-0.7-0.2-1.2-0.6-1.6-1.3
			c-0.2-0.4-0.3-0.9-0.3-1.4c0-0.9,0.2-1.6,0.7-2.1c0.5-0.5,1.1-0.8,1.9-0.8c0.7,0,1.3,0.2,1.7,0.6C42.6,44.1,42.8,44.6,42.8,45.4"
			/>
	</g>
	<g>
		<path class="st0" d="M48.4,40.6h0.2l1.5,3c0.5,0.9,1,1.9,1.8,3.1l0.9-1.6l1.5-2.8c0.2-0.4,0.5-1,1-1.7h0.1l0.6,4.9
			c0.1,0.7,0.2,1.6,0.4,3c-0.2,0-0.3,0-0.5,0c-0.3,0-0.4,0-0.6,0l-0.4-4.1c0-0.4-0.1-0.9-0.2-1.7l-1.6,2.9l-0.6,1.2
			c-0.2,0.4-0.4,0.9-0.8,1.6h-0.1L51,47.2c-0.3-0.6-1.1-2.1-2.3-4.5l-0.5,4.5l-0.1,1.1c0,0.2,0,0.2,0,0.3c-0.3,0-0.6,0-0.8,0l0-0.1
			l0.4-2.3l0.6-4.1C48.3,41.5,48.4,41,48.4,40.6"/>
	</g>
	<g>
		<path class="st0" d="M60.3,48.3c0.5,0,0.9-0.2,1.3-0.7c0.2-0.3,0.4-0.7,0.4-1.2c0-0.2,0-0.4,0-0.6c0-0.6-0.1-1.1-0.4-1.6
			c-0.3-0.5-0.7-0.8-1.3-0.8c-0.7,0-1.2,0.3-1.5,0.8c-0.3,0.4-0.4,1-0.4,1.7c0,0.6,0.1,1.2,0.4,1.6C59.3,48,59.7,48.3,60.3,48.3
			 M57.6,45.8c0-0.8,0.3-1.5,0.8-2c0.5-0.5,1.2-0.8,2.1-0.8c0.8,0,1.5,0.3,2,0.9c0.4,0.5,0.7,1.1,0.7,1.9c0,0.6-0.1,1.1-0.4,1.5
			c-0.5,0.9-1.3,1.3-2.4,1.3c-0.4,0-0.8-0.1-1.2-0.2c-0.3-0.1-0.6-0.4-0.9-0.6C57.8,47.3,57.6,46.6,57.6,45.8"/>
	</g>
	<g>
		<path class="st0" d="M64.6,42l1-0.4c0,0.1,0,0.2,0,0.3l-0.1,1.4l1.2,0c0,0.1,0,0.3,0,0.5l-1.2,0c0,0.1,0,0.1,0,0.3l0,2.5
			c0,0.6,0,1,0.1,1.2c0.1,0.4,0.4,0.7,0.8,0.7c0.1,0,0.2,0,0.5-0.1v0.3c-0.3,0.1-0.6,0.2-1,0.2c0,0-0.2,0-0.5-0.1
			c-0.4-0.1-0.6-0.3-0.8-0.8c-0.1-0.2-0.1-0.5-0.1-0.9l0.1-2v-1.2l-0.8,0v-0.5l0.8,0c0-0.2,0-0.4,0-0.6C64.6,42.3,64.6,42.1,64.6,42
			"/>
	</g>
	<g>
		<path class="st0" d="M70.3,48.3c0.5,0,0.9-0.2,1.3-0.7c0.2-0.3,0.4-0.7,0.4-1.2c0-0.2,0-0.4,0-0.6c0-0.6-0.1-1.1-0.4-1.6
			c-0.3-0.5-0.7-0.8-1.3-0.8c-0.7,0-1.2,0.3-1.5,0.8c-0.3,0.4-0.4,1-0.4,1.7c0,0.6,0.1,1.2,0.4,1.6C69.2,48,69.7,48.3,70.3,48.3
			 M67.5,45.8c0-0.8,0.3-1.5,0.8-2c0.5-0.5,1.2-0.8,2.1-0.8c0.8,0,1.5,0.3,2,0.9c0.4,0.5,0.7,1.1,0.7,1.9c0,0.6-0.1,1.1-0.4,1.5
			c-0.5,0.9-1.3,1.3-2.4,1.3c-0.4,0-0.8-0.1-1.2-0.2c-0.3-0.1-0.6-0.4-0.9-0.6C67.7,47.3,67.5,46.6,67.5,45.8"/>
	</g>
	<g>
		<path class="st0" d="M74.6,48.2l0-1.2l0-3.9l0.3,0c0.3,0,0.5,0,0.7,0l-0.1,0.8v0.3l0,0.1l0.1-0.1c0.4-0.7,0.9-1.1,1.4-1.1
			c0.1,0,0.2,0,0.4,0.1l-0.1,0.3v0.3l0,0.2V44l-0.1,0c0,0-0.1,0-0.1-0.1c-0.1-0.1-0.3-0.1-0.4-0.1c-0.3,0-0.6,0.1-0.7,0.3
			c-0.1,0.1-0.2,0.2-0.3,0.5c-0.1,0.3-0.1,0.7-0.1,1.3v1.4l0,1.2c-0.1,0-0.3,0-0.5,0c-0.1,0-0.3,0-0.4,0
			C74.6,48.5,74.6,48.4,74.6,48.2"/>
	</g>
	<g>
		<path class="st0" d="M88,43l1.5,4.3h0.1c0.1-0.4,0.3-0.9,0.4-1.3l1.6-5.2c0.1,0,0.3,0,0.4,0c0.1,0,0.3,0,0.4,0
			c-0.3,0.6-0.4,1.1-0.6,1.5l-2.2,6.3c-0.1,0-0.3,0-0.4,0c-0.1,0-0.3,0-0.4,0c0,0,0-0.1-0.1-0.3l-2-6.1l-2.2,6.4c-0.2,0-0.5,0-0.8,0
			c-0.1-0.3-0.2-0.8-0.4-1.5l-2-6.3c0,0,0.2,0,0.3,0c0.1,0,0.2,0,0.3,0c0.1,0,0.2,0,0.3,0c0.1,0,0.2,0,0.3,0
			c0.1,0.3,0.2,0.7,0.3,1.2l0.7,2.3l1,3h0.1l1.4-4.2c0.1-0.3,0.2-0.6,0.3-1c0.1-0.3,0.2-0.7,0.4-1.3l0-0.1c0.3,0.1,0.5,0.1,0.7,0
			c0,0.1,0.1,0.2,0.1,0.3L88,43z"/>
	</g>
	<g>
		<path class="st0" d="M95.9,48.3c0.5,0,0.9-0.2,1.3-0.7c0.2-0.3,0.4-0.7,0.4-1.2c0-0.2,0-0.4,0-0.6c0-0.6-0.1-1.1-0.4-1.6
			c-0.3-0.5-0.7-0.8-1.3-0.8c-0.7,0-1.2,0.3-1.5,0.8c-0.3,0.4-0.4,1-0.4,1.7c0,0.6,0.1,1.2,0.4,1.6C94.8,48,95.3,48.3,95.9,48.3
			 M93.1,45.8c0-0.8,0.3-1.5,0.8-2c0.5-0.5,1.2-0.8,2.1-0.8c0.8,0,1.5,0.3,2,0.9c0.4,0.5,0.7,1.1,0.7,1.9c0,0.6-0.1,1.1-0.4,1.5
			c-0.5,0.9-1.3,1.3-2.4,1.3c-0.4,0-0.8-0.1-1.2-0.2c-0.3-0.1-0.6-0.4-0.9-0.6C93.3,47.3,93.1,46.6,93.1,45.8"/>
	</g>
	<g>
		<path class="st0" d="M100.2,48.2l0-1.2l0-3.9l0.3,0c0.3,0,0.5,0,0.7,0l-0.1,0.8v0.3l0,0.1l0.1-0.1c0.4-0.7,0.9-1.1,1.4-1.1
			c0.1,0,0.2,0,0.4,0.1l-0.1,0.3v0.3l0,0.2V44l-0.1,0c0,0-0.1,0-0.1-0.1c-0.1-0.1-0.3-0.1-0.4-0.1c-0.3,0-0.6,0.1-0.7,0.3
			c-0.1,0.1-0.2,0.2-0.3,0.5c-0.1,0.3-0.1,0.7-0.1,1.3v1.4l0,1.2c-0.1,0-0.3,0-0.5,0c-0.1,0-0.3,0-0.4,0
			C100.2,48.5,100.2,48.4,100.2,48.2"/>
	</g>
	<g>
		<path class="st0" d="M104.1,48.2l0-0.9l0.1-4.3l-0.1-3l0.1,0c0.1,0,0.3,0,0.7,0c0,0,0.1,0,0.1,0c0,0,0.1,0,0.1,0c0,0,0,0.1,0,0.3
			l-0.1,2v2.7c0,0.2,0,0.3,0.1,0.4c0,0,0,0,0.1,0c0.2,0,0.5-0.2,0.9-0.7l0.7-0.7l0.9-0.9l0.1,0l0.3,0c0.2,0,0.4,0,0.5,0v0.1
			c-0.6,0.5-1,0.9-1.4,1.1l-0.4,0.3l-0.8,0.7c0.3,0.3,0.7,0.8,1.3,1.5l0.5,0.6l0.5,0.6l0.3,0.4v0.1c-0.1,0-0.3,0-0.6,0
			c-0.3,0-0.5,0-0.6,0c-0.3-0.3-0.5-0.6-0.6-0.8l-0.4-0.4l-0.6-0.7l-0.6-0.6c-0.1,0-0.1-0.1-0.2-0.2c-0.1,0-0.2,0-0.2,0
			c0,0,0,0.2,0,0.5v1.1l0,0.9v0.3l-0.1,0l-0.3,0c-0.3,0-0.5,0-0.6,0C104.1,48.4,104.1,48.3,104.1,48.2"/>
	</g>
	<g>
		<path class="st0" d="M109.9,47.5L109.9,47.5c0.4,0.5,0.9,0.8,1.4,0.8c0.3,0,0.6-0.1,0.8-0.3c0.2-0.2,0.3-0.4,0.3-0.7
			c0-0.3-0.1-0.6-0.4-0.8c-0.1-0.1-0.4-0.2-0.9-0.3c-0.2-0.1-0.4-0.1-0.5-0.2c-0.2-0.1-0.3-0.2-0.4-0.3c-0.3-0.3-0.5-0.6-0.5-1
			c0-0.5,0.2-0.9,0.5-1.3c0.3-0.3,0.8-0.4,1.3-0.4c0.5,0,0.9,0.1,1.3,0.3c-0.1,0.3-0.2,0.5-0.3,0.8h-0.1c-0.1-0.2-0.2-0.4-0.4-0.5
			c-0.2-0.1-0.4-0.2-0.6-0.2c-0.3,0-0.5,0.1-0.7,0.2c-0.2,0.2-0.3,0.4-0.3,0.7c0,0.3,0.1,0.5,0.3,0.7c0.2,0.1,0.4,0.2,0.8,0.3
			c0.5,0.1,0.9,0.3,1,0.4c0.4,0.3,0.6,0.7,0.6,1.1c0,0.6-0.3,1.1-0.9,1.5c-0.3,0.2-0.7,0.3-1.2,0.3c-0.5,0-1-0.1-1.4-0.4
			C109.7,48.1,109.8,47.8,109.9,47.5"/>
	</g>
	<g>
		<path class="st0" d="M7.1,42.2H7C6.3,41.4,5.4,41,4.4,41c-1,0-1.8,0.4-2.5,1.1c-0.5,0.6-0.8,1.5-0.8,2.5c0,1.1,0.3,2,0.9,2.7
			c0.6,0.6,1.4,0.9,2.5,0.9c0.7,0,1.3-0.1,1.8-0.4v-1.8c0-0.3,0-0.7,0-1c0.3,0,0.5,0,0.5,0c0.3,0,0.4,0,0.5-0.1c0,0,0,0.1,0,0.3
			l0,1.1v1.7c-1,0.3-2,0.5-3.1,0.5c-0.8,0-1.5-0.2-2.2-0.5c-0.7-0.3-1.2-0.8-1.6-1.5c-0.3-0.5-0.4-1.2-0.4-2c0-1.3,0.4-2.3,1.3-3
			c0.8-0.7,1.9-1,3.2-1c1,0,1.9,0.2,2.8,0.6c0,0,0,0,0.1,0c0,0,0.1,0,0.1,0C7.3,41.5,7.2,41.8,7.1,42.2"/>
	</g>
	<g>
		<path class="st0" d="M13,45.3c0-1.3-0.5-1.9-1.4-1.9c-0.5,0-0.9,0.2-1.2,0.6c-0.3,0.4-0.4,0.8-0.4,1.3c1,0,1.5,0,1.5,0
			C11.4,45.4,11.9,45.4,13,45.3 M13.9,45.4l0,0.4l-2.3,0l-1.6,0c-0.1,0.7,0.1,1.2,0.4,1.7c0.4,0.5,0.9,0.7,1.6,0.7
			c0.6,0,1.2-0.2,1.6-0.7c0,0,0.1-0.1,0.2-0.1L13.6,48c-0.6,0.5-1.3,0.7-2,0.7c-0.1,0-0.4,0-0.8-0.1c-0.7-0.2-1.2-0.6-1.6-1.3
			c-0.2-0.4-0.3-0.9-0.3-1.4c0-0.9,0.2-1.6,0.7-2.1c0.5-0.5,1.1-0.8,1.9-0.8c0.7,0,1.3,0.2,1.7,0.6C13.6,44.1,13.8,44.6,13.9,45.4"
			/>
	</g>
	<g>
		<path class="st1" d="M11.6,48.8c-0.1,0-0.4,0-0.8-0.1c-0.7-0.2-1.3-0.6-1.7-1.4c-0.2-0.4-0.3-0.9-0.3-1.5c0-0.9,0.3-1.6,0.8-2.2
			c0.5-0.5,1.2-0.8,2-0.8c0.8,0,1.4,0.2,1.8,0.7c0.4,0.4,0.7,1,0.7,1.8v0l0,0.6l-2.5,0l-1.5,0c0,0.6,0.1,1.1,0.4,1.5
			c0.3,0.5,0.8,0.7,1.5,0.7c0.6,0,1.1-0.2,1.5-0.6c0,0,0.1-0.1,0.2-0.1l0.2,0l-0.1,0.8l0,0C13,48.6,12.3,48.8,11.6,48.8z M11.5,43.1
			c-0.7,0-1.4,0.2-1.8,0.7C9.2,44.4,9,45,9,45.9c0,0.5,0.1,1,0.3,1.4c0.4,0.7,0.8,1.1,1.5,1.2c0.4,0.1,0.7,0.1,0.8,0.1
			c0.6,0,1.3-0.2,1.9-0.6l0-0.3c-0.5,0.4-1,0.6-1.6,0.6c-0.7,0-1.3-0.3-1.7-0.8c-0.4-0.5-0.5-1.1-0.5-1.8l0-0.1l1.8,0l2.2,0l0-0.3
			c0-0.7-0.2-1.2-0.6-1.6C12.8,43.3,12.2,43.1,11.5,43.1z M11.4,45.5c0,0-0.2,0-0.5,0l-1.1,0l0-0.1c0-0.5,0.2-1,0.5-1.4
			c0.3-0.5,0.7-0.7,1.3-0.7c1,0,1.5,0.7,1.6,2.1l0,0.1L11.4,45.5z M10,45.2l0.9,0c0.3,0,0.4,0,0.5,0l0,0l1.4,0
			c-0.1-1.1-0.5-1.7-1.3-1.7c-0.5,0-0.8,0.2-1.1,0.6C10.2,44.4,10.1,44.8,10,45.2z"/>
	</g>
	<g>
		<path class="st0" d="M12.9,45.3c0-1.3-0.5-1.9-1.4-1.9c-0.5,0-0.9,0.2-1.2,0.6c-0.3,0.3-0.4,0.8-0.4,1.3c1,0,1.5,0,1.5,0
			C11.4,45.4,11.9,45.4,12.9,45.3 M13.9,45.4l0,0.4l-2.3,0l-1.6,0c-0.1,0.7,0.1,1.2,0.4,1.7c0.4,0.5,0.9,0.7,1.5,0.7
			c0.6,0,1.1-0.2,1.6-0.7c0,0,0.1-0.1,0.2-0.1L13.6,48c-0.6,0.4-1.3,0.7-2,0.7c-0.1,0-0.4,0-0.8-0.1c-0.7-0.2-1.2-0.6-1.6-1.3
			c-0.2-0.4-0.3-0.9-0.3-1.4c0-0.9,0.2-1.6,0.7-2.1c0.5-0.5,1.1-0.8,1.9-0.8c0.7,0,1.3,0.2,1.7,0.6C13.6,44.1,13.8,44.6,13.9,45.4"
			/>
	</g>
	<g>
		<path class="st0" d="M19.9,45.3l0,1.7l0,1.6c-0.1,0-0.3,0-0.5,0c-0.2,0-0.4,0-0.5,0c0.1-2,0.1-3,0.1-3c0-0.6,0-0.9-0.1-1.1
			c-0.3-0.5-0.7-0.8-1.2-0.8c-0.6,0-1,0.2-1.3,0.7c-0.2,0.3-0.2,0.8-0.2,1.6v1.9l0,0.8c-0.1,0-0.3,0-0.5,0c-0.2,0-0.4,0-0.5,0
			c0-0.3,0-0.8,0.1-1.4c0-0.8,0-1.4,0-2.1c0-0.1,0-0.4,0-1.1c0-0.2,0-0.5,0-0.9c0.2,0,0.3,0,0.4,0c0.2,0,0.4,0,0.5,0v0.2l0,0.4v0.4
			c0.4-0.7,1-1.1,1.9-1.1c0.6,0,1.1,0.2,1.4,0.6c0.2,0.2,0.3,0.5,0.4,0.8C19.9,44.6,19.9,44.9,19.9,45.3"/>
	</g>
	<g>
		<path class="st1" d="M15.2,48.7l0-0.2c0-0.3,0-0.8,0.1-1.4c0-0.7,0-1.4,0-2.1c0-0.1,0-0.4,0-1.1c0-0.2,0-0.5,0-0.9l0-0.1l0.1,0
			c0.2,0,0.3,0,0.4,0c0.2,0,0.3,0,0.4,0l0.2,0v0.4l0,0.4c0.4-0.5,1-0.8,1.7-0.8c0.7,0,1.2,0.2,1.5,0.6c0.2,0.2,0.3,0.5,0.4,0.8
			c0,0.2,0,0.5,0,0.9l0,1.7l0,1.8l-0.1,0c-0.1,0-0.3,0-0.5,0c-0.2,0-0.3,0-0.4,0l-0.2,0l0-0.2c0.1-2,0.1-3,0.1-3
			c0-0.7-0.1-1-0.1-1.1c-0.2-0.5-0.6-0.7-1.1-0.7c-0.6,0-0.9,0.2-1.2,0.6c-0.2,0.3-0.2,0.8-0.2,1.5v1.9l0,0.9l-0.2,0
			c-0.1,0-0.3,0-0.5,0c-0.3,0-0.4,0-0.4,0L15.2,48.7z M19.4,48.4c0.1,0,0.3,0,0.4,0l0-1.5l0-1.7c0-0.4,0-0.7,0-0.8
			c0-0.3-0.2-0.5-0.3-0.7c-0.3-0.4-0.7-0.5-1.4-0.5c-0.8,0-1.3,0.3-1.8,1l-0.2,0.4v-0.9l0-0.5c-0.1,0-0.2,0-0.3,0
			c-0.1,0-0.2,0-0.3,0c0,0.3,0,0.6,0,0.8c0,0.7,0,1,0,1.1c0,0.6,0,1.3,0,2.1c0,0.5,0,0.9-0.1,1.2c0.1,0,0.2,0,0.3,0
			c0.1,0,0.2,0,0.3,0l0-0.6v-1.9c0-0.8,0.1-1.3,0.3-1.7c0.3-0.5,0.7-0.8,1.4-0.8c0.6,0,1,0.3,1.3,0.8c0.1,0.2,0.2,0.6,0.2,1.2
			c0,0,0,1.5-0.1,2.9C19.2,48.4,19.3,48.4,19.4,48.4z"/>
	</g>
	<g>
		<path class="st0" d="M19.9,45.3l0,1.7l0,1.6c-0.1,0-0.3,0-0.5,0c-0.2,0-0.4,0-0.5,0c0.1-2,0.1-3,0.1-3c0-0.6,0-0.9-0.1-1.1
			c-0.3-0.5-0.7-0.8-1.2-0.8c-0.6,0-1,0.2-1.3,0.7c-0.2,0.3-0.2,0.8-0.2,1.6v1.9l0,0.8c-0.1,0-0.3,0-0.5,0c-0.2,0-0.4,0-0.5,0
			c0-0.3,0-0.8,0.1-1.3c0-0.8,0-1.4,0-2c0-0.1,0-0.4,0-1.1c0-0.2,0-0.5,0-0.9c0.2,0,0.3,0,0.4,0c0.2,0,0.4,0,0.5,0v0.2l0,0.4v0.4
			c0.4-0.7,1-1.1,1.8-1.1c0.6,0,1.1,0.2,1.4,0.6c0.2,0.2,0.3,0.5,0.4,0.8C19.9,44.6,19.9,44.9,19.9,45.3"/>
	</g>
	<g>
		<path class="st0" d="M25.5,45.7v-1.9l0-0.7c0.1,0,0.3,0,0.5,0c0.2,0,0.4,0,0.5,0c-0.1,0.8-0.1,1.9-0.1,3.4c0,0.7,0,1.3,0,2
			c-0.2,0-0.3,0-0.4,0c-0.2,0-0.3,0-0.4,0v-0.2l0-0.8c-0.4,0.7-1,1.1-1.9,1.1c-0.6,0-1.1-0.2-1.4-0.6c-0.3-0.3-0.4-0.8-0.4-1.6
			l0-1.7l0-1.6c0.1,0,0.3,0,0.5,0c0.2,0,0.3,0,0.5,0c0,0.2,0,0.5-0.1,0.8c0,1.1-0.1,1.8-0.1,2.2c0,0.6,0.1,1,0.2,1.2
			c0.2,0.5,0.6,0.7,1.2,0.7c0.4,0,0.7-0.1,0.9-0.3c0.3-0.2,0.4-0.5,0.5-0.9C25.5,46.6,25.5,46.2,25.5,45.7"/>
	</g>
	<g>
		<path class="st1" d="M23.7,48.7c-0.6,0-1.2-0.2-1.5-0.6c-0.3-0.3-0.5-0.9-0.4-1.7l0-1.7l0-1.8l0.1,0c0.2,0,0.6,0,0.9,0l0.2,0
			l0,0.2c0,0.2,0,0.5-0.1,0.8c0,1.1-0.1,1.8-0.1,2.2c0,0.6,0.1,0.9,0.2,1.2c0.2,0.4,0.6,0.6,1.1,0.6c0.3,0,0.6-0.1,0.8-0.3
			c0.2-0.2,0.4-0.5,0.4-0.8c0-0.2,0.1-0.5,0.1-1v-1.9l0-0.9l0.2,0c0.1,0,0.2,0,0.4,0c0.2,0,0.4,0,0.5,0l0.2,0l0,0.2
			c-0.1,0.8-0.1,1.9-0.1,3.4c0,0.7,0,1.4,0,2l0,0.1l-0.1,0c-0.2,0-0.3,0-0.4,0c-0.2,0-0.3,0-0.4,0l-0.2,0l0-0.8
			C25,48.5,24.4,48.7,23.7,48.7z M22,43.3l0,1.5l0,1.7c0,0.7,0.1,1.3,0.4,1.5c0.3,0.4,0.8,0.5,1.4,0.5c0.8,0,1.4-0.3,1.8-1l0.2,0.1
			l0,0.9c0.2,0,0.3,0,0.6,0c0-0.6,0-1.3,0-1.9c0-1.4,0-2.5,0.1-3.3c-0.2,0-0.5,0-0.7,0l0,0.6v1.9c0,0.5,0,0.9-0.1,1.1
			c-0.1,0.4-0.2,0.7-0.5,1c-0.3,0.2-0.6,0.4-1,0.4c-0.6,0-1.1-0.3-1.3-0.8c-0.1-0.3-0.2-0.7-0.2-1.3c0-0.3,0-1.1,0.1-2.2
			c0-0.3,0-0.5,0-0.7C22.4,43.3,22.2,43.3,22,43.3z"/>
	</g>
	<g>
		<path class="st0" d="M25.5,45.7v-1.9l0-0.7c0.1,0,0.3,0,0.5,0c0.2,0,0.4,0,0.5,0c-0.1,0.8-0.1,1.9-0.1,3.4c0,0.7,0,1.3,0,2
			c-0.2,0-0.3,0-0.4,0c-0.2,0-0.3,0-0.4,0v-0.2l0-0.8c-0.4,0.7-1,1.1-1.8,1.1c-0.6,0-1.1-0.2-1.4-0.6c-0.3-0.3-0.4-0.8-0.4-1.6
			l0-1.6l0-1.6c0.1,0,0.3,0,0.5,0c0.2,0,0.3,0,0.5,0c0,0.2,0,0.5-0.1,0.8c0,1.1-0.1,1.8-0.1,2.2c0,0.6,0.1,1,0.2,1.2
			c0.2,0.5,0.6,0.7,1.2,0.7c0.3,0,0.6-0.1,0.9-0.3c0.3-0.2,0.4-0.5,0.5-0.9C25.5,46.6,25.5,46.2,25.5,45.7"/>
	</g>
	<g>
		<path class="st0" d="M29.8,41.2c0,0.2-0.1,0.3-0.2,0.4c-0.1,0.1-0.3,0.2-0.4,0.2c-0.2,0-0.3-0.1-0.4-0.2c-0.1-0.1-0.2-0.3-0.2-0.4
			c0-0.2,0.1-0.3,0.2-0.4s0.3-0.2,0.4-0.2c0.2,0,0.3,0.1,0.4,0.2C29.7,40.9,29.8,41,29.8,41.2 M28.7,43.2L28.7,43.2
			c0.1-0.1,0.3,0,0.6,0c0.2,0,0.4,0,0.4,0c0,0.7-0.1,1.6-0.1,2.7c0,1.4,0,2.2,0.1,2.6l0,0.1c-0.2,0-0.3,0-0.5,0c-0.2,0-0.4,0-0.5,0
			c0-0.7,0.1-1.6,0.1-2.7c0-0.1,0-0.4,0-0.9c0-0.4,0-0.6,0-0.9C28.7,43.8,28.7,43.5,28.7,43.2"/>
	</g>
	<g>
		<path class="st1" d="M28.5,48.7l0-0.2c0-0.7,0.1-1.6,0.1-2.7c0-0.1,0-0.4,0-0.9c0-0.4,0-0.6,0-0.9c0-0.3,0-0.6-0.1-0.9l0-0.1
			l0-0.2l0.2,0c0.1,0,0.3,0,0.6,0c0.2,0,0.3,0,0.4,0l0.2,0l0,0.2c0,0.7-0.1,1.6-0.1,2.7c0,1.3,0,2.2,0.1,2.6l0,0.3l-0.2,0
			c-0.2,0-0.3,0-0.5,0c-0.2,0-0.4,0-0.5,0L28.5,48.7z M29.2,48.4c0.1,0,0.3,0,0.4,0c0-0.4-0.1-1.3-0.1-2.6c0-1,0-1.9,0.1-2.6
			c-0.1,0-0.2,0-0.3,0c-0.2,0-0.3,0-0.4,0c0,0.2,0.1,0.5,0.1,0.8c0,0.2,0,0.5,0,0.9c0,0.5,0,0.8,0,0.9c0,1,0,1.9-0.1,2.6
			C28.9,48.4,29,48.4,29.2,48.4z M29.2,41.9c-0.2,0-0.4-0.1-0.5-0.2c-0.1-0.1-0.2-0.3-0.2-0.5s0.1-0.4,0.2-0.5c0.3-0.3,0.7-0.3,1,0
			c0.1,0.1,0.2,0.3,0.2,0.5s-0.1,0.4-0.2,0.5C29.6,41.8,29.4,41.9,29.2,41.9z M29.2,40.7c-0.1,0-0.2,0-0.3,0.1
			c-0.1,0.1-0.1,0.2-0.1,0.3s0,0.2,0.1,0.3c0.2,0.2,0.5,0.2,0.7,0c0.1-0.1,0.2-0.2,0.2-0.3s0-0.2-0.1-0.3
			C29.4,40.8,29.3,40.7,29.2,40.7z"/>
	</g>
	<g>
		<path class="st0" d="M29.8,41.2c0,0.2-0.1,0.3-0.2,0.4c-0.1,0.1-0.2,0.2-0.4,0.2c-0.2,0-0.3-0.1-0.4-0.2c-0.1-0.1-0.2-0.3-0.2-0.4
			c0-0.2,0.1-0.3,0.2-0.4c0.1-0.1,0.3-0.2,0.4-0.2c0.2,0,0.3,0.1,0.4,0.2C29.7,40.9,29.8,41,29.8,41.2 M28.7,43.2L28.7,43.2
			c0.1-0.1,0.3,0,0.5,0c0.2,0,0.3,0,0.4,0c0,0.7-0.1,1.6-0.1,2.7c0,1.3,0,2.2,0.1,2.6l0,0.1c-0.2,0-0.3,0-0.5,0c-0.2,0-0.4,0-0.5,0
			c0-0.7,0.1-1.6,0.1-2.7c0-0.1,0-0.4,0-0.9c0-0.4,0-0.6,0-0.9C28.7,43.8,28.7,43.5,28.7,43.2"/>
	</g>
	<g>
		<path class="st0" d="M36.4,45.3l0,1.7l0,1.6c-0.1,0-0.3,0-0.5,0c-0.2,0-0.4,0-0.5,0c0.1-2,0.1-3,0.1-3c0-0.6,0-0.9-0.1-1.1
			c-0.3-0.5-0.7-0.8-1.2-0.8c-0.6,0-1,0.2-1.3,0.7c-0.2,0.3-0.2,0.8-0.2,1.6v1.9l0,0.8c-0.1,0-0.3,0-0.5,0c-0.2,0-0.4,0-0.5,0
			c0-0.3,0-0.8,0.1-1.4c0-0.8,0-1.4,0-2.1c0-0.1,0-0.4,0-1.1c0-0.2,0-0.5,0-0.9c0.2,0,0.3,0,0.4,0c0.2,0,0.4,0,0.5,0v0.2l0,0.4v0.4
			c0.4-0.7,1-1.1,1.9-1.1c0.6,0,1.1,0.2,1.4,0.6c0.2,0.2,0.3,0.5,0.4,0.8C36.4,44.6,36.4,44.9,36.4,45.3"/>
	</g>
	<g>
		<path class="st1" d="M31.7,48.7l0-0.2c0-0.3,0-0.8,0.1-1.4c0-0.7,0-1.4,0-2.1c0-0.1,0-0.4,0-1.1c0-0.2,0-0.5,0-0.9l0-0.1l0.1,0
			c0.2,0,0.3,0,0.4,0c0.2,0,0.3,0,0.4,0l0.2,0v0.4l0,0.4c0.4-0.5,1-0.8,1.7-0.8c0.7,0,1.2,0.2,1.5,0.6c0.2,0.2,0.3,0.5,0.4,0.8
			c0,0.2,0,0.5,0,0.9l0,1.7l0,1.8l-0.1,0c-0.1,0-0.3,0-0.5,0c-0.2,0-0.3,0-0.4,0l-0.2,0l0.1-1.5c0-1.1,0.1-1.6,0.1-1.6
			c0-0.7-0.1-1-0.1-1.1c-0.2-0.5-0.6-0.7-1.1-0.7c-0.6,0-0.9,0.2-1.2,0.6c-0.2,0.3-0.2,0.8-0.2,1.5v1.9l0,0.9l-0.2,0
			c-0.1,0-0.3,0-0.5,0c-0.3,0-0.4,0-0.4,0L31.7,48.7z M35.9,48.4c0.1,0,0.3,0,0.4,0l0-1.5l0-1.7c0-0.4,0-0.7,0-0.8
			c0-0.3-0.2-0.5-0.3-0.7c-0.3-0.4-0.8-0.5-1.4-0.5c-0.8,0-1.3,0.3-1.8,1l-0.2,0.4v-0.9l0-0.5c-0.1,0-0.2,0-0.3,0
			c-0.1,0-0.2,0-0.3,0c0,0.3,0,0.6,0,0.8c0,0.7,0,1,0,1.1c0,0.6,0,1.3,0,2.1c0,0.5,0,0.9-0.1,1.2c0.1,0,0.2,0,0.3,0
			c0.1,0,0.2,0,0.3,0l0-0.6v-1.9c0-0.8,0.1-1.3,0.3-1.7c0.3-0.5,0.7-0.8,1.4-0.8c0.6,0,1,0.3,1.3,0.8c0.1,0.2,0.2,0.6,0.2,1.2
			c0,0,0,0.3-0.1,1.6l0,1.2C35.7,48.4,35.8,48.4,35.9,48.4z"/>
	</g>
	<g>
		<path class="st0" d="M36.4,45.3l0,1.7l0,1.6c-0.1,0-0.3,0-0.5,0c-0.2,0-0.4,0-0.5,0c0.1-2,0.1-3,0.1-3c0-0.6,0-0.9-0.1-1.1
			c-0.3-0.5-0.7-0.8-1.2-0.8c-0.6,0-1,0.2-1.3,0.7c-0.2,0.3-0.2,0.8-0.2,1.6v1.9l0,0.8c-0.1,0-0.3,0-0.5,0c-0.2,0-0.4,0-0.5,0
			c0-0.3,0-0.8,0.1-1.3c0-0.8,0-1.4,0-2c0-0.1,0-0.4,0-1.1c0-0.2,0-0.5,0-0.9c0.2,0,0.3,0,0.4,0c0.2,0,0.4,0,0.5,0v0.2l0,0.4v0.4
			c0.4-0.7,1-1.1,1.8-1.1c0.6,0,1.1,0.2,1.4,0.6c0.2,0.2,0.3,0.5,0.4,0.8C36.4,44.6,36.4,44.9,36.4,45.3"/>
	</g>
	<g>
		<path class="st0" d="M41.9,45.3c0-1.3-0.5-1.9-1.4-1.9c-0.5,0-0.9,0.2-1.2,0.6c-0.3,0.4-0.4,0.8-0.4,1.3c1,0,1.5,0,1.5,0
			C40.4,45.4,40.9,45.4,41.9,45.3 M42.9,45.4l0,0.4l-2.3,0l-1.6,0c-0.1,0.7,0.1,1.2,0.4,1.7c0.4,0.5,0.9,0.7,1.6,0.7
			c0.6,0,1.2-0.2,1.6-0.7c0,0,0.1-0.1,0.2-0.1L42.6,48c-0.6,0.5-1.3,0.7-2,0.7c-0.1,0-0.4,0-0.8-0.1c-0.7-0.2-1.2-0.6-1.6-1.3
			c-0.2-0.4-0.3-0.9-0.3-1.4c0-0.9,0.2-1.6,0.7-2.1c0.5-0.5,1.1-0.8,1.9-0.8c0.7,0,1.3,0.2,1.7,0.6C42.6,44.1,42.8,44.6,42.9,45.4"
			/>
	</g>
	<g>
		<path class="st1" d="M40.6,48.8c-0.1,0-0.4,0-0.8-0.1c-0.7-0.2-1.3-0.6-1.7-1.4c-0.2-0.4-0.3-0.9-0.3-1.5c0-0.9,0.3-1.6,0.8-2.2
			c0.5-0.5,1.2-0.8,2-0.8c0.8,0,1.4,0.2,1.8,0.7c0.4,0.4,0.7,1,0.7,1.8v0l0,0.6l-2.5,0l-1.5,0c0,0.6,0.1,1.1,0.4,1.5
			c0.3,0.5,0.8,0.7,1.5,0.7c0.6,0,1.1-0.2,1.5-0.6c0,0,0.1-0.1,0.2-0.1l0.2,0l-0.1,0.8l0,0C42,48.6,41.3,48.8,40.6,48.8z M40.5,43.1
			c-0.7,0-1.4,0.2-1.8,0.7c-0.5,0.5-0.7,1.2-0.7,2c0,0.5,0.1,1,0.3,1.4c0.4,0.7,0.8,1.1,1.5,1.2c0.4,0.1,0.7,0.1,0.8,0.1
			c0.6,0,1.3-0.2,1.9-0.6l0-0.3c-0.5,0.4-1,0.6-1.6,0.6c-0.7,0-1.3-0.3-1.7-0.8c-0.4-0.5-0.5-1.1-0.5-1.8l0-0.1l1.8,0l2.2,0l0-0.3
			c0-0.7-0.2-1.2-0.6-1.6C41.7,43.3,41.2,43.1,40.5,43.1z M40.4,45.5c0,0-0.2,0-0.5,0l-1.1,0l0-0.1c0-0.5,0.2-1,0.5-1.4
			c0.3-0.5,0.7-0.7,1.3-0.7c1,0,1.5,0.7,1.6,2.1l0,0.1L40.4,45.5z M39,45.2l0.9,0c0.3,0,0.4,0,0.5,0l0,0l1.4,0
			c-0.1-1.1-0.5-1.7-1.3-1.7c-0.5,0-0.8,0.2-1.1,0.6C39.2,44.4,39.1,44.8,39,45.2z"/>
	</g>
	<g>
		<path class="st0" d="M41.9,45.3c0-1.3-0.5-1.9-1.4-1.9c-0.5,0-0.9,0.2-1.2,0.6c-0.3,0.3-0.4,0.8-0.4,1.3c1,0,1.5,0,1.5,0
			C40.4,45.4,40.9,45.4,41.9,45.3 M42.8,45.4l0,0.4l-2.3,0l-1.6,0c-0.1,0.7,0.1,1.2,0.4,1.7c0.4,0.5,0.9,0.7,1.5,0.7
			c0.6,0,1.1-0.2,1.6-0.7c0,0,0.1-0.1,0.2-0.1L42.5,48c-0.6,0.4-1.3,0.7-2,0.7c-0.1,0-0.4,0-0.8-0.1c-0.7-0.2-1.2-0.6-1.6-1.3
			c-0.2-0.4-0.3-0.9-0.3-1.4c0-0.9,0.2-1.6,0.7-2.1c0.5-0.5,1.1-0.8,1.9-0.8c0.7,0,1.3,0.2,1.7,0.6C42.6,44.1,42.8,44.6,42.8,45.4"
			/>
	</g>
	<g>
		<path class="st0" d="M48.4,40.6h0.2l1.6,3c0.5,0.9,1,1.9,1.8,3.1l0.9-1.6l1.5-2.8c0.2-0.4,0.5-1,1-1.7h0.1l0.6,5
			c0.1,0.7,0.2,1.6,0.4,3c-0.2,0-0.3,0-0.5,0c-0.3,0-0.4,0-0.6,0l-0.4-4.2c0-0.4-0.1-1-0.2-1.7l-1.6,3l-0.6,1.2
			c-0.2,0.4-0.4,0.9-0.8,1.6h-0.1L51,47.2c-0.3-0.6-1.1-2.1-2.3-4.5l-0.5,4.5l-0.1,1.1c0,0.2,0,0.2,0,0.3c-0.3,0-0.6,0-0.8,0l0-0.1
			l0.4-2.4l0.6-4.2C48.3,41.5,48.4,41,48.4,40.6"/>
	</g>
	<g>
		<path class="st1" d="M47.2,48.7l0-0.3l0.4-2.4l0.6-4.2c0.1-0.5,0.1-0.9,0.2-1.3l0-0.1h0.4l1.6,3.1c0.4,0.8,1,1.8,1.6,2.9l0.8-1.4
			l1.5-2.8c0.2-0.4,0.5-1,1-1.7l0-0.1h0.3l0.6,5.1c0.1,0.7,0.2,1.6,0.4,3l0,0.2l-0.2,0c-0.2,0-0.3,0-0.5,0c-0.2,0-0.4,0-0.5,0
			l-0.1,0l-0.4-4.4l-0.1-1.2l-1.4,2.6l-0.6,1.2c-0.2,0.4-0.4,0.9-0.8,1.6l0,0.1h-0.3l-0.7-1.4c-0.3-0.6-1-2-2.1-4.1l-0.4,4.1
			l-0.1,1.1c0,0.1,0,0.2,0,0.2l0,0.1l-0.1,0c-0.3,0-0.5,0-0.8,0L47.2,48.7z M47.7,48.4c0.1,0,0.2,0,0.3,0c0,0,0-0.1,0-0.1l0.1-1.1
			l0.5-4.9l0.2,0.4c1.2,2.3,2,3.8,2.3,4.5l0.6,1.2c0.3-0.7,0.6-1.2,0.7-1.5l0.6-1.2l1.8-3.3l0.3,2.1l0.4,4c0.2,0,0.5,0,0.8,0
			c-0.2-1.2-0.3-2.2-0.4-2.8l-0.5-4.8c-0.4,0.7-0.7,1.3-0.9,1.6L51.9,47l-0.1-0.2c-0.7-1.2-1.3-2.2-1.8-3.1l-1.5-3
			c0,0.4-0.1,0.8-0.1,1.2l-0.6,4.2l-0.4,2.3C47.5,48.4,47.6,48.4,47.7,48.4z"/>
	</g>
	<g>
		<path class="st0" d="M48.4,40.6h0.2l1.5,3c0.5,0.9,1,1.9,1.8,3.1l0.9-1.6l1.5-2.8c0.2-0.4,0.5-1,1-1.7h0.1l0.6,4.9
			c0.1,0.7,0.2,1.6,0.4,3c-0.2,0-0.3,0-0.5,0c-0.3,0-0.4,0-0.6,0l-0.4-4.1c0-0.4-0.1-0.9-0.2-1.7l-1.6,2.9l-0.6,1.2
			c-0.2,0.4-0.4,0.9-0.8,1.6h-0.1L51,47.2c-0.3-0.6-1.1-2.1-2.3-4.5l-0.5,4.5l-0.1,1.1c0,0.2,0,0.2,0,0.3c-0.3,0-0.6,0-0.8,0l0-0.1
			l0.4-2.3l0.6-4.1C48.3,41.5,48.4,41,48.4,40.6"/>
	</g>
	<g>
		<path class="st0" d="M60.3,48.3c0.5,0,0.9-0.2,1.3-0.7c0.2-0.3,0.4-0.7,0.4-1.2c0-0.2,0-0.4,0-0.6c0-0.6-0.1-1.2-0.4-1.6
			c-0.3-0.5-0.7-0.8-1.3-0.8c-0.7,0-1.2,0.3-1.5,0.8c-0.3,0.5-0.4,1-0.4,1.7c0,0.6,0.1,1.2,0.4,1.6C59.3,48.1,59.7,48.3,60.3,48.3
			 M57.5,45.8c0-0.8,0.3-1.5,0.8-2c0.6-0.5,1.2-0.8,2.1-0.8c0.8,0,1.5,0.3,2,0.9c0.5,0.5,0.7,1.2,0.7,1.9c0,0.6-0.1,1.1-0.4,1.5
			c-0.5,0.9-1.3,1.3-2.5,1.3c-0.4,0-0.8-0.1-1.2-0.2c-0.3-0.1-0.6-0.4-0.9-0.7C57.8,47.3,57.5,46.6,57.5,45.8"/>
	</g>
	<g>
		<path class="st1" d="M60.2,48.8c-0.4,0-0.8-0.1-1.2-0.3c-0.3-0.2-0.6-0.4-0.9-0.7c-0.5-0.5-0.7-1.2-0.7-2.1c0-0.9,0.3-1.6,0.9-2.1
			c0.6-0.5,1.3-0.8,2.2-0.8c0.8,0,1.5,0.3,2.1,0.9c0.5,0.5,0.7,1.2,0.7,2c0,0.6-0.1,1.1-0.4,1.6C62.3,48.4,61.4,48.8,60.2,48.8z
			 M60.4,43.1c-0.8,0-1.5,0.2-2,0.7c-0.5,0.5-0.8,1.1-0.8,1.9c0,0.8,0.2,1.4,0.6,1.9c0.3,0.3,0.5,0.5,0.8,0.6
			c0.3,0.2,0.7,0.2,1.1,0.2c1.1,0,1.9-0.4,2.3-1.2c0.3-0.4,0.4-0.9,0.4-1.5c0-0.8-0.2-1.4-0.6-1.9C61.9,43.4,61.2,43.1,60.4,43.1z
			 M60.3,48.4c-0.6,0-1.1-0.3-1.5-0.8c-0.3-0.4-0.4-1-0.4-1.7c0-0.7,0.1-1.3,0.4-1.8c0.4-0.6,0.9-0.9,1.6-0.9c0.6,0,1.1,0.3,1.4,0.9
			c0.2,0.4,0.4,1,0.4,1.6c0,0.2,0,0.4,0,0.6c-0.1,0.6-0.2,1-0.5,1.3C61.3,48.2,60.9,48.4,60.3,48.4z M60.4,43.5
			c-0.6,0-1.1,0.3-1.4,0.8c-0.2,0.4-0.4,1-0.4,1.7c0,0.6,0.1,1.1,0.4,1.5c0.3,0.5,0.7,0.7,1.3,0.7c0.5,0,0.9-0.2,1.2-0.6
			c0.2-0.3,0.3-0.7,0.4-1.2c0-0.2,0-0.4,0-0.6c0-0.6-0.1-1.1-0.3-1.5C61.4,43.8,61,43.5,60.4,43.5z"/>
	</g>
	<g>
		<path class="st0" d="M60.3,48.3c0.5,0,0.9-0.2,1.3-0.7c0.2-0.3,0.4-0.7,0.4-1.2c0-0.2,0-0.4,0-0.6c0-0.6-0.1-1.1-0.4-1.6
			c-0.3-0.5-0.7-0.8-1.3-0.8c-0.7,0-1.2,0.3-1.5,0.8c-0.3,0.4-0.4,1-0.4,1.7c0,0.6,0.1,1.2,0.4,1.6C59.3,48,59.7,48.3,60.3,48.3
			 M57.6,45.8c0-0.8,0.3-1.5,0.8-2c0.5-0.5,1.2-0.8,2.1-0.8c0.8,0,1.5,0.3,2,0.9c0.4,0.5,0.7,1.1,0.7,1.9c0,0.6-0.1,1.1-0.4,1.5
			c-0.5,0.9-1.3,1.3-2.4,1.3c-0.4,0-0.8-0.1-1.2-0.2c-0.3-0.1-0.6-0.4-0.9-0.6C57.8,47.3,57.6,46.6,57.6,45.8"/>
	</g>
	<g>
		<path class="st0" d="M64.6,42l1-0.4c0,0.1,0,0.2,0,0.3l-0.1,1.4l1.2,0c0,0.1,0,0.3,0,0.5l-1.2,0c0,0.1,0,0.1,0,0.3l0,2.5
			c0,0.6,0,1,0.1,1.2c0.1,0.4,0.4,0.7,0.8,0.7c0.1,0,0.3,0,0.5-0.1v0.3c-0.3,0.1-0.6,0.2-1,0.2c0,0-0.2,0-0.5-0.1
			c-0.4-0.1-0.6-0.3-0.8-0.8c-0.1-0.2-0.1-0.5-0.1-0.9l0.1-2v-1.2l-0.8,0v-0.5l0.8,0c0-0.2,0-0.4,0-0.6C64.6,42.3,64.6,42.1,64.6,42
			"/>
	</g>
	<g>
		<path class="st1" d="M65.9,48.8c0,0-0.1,0-0.5-0.1c-0.4-0.1-0.7-0.4-0.9-0.8c-0.1-0.2-0.1-0.5-0.1-1l0.1-2v-1.1l-0.8,0v-0.7l0.8,0
			c0-0.1,0-0.3,0-0.5c0-0.3,0-0.5,0-0.6v-0.1l1.3-0.5v0.2c0,0.1,0,0.2,0,0.3l-0.1,1.3l1.3,0l0,0.2c0,0.1,0,0.2,0,0.4l0,0.1l-1.3,0
			c0,0,0,0.1,0,0.1l0,2.5c0,0.6,0,1,0.1,1.2c0.1,0.4,0.3,0.6,0.7,0.6c0,0,0.2,0,0.5-0.1l0.1,0v0.5l-0.1,0
			C66.6,48.7,66.3,48.8,65.9,48.8z M64.8,43.5v1.3l-0.1,2c0,0.4,0,0.7,0.1,0.9c0.1,0.4,0.3,0.6,0.7,0.7c0.4,0.1,0.5,0.1,0.5,0.1
			c0.3,0,0.6,0,0.8-0.1v0c-0.3,0-0.3,0.1-0.4,0.1c-0.5,0-0.8-0.3-1-0.8c-0.1-0.2-0.1-0.6-0.1-1.2l0-2.5c0-0.1,0-0.2,0-0.3l0-0.1
			l1.2,0c0-0.1,0-0.1,0-0.2l-1.2,0l0.1-1.5c0,0,0-0.1,0-0.1l-0.8,0.3c0,0.1,0,0.3,0,0.5c0,0.3,0,0.5,0,0.6v0.1l-0.8,0v0.2L64.8,43.5
			z"/>
	</g>
	<g>
		<path class="st0" d="M64.6,42l1-0.4c0,0.1,0,0.2,0,0.3l-0.1,1.4l1.2,0c0,0.1,0,0.3,0,0.5l-1.2,0c0,0.1,0,0.1,0,0.3l0,2.5
			c0,0.6,0,1,0.1,1.2c0.1,0.4,0.4,0.7,0.8,0.7c0.1,0,0.2,0,0.5-0.1v0.3c-0.3,0.1-0.6,0.2-1,0.2c0,0-0.2,0-0.5-0.1
			c-0.4-0.1-0.6-0.3-0.8-0.8c-0.1-0.2-0.1-0.5-0.1-0.9l0.1-2v-1.2l-0.8,0v-0.5l0.8,0c0-0.2,0-0.4,0-0.6C64.6,42.3,64.6,42.1,64.6,42
			"/>
	</g>
	<g>
		<path class="st0" d="M70.3,48.3c0.5,0,0.9-0.2,1.3-0.7c0.2-0.3,0.4-0.7,0.4-1.2c0-0.2,0-0.4,0-0.6c0-0.6-0.1-1.2-0.4-1.6
			c-0.3-0.5-0.7-0.8-1.3-0.8c-0.7,0-1.2,0.3-1.5,0.8c-0.3,0.5-0.4,1-0.4,1.7c0,0.6,0.1,1.2,0.4,1.6C69.2,48.1,69.7,48.3,70.3,48.3
			 M67.5,45.8c0-0.8,0.3-1.5,0.8-2c0.6-0.5,1.2-0.8,2.1-0.8c0.8,0,1.5,0.3,2,0.9c0.5,0.5,0.7,1.2,0.7,1.9c0,0.6-0.1,1.1-0.4,1.5
			c-0.5,0.9-1.3,1.3-2.5,1.3c-0.4,0-0.8-0.1-1.2-0.2c-0.3-0.1-0.6-0.4-0.9-0.7C67.7,47.3,67.5,46.6,67.5,45.8"/>
	</g>
	<g>
		<path class="st1" d="M70.2,48.8c-0.4,0-0.8-0.1-1.2-0.3c-0.3-0.2-0.6-0.4-0.9-0.7c-0.5-0.5-0.7-1.2-0.7-2.1c0-0.9,0.3-1.6,0.9-2.1
			c0.6-0.5,1.3-0.8,2.2-0.8c0.8,0,1.5,0.3,2.1,0.9c0.5,0.5,0.7,1.2,0.7,2c0,0.6-0.1,1.1-0.4,1.6C72.2,48.4,71.4,48.8,70.2,48.8z
			 M70.4,43.1c-0.8,0-1.5,0.2-2,0.7c-0.5,0.5-0.8,1.1-0.8,1.9c0,0.8,0.2,1.4,0.6,1.9c0.3,0.3,0.5,0.5,0.8,0.6
			c0.3,0.2,0.7,0.2,1.1,0.2c1.1,0,1.9-0.4,2.3-1.2c0.3-0.4,0.4-0.9,0.4-1.5c0-0.8-0.2-1.4-0.6-1.9C71.8,43.4,71.2,43.1,70.4,43.1z
			 M70.3,48.4c-0.6,0-1.1-0.3-1.5-0.8c-0.3-0.4-0.4-1-0.4-1.7c0-0.7,0.1-1.3,0.4-1.8c0.4-0.6,0.9-0.9,1.6-0.9c0.6,0,1.1,0.3,1.4,0.9
			c0.2,0.4,0.4,1,0.4,1.6c0,0.2,0,0.4,0,0.6c-0.1,0.6-0.2,1-0.5,1.3C71.3,48.2,70.8,48.4,70.3,48.4z M70.4,43.5
			c-0.6,0-1.1,0.3-1.4,0.8c-0.2,0.4-0.4,1-0.4,1.7c0,0.6,0.1,1.1,0.4,1.5c0.3,0.5,0.7,0.7,1.3,0.7c0.5,0,0.9-0.2,1.2-0.6
			c0.2-0.3,0.3-0.7,0.4-1.2c0-0.2,0-0.4,0-0.6c0-0.6-0.1-1.1-0.3-1.5C71.3,43.8,70.9,43.5,70.4,43.5z"/>
	</g>
	<g>
		<path class="st0" d="M70.3,48.3c0.5,0,0.9-0.2,1.3-0.7c0.2-0.3,0.4-0.7,0.4-1.2c0-0.2,0-0.4,0-0.6c0-0.6-0.1-1.1-0.4-1.6
			c-0.3-0.5-0.7-0.8-1.3-0.8c-0.7,0-1.2,0.3-1.5,0.8c-0.3,0.4-0.4,1-0.4,1.7c0,0.6,0.1,1.2,0.4,1.6C69.2,48,69.7,48.3,70.3,48.3
			 M67.5,45.8c0-0.8,0.3-1.5,0.8-2c0.5-0.5,1.2-0.8,2.1-0.8c0.8,0,1.5,0.3,2,0.9c0.4,0.5,0.7,1.1,0.7,1.9c0,0.6-0.1,1.1-0.4,1.5
			c-0.5,0.9-1.3,1.3-2.4,1.3c-0.4,0-0.8-0.1-1.2-0.2c-0.3-0.1-0.6-0.4-0.9-0.6C67.7,47.3,67.5,46.6,67.5,45.8"/>
	</g>
	<g>
		<path class="st0" d="M74.6,48.3l0-1.2l0-3.9l0.3,0c0.3,0,0.5,0,0.7,0l-0.1,0.8v0.3l0,0.1l0.1-0.1C76,43.4,76.4,43,77,43
			c0.1,0,0.2,0,0.4,0.1l-0.1,0.3v0.3l0,0.2V44l-0.1,0c0,0-0.1,0-0.1-0.1c-0.1-0.1-0.3-0.1-0.4-0.1c-0.3,0-0.6,0.1-0.7,0.3
			c-0.1,0.1-0.2,0.2-0.3,0.5c-0.1,0.3-0.2,0.7-0.2,1.3v1.4l0,1.2c-0.1,0-0.3,0-0.5,0c-0.1,0-0.3,0-0.4,0
			C74.6,48.5,74.6,48.4,74.6,48.3"/>
	</g>
	<g>
		<path class="st1" d="M75.6,48.7l-0.2,0c-0.2,0-0.5-0.1-0.9,0l-0.1,0v-0.1c0,0,0-0.1,0-0.1l0-1.4l0-4l0.4,0c0.2,0,0.5,0,0.6,0
			l0.2,0l-0.1,0.9c0.4-0.6,0.9-0.9,1.4-0.9c0.1,0,0.2,0,0.4,0.1l0.1,0l-0.1,0.4l0,0.2l0,0.2l0,0.2l-0.2,0.1l-0.1-0.1
			c0,0,0,0-0.1-0.1C76.9,44,76.8,44,76.6,44c-0.3,0-0.5,0.1-0.6,0.2c-0.1,0.1-0.2,0.2-0.3,0.4c-0.1,0.2-0.1,0.7-0.1,1.3v1.4
			L75.6,48.7z M74.7,43.3l0,3.8l0,1.4c0.3,0,0.5,0,0.7,0l0-1V46c0-0.6,0.1-1.1,0.2-1.4c0.2-0.3,0.3-0.4,0.3-0.5
			c0.2-0.2,0.5-0.3,0.8-0.3c0.2,0,0.3,0,0.5,0.1c0,0,0,0,0,0v0l0-0.2l0-0.3l0-0.2c-0.1,0-0.2,0-0.2,0c-0.5,0-0.9,0.3-1.3,1l-0.2,0.4
			l-0.1-0.4v-0.3l0-0.6c-0.2,0-0.4,0-0.6,0L74.7,43.3z"/>
	</g>
	<g>
		<path class="st0" d="M74.6,48.2l0-1.2l0-3.9l0.3,0c0.3,0,0.5,0,0.7,0l-0.1,0.8v0.3l0,0.1l0.1-0.1c0.4-0.7,0.9-1.1,1.4-1.1
			c0.1,0,0.2,0,0.4,0.1l-0.1,0.3v0.3l0,0.2V44l-0.1,0c0,0-0.1,0-0.1-0.1c-0.1-0.1-0.3-0.1-0.4-0.1c-0.3,0-0.6,0.1-0.7,0.3
			c-0.1,0.1-0.2,0.2-0.3,0.5c-0.1,0.3-0.1,0.7-0.1,1.3v1.4l0,1.2c-0.1,0-0.3,0-0.5,0c-0.1,0-0.3,0-0.4,0
			C74.6,48.5,74.6,48.4,74.6,48.2"/>
	</g>
	<g>
		<path class="st0" d="M88,43l1.5,4.4h0.1c0.1-0.4,0.3-0.9,0.4-1.3l1.6-5.3c0.1,0,0.3,0,0.4,0c0.1,0,0.3,0,0.4,0
			c-0.3,0.6-0.4,1.1-0.6,1.5l-2.2,6.3c-0.1,0-0.3,0-0.4,0c-0.1,0-0.3,0-0.4,0c0,0,0-0.1-0.1-0.3l-2-6.1l-2.2,6.4c-0.2,0-0.5,0-0.8,0
			c-0.1-0.3-0.2-0.8-0.4-1.5l-2-6.3c0,0,0.2,0,0.3,0c0.1,0,0.2,0,0.3,0c0.1,0,0.2,0,0.3,0c0.1,0,0.2,0,0.3,0
			c0.1,0.3,0.2,0.7,0.3,1.2l0.7,2.3l1,3h0.1l1.4-4.2c0.1-0.3,0.2-0.6,0.3-1c0.1-0.3,0.2-0.7,0.4-1.3l0-0.1c0.3,0.1,0.5,0.1,0.7,0
			c0,0.1,0.1,0.2,0.1,0.3L88,43z"/>
	</g>
	<g>
		<path class="st1" d="M89.7,48.7l-0.1,0c-0.2,0-0.5,0-0.7,0l-0.1,0l0-0.1c0,0,0-0.1-0.1-0.3l-1.9-5.8l-2.2,6.1l-0.1,0
			c-0.2,0-0.5,0-0.8,0l-0.1,0l-0.5-1.6L81,40.6h0.2c0,0,0.2,0,0.3,0c0.2,0,0.3,0,0.5,0c0.1,0,0.2,0,0.3,0h0.1l0,0.1
			c0.1,0.3,0.2,0.7,0.3,1.2l0.7,2.3l0.9,2.8l1.7-4.9c0.1-0.3,0.2-0.7,0.4-1.3l0-0.2l0.1,0c0.3,0,0.5,0.1,0.7,0l0.1,0l0.1,0.4
			l0.6,1.9l1.4,4.1c0.1-0.4,0.2-0.7,0.3-1.1l1.6-5.4l0.1,0c0.2,0.1,0.5,0.1,0.7,0l0.2-0.1l-0.1,0.2c-0.2,0.6-0.4,1.1-0.6,1.5
			L89.7,48.7z M81.4,40.9l2.4,7.6c0.2,0,0.4,0,0.6,0l2.3-6.6l2.1,6.5c0,0.1,0,0.1,0.1,0.2c0.2,0,0.4,0,0.6,0l2.1-6.2
			c0.1-0.3,0.3-0.8,0.5-1.3c-0.2,0-0.3,0-0.5,0l-1.6,5.2c-0.1,0.4-0.3,0.9-0.4,1.3l0,0.1h-0.3L87.9,43l-0.7-2.1c-0.2,0-0.4,0-0.6,0
			c-0.2,0.6-0.3,1-0.4,1.3l-0.3,1l-1.4,4.3h-0.3l-1-3.1L82.6,42c-0.1-0.5-0.2-0.9-0.3-1.1c0,0-0.1,0-0.1,0c-0.2,0-0.3,0-0.6,0
			C81.5,40.9,81.4,40.9,81.4,40.9z"/>
	</g>
	<g>
		<path class="st0" d="M88,43l1.5,4.3h0.1c0.1-0.4,0.3-0.9,0.4-1.3l1.6-5.2c0.1,0,0.3,0,0.4,0c0.1,0,0.3,0,0.4,0
			c-0.3,0.6-0.4,1.1-0.6,1.5l-2.2,6.3c-0.1,0-0.3,0-0.4,0c-0.1,0-0.3,0-0.4,0c0,0,0-0.1-0.1-0.3l-2-6.1l-2.2,6.4c-0.2,0-0.5,0-0.8,0
			c-0.1-0.3-0.2-0.8-0.4-1.5l-2-6.3c0,0,0.2,0,0.3,0c0.1,0,0.2,0,0.3,0c0.1,0,0.2,0,0.3,0c0.1,0,0.2,0,0.3,0
			c0.1,0.3,0.2,0.7,0.3,1.2l0.7,2.3l1,3h0.1l1.4-4.2c0.1-0.3,0.2-0.6,0.3-1c0.1-0.3,0.2-0.7,0.4-1.3l0-0.1c0.3,0.1,0.5,0.1,0.7,0
			c0,0.1,0.1,0.2,0.1,0.3L88,43z"/>
	</g>
	<g>
		<path class="st0" d="M95.9,48.3c0.5,0,0.9-0.2,1.3-0.7c0.2-0.3,0.4-0.7,0.4-1.2c0-0.2,0-0.4,0-0.6c0-0.6-0.1-1.2-0.4-1.6
			c-0.3-0.5-0.7-0.8-1.3-0.8c-0.7,0-1.2,0.3-1.5,0.8c-0.3,0.5-0.4,1-0.4,1.7c0,0.6,0.1,1.2,0.4,1.6C94.8,48.1,95.3,48.3,95.9,48.3
			 M93.1,45.8c0-0.8,0.3-1.5,0.8-2c0.6-0.5,1.2-0.8,2.1-0.8c0.8,0,1.5,0.3,2,0.9c0.5,0.5,0.7,1.2,0.7,1.9c0,0.6-0.1,1.1-0.4,1.5
			c-0.5,0.9-1.3,1.3-2.5,1.3c-0.4,0-0.8-0.1-1.2-0.2c-0.3-0.1-0.6-0.4-0.9-0.7C93.3,47.3,93.1,46.6,93.1,45.8"/>
	</g>
	<g>
		<path class="st1" d="M95.8,48.8c-0.4,0-0.8-0.1-1.2-0.3c-0.3-0.2-0.6-0.4-0.9-0.7c-0.5-0.5-0.7-1.2-0.7-2.1c0-0.9,0.3-1.6,0.9-2.1
			c0.6-0.5,1.3-0.8,2.2-0.8c0.8,0,1.5,0.3,2.1,0.9c0.5,0.5,0.7,1.2,0.7,2c0,0.6-0.1,1.1-0.4,1.6C97.8,48.4,96.9,48.8,95.8,48.8z
			 M96,43.1c-0.8,0-1.5,0.2-2,0.7c-0.5,0.5-0.8,1.1-0.8,1.9c0,0.8,0.2,1.4,0.6,1.9c0.3,0.3,0.5,0.5,0.8,0.6c0.3,0.2,0.7,0.2,1.1,0.2
			c1.1,0,1.9-0.4,2.3-1.2c0.3-0.4,0.4-0.9,0.4-1.5c0-0.8-0.2-1.4-0.6-1.9C97.4,43.4,96.8,43.1,96,43.1z M95.9,48.4
			c-0.6,0-1.1-0.3-1.5-0.8c-0.3-0.4-0.4-1-0.4-1.7c0-0.7,0.1-1.3,0.4-1.8c0.4-0.6,0.9-0.9,1.6-0.9c0.6,0,1.1,0.3,1.4,0.9
			c0.2,0.4,0.4,1,0.4,1.6c0,0.2,0,0.4,0,0.6c-0.1,0.6-0.2,1-0.5,1.3C96.9,48.2,96.4,48.4,95.9,48.4z M96,43.5
			c-0.6,0-1.1,0.3-1.4,0.8c-0.2,0.4-0.4,1-0.4,1.7c0,0.6,0.1,1.1,0.4,1.5c0.3,0.5,0.7,0.7,1.3,0.7c0.5,0,0.9-0.2,1.2-0.6
			c0.2-0.3,0.3-0.7,0.4-1.2c0-0.2,0-0.4,0-0.6c0-0.6-0.1-1.1-0.3-1.5C96.9,43.8,96.5,43.5,96,43.5z"/>
	</g>
	<g>
		<path class="st0" d="M95.9,48.3c0.5,0,0.9-0.2,1.3-0.7c0.2-0.3,0.4-0.7,0.4-1.2c0-0.2,0-0.4,0-0.6c0-0.6-0.1-1.1-0.4-1.6
			c-0.3-0.5-0.7-0.8-1.3-0.8c-0.7,0-1.2,0.3-1.5,0.8c-0.3,0.4-0.4,1-0.4,1.7c0,0.6,0.1,1.2,0.4,1.6C94.8,48,95.3,48.3,95.9,48.3
			 M93.1,45.8c0-0.8,0.3-1.5,0.8-2c0.5-0.5,1.2-0.8,2.1-0.8c0.8,0,1.5,0.3,2,0.9c0.4,0.5,0.7,1.1,0.7,1.9c0,0.6-0.1,1.1-0.4,1.5
			c-0.5,0.9-1.3,1.3-2.4,1.3c-0.4,0-0.8-0.1-1.2-0.2c-0.3-0.1-0.6-0.4-0.9-0.6C93.3,47.3,93.1,46.6,93.1,45.8"/>
	</g>
	<g>
		<path class="st0" d="M100.1,48.3l0-1.2l0-3.9l0.3,0c0.3,0,0.5,0,0.7,0l-0.1,0.8v0.3l0,0.1l0.1-0.1c0.4-0.7,0.9-1.1,1.4-1.1
			c0.1,0,0.2,0,0.4,0.1l-0.1,0.3v0.3l0,0.2V44l-0.1,0c0,0-0.1,0-0.1-0.1c-0.1-0.1-0.3-0.1-0.4-0.1c-0.3,0-0.6,0.1-0.7,0.3
			c-0.1,0.1-0.2,0.2-0.3,0.5c-0.1,0.3-0.2,0.7-0.2,1.3v1.4l0,1.2c-0.1,0-0.3,0-0.5,0c-0.1,0-0.3,0-0.4,0
			C100.1,48.5,100.1,48.4,100.1,48.3"/>
	</g>
	<g>
		<path class="st1" d="M101.2,48.7l-0.2,0c-0.2,0-0.5-0.1-0.9,0l-0.1,0v-0.1c0,0,0-0.1,0-0.3l0-1.2l0-4l0.4,0c0.2,0,0.5,0,0.6,0
			l0.2,0l-0.1,0.9c0.4-0.6,0.9-0.9,1.4-0.9c0.1,0,0.2,0,0.4,0.1l0.1,0l-0.1,0.4l0,0.2l0,0.2l0,0.2l-0.2,0.1l-0.1-0.1
			c0,0,0,0-0.1-0.1c-0.1-0.1-0.2-0.1-0.4-0.1c-0.3,0-0.5,0.1-0.6,0.2c-0.1,0.1-0.2,0.2-0.3,0.4c-0.1,0.2-0.1,0.7-0.1,1.3v1.4
			L101.2,48.7z M100.3,43.3l0,3.8l0,1.2c0,0.1,0,0.1,0,0.2c0.3,0,0.5,0,0.7,0l0-1V46c0-0.6,0.1-1.1,0.2-1.4c0.2-0.3,0.3-0.4,0.3-0.5
			c0.2-0.2,0.5-0.3,0.8-0.3c0.2,0,0.3,0,0.5,0.1c0,0,0,0,0,0v0l0-0.2l0-0.3l0-0.2c-0.1,0-0.2,0-0.2,0c-0.5,0-0.9,0.3-1.3,1l-0.2,0.4
			l-0.1-0.4v-0.3l0-0.6c-0.2,0-0.4,0-0.6,0L100.3,43.3z"/>
	</g>
	<g>
		<path class="st0" d="M100.2,48.2l0-1.2l0-3.9l0.3,0c0.3,0,0.5,0,0.7,0l-0.1,0.8v0.3l0,0.1l0.1-0.1c0.4-0.7,0.9-1.1,1.4-1.1
			c0.1,0,0.2,0,0.4,0.1l-0.1,0.3v0.3l0,0.2V44l-0.1,0c0,0-0.1,0-0.1-0.1c-0.1-0.1-0.3-0.1-0.4-0.1c-0.3,0-0.6,0.1-0.7,0.3
			c-0.1,0.1-0.2,0.2-0.3,0.5c-0.1,0.3-0.1,0.7-0.1,1.3v1.4l0,1.2c-0.1,0-0.3,0-0.5,0c-0.1,0-0.3,0-0.4,0
			C100.2,48.5,100.2,48.4,100.2,48.2"/>
	</g>
	<g>
		<path class="st0" d="M104.1,48.3l0-0.9l0.1-4.3l-0.1-3l0.1,0c0.1,0,0.3,0,0.7,0c0,0,0.1,0,0.1,0c0,0,0.1,0,0.1,0c0,0,0,0.1,0,0.3
			l-0.1,2v2.8c0,0.2,0,0.3,0.1,0.4c0,0,0,0,0.1,0c0.2,0,0.5-0.2,0.9-0.7l0.7-0.7l0.9-1l0.1,0l0.3,0c0.2,0,0.4,0,0.6,0v0.1
			c-0.6,0.5-1,0.9-1.4,1.1l-0.4,0.3l-0.8,0.7c0.3,0.3,0.7,0.8,1.3,1.5l0.5,0.6l0.5,0.6l0.3,0.4v0.1c-0.1,0-0.3,0-0.6,0
			c-0.3,0-0.5,0-0.6,0c-0.3-0.3-0.5-0.6-0.6-0.8l-0.4-0.4l-0.6-0.7l-0.6-0.7c-0.1,0-0.1-0.1-0.2-0.2c-0.1,0-0.2,0-0.2,0
			c0,0,0,0.2,0,0.5v1.1l0,0.9v0.3l-0.1,0l-0.3,0c-0.3,0-0.5,0-0.6,0C104.1,48.4,104.1,48.3,104.1,48.3"/>
	</g>
	<g>
		<path class="st1" d="M104,48.7v-0.2c0-0.1,0-0.2,0-0.3l0-0.9l0.1-4.3l-0.1-3.2l0.3,0.1c0.1,0,0.2,0,0.6,0l0,0c0,0,0,0,0,0
			c0.1,0,0.1,0,0.2,0c0,0,0.1,0.1,0.1,0.1c0,0,0,0,0,0.1l-0.1,2.2v2.8c0,0.1,0,0.2,0,0.3c0.1,0,0.3-0.1,0.8-0.6l0.7-0.7l0.9-1l0.4,0
			c0.2,0,0.4,0,0.5,0l0.1,0v0.3l0,0c-0.5,0.4-0.9,0.7-1.2,1l-0.6,0.5l-0.7,0.6c0.3,0.3,0.7,0.8,1.2,1.4l1.1,1.2l0.4,0.5v0.3l-0.1,0
			c-0.1,0-0.3,0-0.5,0c-0.3,0-0.5,0-0.6,0l-0.1,0l0-0.1c-0.2-0.3-0.5-0.6-0.6-0.8l-0.4-0.4l-0.6-0.7l-0.6-0.6c0,0-0.1-0.1-0.2-0.2
			c0,0,0,0,0,0c0,0.1,0,0.2,0,0.4v1.1l0,1.4l-0.5-0.1c-0.4,0-0.5,0-0.6,0L104,48.7z M105.1,45.6c0.1,0,0.1,0,0.2,0l0,0l0,0
			c0.1,0.1,0.2,0.2,0.2,0.2l0.6,0.7l0.6,0.7l0.4,0.4c0.1,0.2,0.3,0.4,0.6,0.7c0.1,0,0.3,0,0.6,0c0.1,0,0.2,0,0.3,0l-0.2-0.3
			l-1.1-1.2c-0.6-0.7-1-1.2-1.3-1.5l-0.1-0.1l0.9-0.8l0.6-0.5c0.3-0.2,0.6-0.5,1-0.8c-0.1,0-0.2,0-0.3,0l-0.3,0l-0.9,0.9l-0.7,0.7
			C105.6,45.6,105.3,45.6,105.1,45.6C105.2,45.6,105.1,45.6,105.1,45.6L105.1,45.6l-0.1-0.1c-0.1-0.1-0.1-0.2-0.1-0.4v-2.8l0.1-2.2
			c0,0,0,0-0.1,0c-0.3,0-0.5,0-0.6,0l0.1,2.9l-0.1,4.3l0,0.9c0,0,0,0.1,0,0.1c0.1,0,0.3,0,0.5,0l0.2,0v-0.2l0-0.9v-1.1
			c0-0.4,0-0.5,0-0.5l0,0l0,0C105,45.7,105.1,45.6,105.1,45.6z"/>
	</g>
	<g>
		<path class="st0" d="M104.1,48.2l0-0.9l0.1-4.3l-0.1-3l0.1,0c0.1,0,0.3,0,0.7,0c0,0,0.1,0,0.1,0c0,0,0.1,0,0.1,0c0,0,0,0.1,0,0.3
			l-0.1,2v2.7c0,0.2,0,0.3,0.1,0.4c0,0,0,0,0.1,0c0.2,0,0.5-0.2,0.9-0.7l0.7-0.7l0.9-0.9l0.1,0l0.3,0c0.2,0,0.4,0,0.5,0v0.1
			c-0.6,0.5-1,0.9-1.4,1.1l-0.4,0.3l-0.8,0.7c0.3,0.3,0.7,0.8,1.3,1.5l0.5,0.6l0.5,0.6l0.3,0.4v0.1c-0.1,0-0.3,0-0.6,0
			c-0.3,0-0.5,0-0.6,0c-0.3-0.3-0.5-0.6-0.6-0.8l-0.4-0.4l-0.6-0.7l-0.6-0.6c-0.1,0-0.1-0.1-0.2-0.2c-0.1,0-0.2,0-0.2,0
			c0,0,0,0.2,0,0.5v1.1l0,0.9v0.3l-0.1,0l-0.3,0c-0.3,0-0.5,0-0.6,0C104.1,48.4,104.1,48.3,104.1,48.2"/>
	</g>
	<g>
		<path class="st0" d="M109.9,47.5L109.9,47.5c0.4,0.5,0.9,0.8,1.4,0.8c0.3,0,0.6-0.1,0.8-0.3c0.2-0.2,0.3-0.4,0.3-0.7
			c0-0.3-0.1-0.6-0.4-0.8c-0.1-0.1-0.4-0.2-0.9-0.3c-0.2-0.1-0.4-0.1-0.5-0.2c-0.2-0.1-0.3-0.2-0.4-0.3c-0.3-0.3-0.5-0.6-0.5-1
			c0-0.5,0.2-1,0.6-1.3c0.3-0.3,0.8-0.4,1.3-0.4c0.5,0,0.9,0.1,1.3,0.3c-0.1,0.3-0.2,0.5-0.3,0.8h-0.1c-0.1-0.2-0.2-0.4-0.4-0.5
			c-0.2-0.1-0.4-0.2-0.6-0.2c-0.3,0-0.5,0.1-0.7,0.2c-0.2,0.2-0.3,0.4-0.3,0.7c0,0.3,0.1,0.6,0.3,0.7c0.2,0.1,0.4,0.2,0.8,0.3
			c0.6,0.1,0.9,0.3,1,0.4c0.4,0.3,0.6,0.7,0.6,1.1c0,0.6-0.3,1.1-0.9,1.5c-0.3,0.2-0.7,0.3-1.2,0.3c-0.6,0-1-0.1-1.4-0.4
			C109.7,48.1,109.8,47.9,109.9,47.5"/>
	</g>
	<g>
		<path class="st1" d="M111.1,48.8c-0.6,0-1.1-0.1-1.5-0.4l-0.1-0.1l0-0.1c0.1-0.2,0.1-0.4,0.2-0.8l0-0.1h0.3l0,0.1
			c0.3,0.5,0.7,0.8,1.2,0.8c0.3,0,0.5-0.1,0.7-0.3c0.2-0.2,0.3-0.4,0.3-0.6c0-0.3-0.1-0.5-0.4-0.7c-0.1,0-0.3-0.1-0.9-0.3
			c-0.2-0.1-0.4-0.1-0.5-0.2c-0.2-0.1-0.3-0.2-0.5-0.3c-0.3-0.3-0.5-0.7-0.5-1.1c0-0.6,0.2-1,0.6-1.4c0.4-0.3,0.8-0.5,1.4-0.5
			c0.5,0,0.9,0.1,1.4,0.3l0.1,0.1l0,0.1c-0.1,0.3-0.2,0.5-0.3,0.8l0,0.1h-0.3l0-0.1c-0.1-0.2-0.2-0.3-0.4-0.5
			c-0.2-0.1-0.3-0.2-0.5-0.2c-0.3,0-0.5,0.1-0.7,0.2c-0.2,0.1-0.2,0.3-0.2,0.6c0,0.3,0.1,0.5,0.3,0.6c0.1,0.1,0.4,0.2,0.7,0.3
			c0.6,0.2,0.9,0.3,1.1,0.4c0.4,0.3,0.6,0.7,0.6,1.2c0,0.7-0.3,1.2-1,1.6C112,48.7,111.6,48.8,111.1,48.8z M109.8,48.3
			c0.4,0.2,0.8,0.3,1.3,0.3s0.9-0.1,1.1-0.3c0.6-0.4,0.9-0.8,0.9-1.4c0-0.4-0.2-0.7-0.5-1c-0.1-0.1-0.3-0.2-1-0.4
			c-0.4-0.1-0.6-0.2-0.8-0.3c-0.3-0.2-0.4-0.5-0.4-0.8c0-0.3,0.1-0.6,0.3-0.8c0.2-0.2,0.5-0.3,0.8-0.3c0.2,0,0.5,0.1,0.7,0.2
			c0.1,0.1,0.3,0.2,0.3,0.4c0.1-0.2,0.1-0.4,0.2-0.5c-0.4-0.2-0.7-0.2-1.1-0.2c-0.5,0-0.9,0.1-1.2,0.4c-0.3,0.3-0.5,0.7-0.5,1.2
			c0,0.4,0.1,0.7,0.4,0.9c0.1,0.1,0.2,0.2,0.4,0.2c0.1,0,0.2,0.1,0.5,0.2c0.7,0.2,0.8,0.3,0.9,0.3c0.3,0.2,0.5,0.5,0.5,0.9
			c0,0.3-0.1,0.6-0.4,0.8c-0.2,0.2-0.5,0.3-0.9,0.3c-0.5,0-1-0.2-1.3-0.7C109.9,47.9,109.8,48.1,109.8,48.3z"/>
	</g>
	<g>
		<path class="st0" d="M109.9,47.5L109.9,47.5c0.4,0.5,0.9,0.8,1.4,0.8c0.3,0,0.6-0.1,0.8-0.3c0.2-0.2,0.3-0.4,0.3-0.7
			c0-0.3-0.1-0.6-0.4-0.8c-0.1-0.1-0.4-0.2-0.9-0.3c-0.2-0.1-0.4-0.1-0.5-0.2c-0.2-0.1-0.3-0.2-0.4-0.3c-0.3-0.3-0.5-0.6-0.5-1
			c0-0.5,0.2-0.9,0.5-1.3c0.3-0.3,0.8-0.4,1.3-0.4c0.5,0,0.9,0.1,1.3,0.3c-0.1,0.3-0.2,0.5-0.3,0.8h-0.1c-0.1-0.2-0.2-0.4-0.4-0.5
			c-0.2-0.1-0.4-0.2-0.6-0.2c-0.3,0-0.5,0.1-0.7,0.2c-0.2,0.2-0.3,0.4-0.3,0.7c0,0.3,0.1,0.5,0.3,0.7c0.2,0.1,0.4,0.2,0.8,0.3
			c0.5,0.1,0.9,0.3,1,0.4c0.4,0.3,0.6,0.7,0.6,1.1c0,0.6-0.3,1.1-0.9,1.5c-0.3,0.2-0.7,0.3-1.2,0.3c-0.5,0-1-0.1-1.4-0.4
			C109.7,48.1,109.8,47.8,109.9,47.5"/>
	</g>
	<g>
		<path class="st2" d="M6.5,5c0,0-5.7-0.1-6.1,4.9v21.6c0,0,0,5.1,7.2,5.3h20.7V18.2H14.8v6.2h0.6v10.1c0,0,0.1,0.6-0.8,0.6
			c-0.9,0-1-0.7-1-0.7v-28c0,0,0-0.6,0.9-0.6c0.9,0,0.9,0.7,0.9,0.7v10.3h12.9v-6.7c0,0,0.1-5.2-6.3-5.2L6.5,5z"/>
	</g>
	<g>
		<path class="st2" d="M6.4,4.9c0,0-5.8-0.1-6.2,4.9v21.7c0,0,0,5.1,7.3,5.3h20.8V18.2H14.8v6.2h0.6v10.1c0,0,0.1,0.6-0.8,0.6
			c-0.9,0-1-0.7-1-0.7V6.4c0,0,0-0.6,0.9-0.6c0.9,0,0.9,0.7,0.9,0.7v10.3h12.9v-6.7c0,0,0.1-5.2-6.3-5.3L6.4,4.9z"/>
	</g>
	<g>
		<path class="st2" d="M31.6,5v31.7h12.1V7c0,0-0.1-0.7,0.8-0.7c0,0,0.9-0.1,0.9,0.7v29.7h11.7V7c0,0,0-0.7,0.8-0.7
			c0,0,0.7,0,0.7,0.7v29.7h12.2V12.2c0,0,0.9-7.1-6.4-7.3H31.6z"/>
	</g>
	<g>
		<path class="st2" d="M31.5,4.9v31.9h12.2V7c0,0-0.1-0.7,0.9-0.7c0,0,0.9-0.1,0.9,0.7v29.8h11.8V7c0,0,0-0.7,0.8-0.7
			c0,0,0.7,0,0.7,0.7v29.8h12.2V12.2c0,0,0.9-7.1-6.5-7.3H31.5z"/>
	</g>
	<g>
		<path class="st2" d="M113.4,36.7V5h-12.1v29.7c0,0,0.1,0.7-0.8,0.7c0,0-0.9,0.1-0.9-0.7V5H87.8v29.7c0,0,0,0.7-0.8,0.7
			c0,0-0.7,0-0.7-0.7V5H74.1v24.5c0,0-0.9,7.1,6.4,7.3H113.4z"/>
	</g>
	<g>
		<path class="st2" d="M113.5,36.8V4.9h-12.2v29.8c0,0,0.1,0.7-0.8,0.7c0,0-0.9,0.1-0.9-0.7V4.9H87.8v29.8c0,0,0,0.7-0.8,0.7
			c0,0-0.7,0-0.7-0.7V4.9H74.1v24.6c0,0-0.9,7.1,6.5,7.3H113.5z"/>
	</g>
	<g>
		<path class="st2" d="M116.4,3h0.2c0.5,0,0.8-0.2,0.8-0.5c0-0.3-0.3-0.5-0.8-0.5h-0.2V3z M117.1,3.4l1.2,1.4h-0.7l-1.1-1.3h-0.1
			v1.3h-0.6V1.5h0.7c0.5,0,0.9,0.1,1.1,0.2c0.2,0.2,0.4,0.4,0.4,0.7c0,0.2-0.1,0.4-0.2,0.6C117.6,3.2,117.4,3.3,117.1,3.4"/>
	</g>
	<g>
		<path class="st2" d="M116.4,3h0.2c0.5,0,0.8-0.2,0.8-0.5c0-0.3-0.3-0.5-0.8-0.5h-0.2V3z M117.1,3.4l1.2,1.4h-0.7l-1.1-1.3h-0.1
			v1.3h-0.6V1.5h0.7c0.5,0,0.9,0.1,1.1,0.2c0.2,0.2,0.4,0.4,0.4,0.7c0,0.2-0.1,0.4-0.2,0.6C117.6,3.2,117.4,3.3,117.1,3.4"/>
	</g>
</g>
<g>
	<path class="st2" d="M116.9,6.5c-1.8,0-3.2-1.5-3.2-3.2s1.5-3.2,3.2-3.2c1.8,0,3.2,1.5,3.2,3.2S118.6,6.5,116.9,6.5z M116.9,0.5
		c-1.5,0-2.7,1.2-2.7,2.7s1.2,2.7,2.7,2.7s2.7-1.2,2.7-2.7S118.4,0.5,116.9,0.5z"/>
</g>
</svg>
