<?xml version="1.0" encoding="UTF-8" standalone="no"?> <svg xmlns="http://www.w3.org/2000/svg" xmlns:xlink="http://www.w3.org/1999/xlink" xmlns:serif="http://www.serif.com/" width="100%" height="100%" viewBox="0 0 147 44" xml:space="preserve" style="fill-rule:evenodd;clip-rule:evenodd;stroke-linejoin:round;stroke-miterlimit:2;"><g><path d="M52.605,32.223l-6.907,0l-8.226,-27.392l6.828,0l5.51,19.566l5.67,-19.566l5.391,0l-8.266,27.392Z" style="fill:#fff;"></path><path d="M72.415,19.605c-0.119,-2.196 -0.838,-4.233 -3.394,-4.233c-2.595,0 -3.594,1.917 -3.794,4.233l7.188,0Zm-7.147,3.474l-0.041,0.998c0,2.396 1.358,4.353 3.914,4.353c1.797,0 3.594,-1.318 3.594,-3.195l5.43,0.4c0,0.998 -2.356,6.987 -9.224,6.987c-6.069,0 -10.022,-4.232 -10.022,-10.262c0,-5.989 3.554,-10.821 9.863,-10.821c2.835,0 5.75,1.278 7.427,3.594c1.677,2.316 2.116,5.191 2.076,7.946l-13.017,0Z" style="fill:#fff;"></path><path d="M85.819,11.939l0,3.793l0.079,0c0.6,-2.156 1.797,-4.392 4.353,-4.193l0.998,0.08l0,5.87c-4.472,-0.24 -5.031,3.394 -5.031,6.988l0,7.746l-5.87,0l0,-20.284l5.471,0Z" style="fill:#fff;"></path><path d="M98.867,12l0,3.434l0.08,0c1.198,-2.595 2.875,-3.833 5.83,-3.833c1.917,0 3.793,0.599 4.991,2.236c1.118,1.517 1.118,4.073 1.118,5.91l0,12.538l-5.87,0l0,-10.901c0,-2.076 0.279,-5.111 -2.675,-5.111c-1.038,0 -1.997,0.599 -2.476,1.517c-0.599,1.158 -0.678,2.316 -0.678,3.594l0,10.901l-5.87,0l0,-20.285l5.55,0Z" style="fill:#fff;"></path><path d="M126.318,19.605c-0.12,-2.196 -0.839,-4.233 -3.394,-4.233c-2.596,0 -3.594,1.917 -3.794,4.233l7.188,0Zm-7.148,3.474l-0.04,0.998c0,2.396 1.358,4.353 3.914,4.353c1.796,0 3.593,-1.318 3.593,-3.195l5.431,0.4c0,0.998 -2.356,6.987 -9.224,6.987c-6.07,0 -10.023,-4.232 -10.023,-10.262c0,-5.989 3.554,-10.821 9.863,-10.821c2.835,0 5.75,1.278 7.427,3.594c1.677,2.316 2.116,5.191 2.077,7.946l-13.018,0Z" style="fill:#fff;"></path><path d="M132.588,16.57l0,-4.672l3.553,0l0.519,-5.949l5.111,-0.399l0,6.348l4.353,0l0,4.672l-4.353,0l0,8.066c0,2.356 0,3.315 2.835,3.195l1.838,-0.08l0,4.432l-0.4,0.08c-1.118,0.16 -2.196,0.359 -3.274,0.359c-1.678,0 -3.913,-0.239 -5.231,-1.317c-1.637,-1.358 -1.637,-3.794 -1.637,-5.79l0,-8.945l-3.314,0Z" style="fill:#fff;"></path><path d="M27.043,30.569c0.056,-0.229 0.411,-0.618 0.863,-0.618c0.453,0 1.056,0.014 1.207,-0.255c0.15,-0.267 -0.138,-0.549 -0.275,-0.631c-0.137,-0.08 -1.424,-0.804 -1.671,-1.085c-0.246,-0.282 -0.356,-0.618 -0.356,-1.529c0,-0.913 -0.438,-1.235 -1.041,-1.449c-0.603,-0.215 -0.945,0.563 -1.232,0.858c-0.289,0.295 -0.525,1.378 -0.937,1.606c-0.176,0.098 -0.428,0.145 -0.588,0.268c-0.16,0.122 -0.162,0.327 -0.26,0.617c-0.039,0.114 -0.375,0.346 -0.561,0.31c0.434,0.785 0.68,1.681 0.68,2.62c0,0.552 -0.082,1.097 -0.247,1.622c-0.061,0.193 -0.006,0.404 0.142,0.544c0.1,0.096 0.232,0.148 0.366,0.148c0.062,0 0.124,-0.012 0.184,-0.033c1.597,-0.587 3.067,-1.405 4.382,-2.403l-0.696,0c0,0 -0.014,-0.363 0.04,-0.59" style="fill:#fff;"></path><path d="M21.054,14.516c-0.086,-0.047 -0.21,-0.017 -0.371,0.088l-0.06,0.134c0.008,0.041 0.048,0.082 0.118,0.119c0.065,0.035 0.137,0.041 0.214,0.016c0.078,-0.024 0.131,-0.066 0.157,-0.125c0.049,-0.107 0.029,-0.184 -0.058,-0.232" style="fill:#fff;"></path><path d="M20.292,19.846c0.134,-0.034 0.287,-0.025 0.417,-0.077c0.158,-0.063 0.281,-0.074 0.433,-0.107c0.068,-0.015 0.141,-0.037 0.21,-0.061c0.041,-0.015 0.083,-0.032 0.124,-0.053l-0.012,-0.002c0.025,-0.01 0.05,-0.024 0.074,-0.044c-0.043,-0.02 -0.299,-0.359 -0.312,-0.51l-0.014,-0.288c-0.075,-0.327 0.092,-1.023 0.053,-1.365c-0.014,-0.115 -0.027,-0.231 -0.042,-0.345c-0.397,0.007 -0.937,0.002 -1.144,-0.071c-0.325,-0.115 -0.277,-0.703 -0.277,-0.703l0.221,-0.086c-0.055,0.005 -0.084,0.001 -0.221,-0.022c-0.141,-0.021 -0.204,-0.024 -0.339,-0.157c-0.239,-0.274 -0.217,-0.204 -0.198,-0.526c0.012,-0.176 0.379,-0.449 0.555,-0.625c0.206,-0.209 0.661,-0.387 0.785,-0.498c-0.125,-0.038 -0.253,-0.066 -0.385,-0.085l0.064,-0.144c0.123,-0.082 0.224,-0.126 0.302,-0.136c-0.01,-0.02 -0.024,-0.035 -0.041,-0.044c-0.011,-0.006 -0.042,-0.018 -0.094,-0.035c-0.053,-0.017 -0.101,-0.038 -0.145,-0.061l0.048,-0.108c0.237,-0.182 0.393,-0.278 0.472,-0.289c-0.128,-0.119 -0.223,-0.223 -0.285,-0.308c0.212,-0.041 0.363,-0.062 0.452,-0.066c-0.071,-0.083 -0.107,-0.18 -0.111,-0.293c0.133,0.02 0.216,0.013 0.25,-0.021c0.004,-0.02 0.005,-0.058 0.006,-0.113c0.001,-0.055 0,-0.093 -0.002,-0.118c0.037,0.006 0.078,0.021 0.121,0.044c0.026,0.015 0.061,0.037 0.102,0.066c0.042,0.024 0.075,0.042 0.097,0.053c-0.003,-0.098 -0.012,-0.162 -0.026,-0.191c0.165,-0.008 0.31,0.005 0.437,0.037c-0.044,-0.069 -0.066,-0.147 -0.066,-0.236c0.194,0.031 0.321,0.063 0.381,0.095c0.016,0.009 0.042,0.027 0.077,0.052c0.035,0.028 0.071,0.051 0.109,0.072c0.028,0.014 0.112,-0.008 0.256,-0.067c0.144,-0.059 0.227,-0.082 0.249,-0.071c0.065,0.036 0.161,0.188 0.29,0.457c0.076,-0.022 0.203,-0.02 0.378,0.007c0.176,0.028 0.313,0.068 0.41,0.121c0.124,0.067 0.333,0.262 0.627,0.583c0.252,0.28 0.44,0.648 0.566,1.101c0.069,-0.039 0.136,-0.081 0.202,-0.128l0.053,0.148c-0.033,0.144 -0.076,0.246 -0.125,0.307c0.021,0.008 0.041,0.009 0.059,0.004c0.012,-0.004 0.043,-0.017 0.093,-0.04c0.05,-0.024 0.099,-0.042 0.147,-0.055l0.039,0.112c-0.046,0.294 -0.093,0.472 -0.143,0.533c0.174,-0.001 0.315,0.009 0.419,0.028c-0.127,0.175 -0.22,0.295 -0.283,0.359c0.108,0.012 0.203,0.057 0.282,0.136c-0.109,0.076 -0.165,0.139 -0.167,0.187c0.012,0.017 0.037,0.046 0.074,0.087c0.037,0.04 0.064,0.067 0.083,0.083c-0.031,0.022 -0.071,0.039 -0.119,0.051c-0.029,0.009 -0.069,0.016 -0.119,0.023c-0.047,0.013 -0.082,0.022 -0.106,0.029c0.07,0.069 0.12,0.109 0.15,0.121c-0.114,0.119 -0.229,0.209 -0.342,0.274c0.078,0.019 0.149,0.06 0.21,0.125c-0.16,0.11 -0.273,0.173 -0.338,0.192c0,0.006 0,0.013 0,0.02c0,0 -0.168,0.687 0.202,1.737l0.001,0c0.218,0.427 0.654,0.924 1.12,1.459c0.484,0.556 0.849,0.717 1.19,0.817c0.104,0.016 0.258,0.043 0.443,0.085c0.403,0.092 0.594,0.101 0.729,0.131c0.054,0.012 0.215,0.071 0.409,0.203c0.2,0.135 0.268,0.202 0.365,0.29c0.079,0.071 0.121,0.126 0.192,0.237c0.42,-0.229 0.715,-0.556 0.884,-0.983c0.155,-0.394 0.171,-0.76 0.046,-1.095c-0.088,-0.243 -0.292,-0.649 -0.612,-1.218c-0.366,-0.65 -0.637,-1.165 -0.811,-1.548c-0.358,-0.804 -0.404,-1.559 -0.136,-2.268l0.017,-0.192c0.024,-0.161 0.125,-0.446 0.306,-0.855l0.392,-0.208c0.578,-0.111 0.774,-0.111 0.589,-0.002c-0.136,0.076 -0.214,0.133 -0.233,0.174c-0.018,0.04 0.023,0.036 0.125,-0.012c0.091,-0.04 0.255,-0.063 0.493,-0.069c0.095,-0.003 0.157,0.001 0.188,0.011c0.033,0.006 0.018,0.018 -0.047,0.035c-0.101,0.018 -0.09,0.049 0.034,0.088c0.117,0.042 0.137,0.068 0.058,0.079c-0.163,0.028 -0.445,0.124 -0.845,0.286c-0.155,0.066 -0.234,0.12 -0.238,0.161c-0.007,0.045 0.044,0.057 0.153,0.035c0.109,-0.028 0.178,-0.036 0.204,-0.026c0.03,0.014 -0.015,0.048 -0.136,0.098c-0.049,0.018 -0.266,0.075 -0.652,0.172c0.004,-0.003 -0.006,0 -0.028,0.012c-0.389,0.879 -0.31,1.803 0.238,2.773c0.185,0.328 0.408,0.683 0.669,1.065c0.279,0.416 0.451,0.676 0.515,0.78c0.295,0.501 0.418,1.04 0.368,1.62c-0.049,0.626 -0.438,1.16 -1.166,1.603c0.075,0.088 0.137,0.17 0.187,0.249c0.018,0.034 0.035,0.066 0.05,0.096c0.004,0.009 0.006,0.015 0.006,0.019c0.016,0.031 0.025,0.056 0.029,0.076c0.069,0.229 0.122,0.498 0.157,0.808l-0.023,0c0,0.028 0.001,0.055 0.001,0.083c0,0.939 -0.37,0.978 -0.753,1.918c-0.384,0.938 0.013,1.77 0.315,2.213c0.116,0.17 0.125,0.377 0.09,0.576c2.616,-3.031 4.156,-6.957 4.156,-11.121c0,-8.814 -6.607,-16.091 -15.37,-16.927c-0.149,-0.014 -0.298,0.035 -0.409,0.136c-0.111,0.101 -0.175,0.244 -0.175,0.394l0,18.884c0.461,-0.067 0.921,-0.135 1.379,-0.137c0.138,-0.02 0.267,-0.064 0.413,-0.1" style="fill:#fff;"></path><path d="M20.532,25.822c0.524,-0.175 0.856,0.044 1.073,0.357c0.324,0.468 0.662,0.726 0.856,0.715c0.353,-0.02 0.238,-0.448 0.262,-0.938c0.024,-0.492 -0.011,-1.095 0.184,-1.352c0.237,-0.314 0.636,-1.312 1.276,-1.49c0.443,-0.122 1.242,-0.003 1.821,0.288c0.568,0.286 0.711,1.185 0.711,1.185c0,0 0.019,-0.303 -0.187,-0.732c-0.205,-0.428 -0.649,-0.655 -1.466,-0.827c-0.799,-0.167 -1.109,0.075 -1.691,-0.045c-0.311,-0.064 -0.677,-0.747 -1.038,-1.352c-0.213,-0.002 -0.687,-0.045 -0.879,-0.087c-0.279,0.05 -0.544,-0.068 -0.818,-0.138c-0.185,-0.047 -0.369,-0.084 -0.554,-0.119c-0.281,-0.051 -0.505,-0.023 -0.785,0.116c-0.072,-0.032 -0.141,0.036 -0.215,0.022c-0.116,-0.02 -0.199,-0.147 -0.321,-0.25c-0.085,0.044 -0.173,-0.003 -0.26,-0.084l0,4.45c0,0.239 0.161,0.449 0.391,0.512c0.443,0.123 0.861,0.299 1.248,0.52c-0.077,-0.079 -0.121,-0.125 -0.121,-0.125c0,0 0.08,-0.481 0.513,-0.626" style="fill:#fff;"></path><path d="M12.239,28.351c-0.098,-0.29 -0.1,-0.494 -0.26,-0.617c-0.161,-0.123 -0.412,-0.17 -0.589,-0.268c-0.411,-0.229 -0.648,-1.311 -0.936,-1.606c-0.287,-0.295 -0.629,-1.073 -1.232,-0.858c-0.603,0.214 -1.041,0.536 -1.041,1.449c0,0.911 -0.11,1.247 -0.356,1.529c-0.247,0.281 -1.534,1.005 -1.671,1.085c-0.137,0.081 -0.425,0.364 -0.274,0.631c0.151,0.269 0.753,0.255 1.206,0.255c0.451,0 0.807,0.389 0.862,0.617c0.055,0.228 0.041,0.591 0.041,0.591l-0.789,0c1.314,0.998 2.785,1.815 4.382,2.403c0.06,0.021 0.122,0.033 0.183,0.033c0.135,0 0.268,-0.052 0.368,-0.147c0.147,-0.141 0.202,-0.352 0.141,-0.545c-0.165,-0.525 -0.248,-1.071 -0.248,-1.622c0,-0.939 0.247,-1.836 0.682,-2.621c-0.189,-0.031 -0.436,-0.212 -0.469,-0.309" style="fill:#fff;"></path><path d="M16.23,21.175c-0.121,0.103 -0.204,0.23 -0.32,0.25c-0.073,0.014 -0.144,-0.054 -0.215,-0.022c-0.28,-0.139 -0.504,-0.167 -0.785,-0.116c-0.185,0.035 -0.369,0.072 -0.554,0.119c-0.274,0.07 -0.539,0.188 -0.818,0.138c-0.192,0.042 -0.666,0.085 -0.88,0.087c-0.361,0.605 -0.725,1.288 -1.036,1.352c-0.584,0.12 -0.894,-0.122 -1.693,0.045c-0.817,0.172 -1.26,0.399 -1.465,0.827c-0.206,0.429 -0.187,0.732 -0.187,0.732c0,0 0.143,-0.899 0.711,-1.185c0.578,-0.291 1.378,-0.41 1.821,-0.288c0.64,0.179 1.04,1.176 1.277,1.49c0.194,0.257 0.159,0.86 0.183,1.352c0.024,0.49 -0.092,0.918 0.262,0.938c0.194,0.011 0.532,-0.247 0.856,-0.715c0.217,-0.313 0.549,-0.532 1.072,-0.357c0.434,0.145 0.514,0.626 0.514,0.626c0,0 -0.009,0.009 -0.026,0.027c0.334,-0.174 0.686,-0.319 1.059,-0.422c0.232,-0.063 0.392,-0.273 0.392,-0.512l0,-4.381c-0.056,0.032 -0.113,0.044 -0.168,0.015" style="fill:#fff;"></path><path d="M14.037,14.873c0.077,0.025 0.149,0.02 0.214,-0.016c0.07,-0.037 0.109,-0.078 0.118,-0.119l-0.06,-0.134c-0.161,-0.105 -0.285,-0.135 -0.372,-0.087c-0.086,0.047 -0.106,0.124 -0.058,0.231c0.027,0.059 0.079,0.101 0.158,0.125" style="fill:#fff;"></path><path d="M4.784,28.141c0.302,-0.443 0.699,-1.275 0.315,-2.213c-0.383,-0.94 -0.753,-0.98 -0.753,-1.918c0,-0.028 0.001,-0.055 0.002,-0.083l-0.023,0c0.034,-0.31 0.087,-0.579 0.157,-0.808c0.003,-0.02 0.013,-0.046 0.028,-0.076c0,-0.004 0.002,-0.01 0.006,-0.019c0.015,-0.03 0.032,-0.062 0.051,-0.097c0.049,-0.078 0.111,-0.16 0.187,-0.248c-0.73,-0.443 -1.119,-0.977 -1.167,-1.603c-0.051,-0.58 0.073,-1.119 0.367,-1.62c0.065,-0.104 0.237,-0.364 0.516,-0.78c0.261,-0.383 0.484,-0.737 0.668,-1.065c0.549,-0.97 0.628,-1.895 0.239,-2.773c-0.022,-0.012 -0.032,-0.015 -0.028,-0.012c-0.386,-0.097 -0.603,-0.154 -0.653,-0.172c-0.12,-0.05 -0.165,-0.084 -0.136,-0.098c0.027,-0.01 0.095,-0.002 0.205,0.026c0.109,0.022 0.161,0.01 0.152,-0.035c-0.003,-0.041 -0.082,-0.095 -0.237,-0.161c-0.401,-0.162 -0.682,-0.258 -0.845,-0.286c-0.079,-0.011 -0.06,-0.037 0.058,-0.079c0.124,-0.039 0.135,-0.07 0.033,-0.088c-0.064,-0.017 -0.079,-0.029 -0.045,-0.036c0.029,-0.009 0.092,-0.013 0.187,-0.01c0.237,0.006 0.402,0.029 0.492,0.069c0.103,0.048 0.144,0.052 0.126,0.011c-0.019,-0.04 -0.097,-0.097 -0.233,-0.173c-0.185,-0.109 0.012,-0.109 0.59,0.002l0.391,0.208c0.181,0.409 0.282,0.694 0.306,0.855l0.017,0.192c0.268,0.709 0.222,1.464 -0.136,2.268c-0.174,0.382 -0.445,0.898 -0.811,1.548c-0.321,0.568 -0.525,0.975 -0.612,1.218c-0.124,0.335 -0.109,0.701 0.046,1.095c0.169,0.427 0.464,0.754 0.883,0.983c0.072,-0.111 0.114,-0.166 0.193,-0.237c0.098,-0.088 0.165,-0.156 0.364,-0.29c0.195,-0.132 0.356,-0.192 0.41,-0.203c0.135,-0.031 0.325,-0.039 0.729,-0.131c0.186,-0.041 0.339,-0.069 0.443,-0.085c0.341,-0.1 0.707,-0.261 1.19,-0.817c0.465,-0.535 0.902,-1.032 1.119,-1.46l0.002,0c0.37,-1.049 0.201,-1.737 0.201,-1.737c0.001,-0.005 0.001,-0.013 0.001,-0.019c-0.065,-0.019 -0.178,-0.082 -0.338,-0.192c0.061,-0.065 0.132,-0.106 0.21,-0.125c-0.114,-0.065 -0.228,-0.155 -0.342,-0.274c0.03,-0.012 0.08,-0.052 0.15,-0.121c-0.024,-0.007 -0.059,-0.016 -0.107,-0.029c-0.049,-0.007 -0.089,-0.014 -0.119,-0.023c-0.047,-0.012 -0.087,-0.029 -0.117,-0.051c0.018,-0.016 0.044,-0.043 0.081,-0.083c0.039,-0.041 0.063,-0.07 0.075,-0.087c-0.002,-0.048 -0.058,-0.111 -0.167,-0.187c0.079,-0.079 0.173,-0.124 0.281,-0.136c-0.062,-0.064 -0.156,-0.184 -0.282,-0.359c0.104,-0.019 0.244,-0.029 0.419,-0.028c-0.05,-0.061 -0.097,-0.239 -0.143,-0.533l0.039,-0.112c0.048,0.013 0.097,0.031 0.147,0.055c0.049,0.023 0.081,0.036 0.093,0.04c0.018,0.005 0.038,0.004 0.06,-0.004c-0.05,-0.061 -0.092,-0.163 -0.125,-0.308l0.051,-0.147c0.067,0.047 0.134,0.089 0.203,0.128c0.126,-0.453 0.314,-0.821 0.567,-1.101c0.293,-0.321 0.501,-0.516 0.626,-0.583c0.097,-0.053 0.233,-0.093 0.41,-0.121c0.175,-0.027 0.301,-0.029 0.378,-0.007c0.129,-0.269 0.226,-0.421 0.29,-0.457c0.021,-0.011 0.105,0.012 0.248,0.071c0.144,0.059 0.229,0.081 0.256,0.066c0.039,-0.02 0.075,-0.043 0.111,-0.071c0.035,-0.025 0.06,-0.043 0.076,-0.052c0.06,-0.032 0.186,-0.064 0.381,-0.095c0,0.089 -0.023,0.167 -0.066,0.235c0.126,-0.031 0.273,-0.044 0.437,-0.036c-0.014,0.029 -0.023,0.093 -0.026,0.191c0.022,-0.011 0.054,-0.029 0.097,-0.053c0.041,-0.029 0.075,-0.051 0.102,-0.066c0.043,-0.023 0.084,-0.038 0.121,-0.044c-0.002,0.025 -0.003,0.063 -0.002,0.118c0.001,0.055 0.002,0.093 0.005,0.113c0.035,0.034 0.119,0.041 0.25,0.021c-0.003,0.113 -0.04,0.21 -0.11,0.293c0.089,0.003 0.239,0.025 0.452,0.065c-0.062,0.086 -0.157,0.19 -0.285,0.309c0.079,0.011 0.236,0.107 0.472,0.289l0.047,0.108c-0.043,0.022 -0.091,0.044 -0.144,0.061c-0.052,0.017 -0.083,0.029 -0.094,0.035c-0.017,0.009 -0.031,0.024 -0.041,0.044c0.078,0.01 0.179,0.054 0.303,0.136l0.063,0.144c-0.132,0.019 -0.26,0.047 -0.385,0.085c0.124,0.111 0.579,0.289 0.786,0.498c0.174,0.176 0.542,0.449 0.553,0.625c0.021,0.322 0.043,0.252 -0.197,0.526c-0.135,0.133 -0.198,0.136 -0.338,0.157c-0.138,0.023 -0.166,0.027 -0.222,0.022l0.222,0.086c0,0 0.047,0.588 -0.277,0.703c-0.209,0.073 -0.748,0.078 -1.145,0.071c-0.015,0.115 -0.029,0.23 -0.042,0.345c-0.039,0.342 0.128,1.038 0.052,1.365l-0.014,0.288c-0.012,0.151 -0.268,0.49 -0.311,0.51c0.024,0.02 0.049,0.035 0.075,0.044l-0.012,0.002c0.04,0.021 0.082,0.038 0.123,0.052c0.069,0.025 0.142,0.047 0.21,0.062c0.152,0.033 0.275,0.044 0.433,0.107c0.13,0.052 0.282,0.043 0.417,0.077c0.146,0.036 0.275,0.08 0.413,0.1c0.427,0.001 0.856,0.062 1.285,0.123l0,-18.87c0,-0.15 -0.063,-0.293 -0.174,-0.394c-0.11,-0.101 -0.258,-0.15 -0.409,-0.136c-8.762,0.836 -15.371,8.113 -15.371,16.927c0,4.231 1.589,8.217 4.283,11.268c-0.067,-0.241 -0.088,-0.51 0.057,-0.723" style="fill:#fff;"></path><path d="M90.713,43.975l-0.394,0l2.961,-9.923l0.391,0l-2.958,9.923Z" style="fill:#fff;"></path><path d="M96.825,39.029l0,-0.016c0,-1.508 1.154,-2.784 2.776,-2.784c0.939,0 1.516,0.261 2.07,0.731l-0.601,0.715c-0.415,-0.354 -0.822,-0.577 -1.507,-0.577c-0.992,0 -1.746,0.869 -1.746,1.9l0,0.015c0,1.108 0.731,1.923 1.831,1.923c0.507,0 0.969,-0.162 1.3,-0.408l0,-1.007l-1.377,0l0,-0.823l2.292,0l0,2.261c-0.531,0.454 -1.292,0.839 -2.246,0.839c-1.684,0 -2.792,-1.201 -2.792,-2.769" style="fill:#fff;"></path><path d="M110.735,38.99c0.677,0 1.108,-0.354 1.108,-0.9l0,-0.015c0,-0.577 -0.416,-0.893 -1.115,-0.893l-1.377,0l0,1.808l1.384,0Zm-2.33,-2.669l2.399,0c0.677,0 1.208,0.2 1.554,0.538c0.285,0.293 0.446,0.693 0.446,1.162l0,0.016c0,0.884 -0.53,1.414 -1.277,1.63l1.454,2.038l-1.123,0l-1.323,-1.876l-1.184,0l0,1.876l-0.946,0l0,-5.384Z" style="fill:#fff;"></path><path d="M123.676,39.029l0,-0.016c0,-1.046 -0.762,-1.915 -1.831,-1.915c-1.069,0 -1.815,0.854 -1.815,1.9l0,0.015c0,1.046 0.762,1.907 1.831,1.907c1.069,0 1.815,-0.846 1.815,-1.891m-4.638,0l0,-0.016c0,-1.515 1.169,-2.784 2.823,-2.784c1.653,0 2.807,1.254 2.807,2.769l0,0.015c0,1.515 -1.169,2.785 -2.823,2.785c-1.653,0 -2.807,-1.254 -2.807,-2.769" style="fill:#fff;"></path><path d="M131.041,39.421l0,-3.1l0.946,0l0,3.061c0,1 0.515,1.531 1.361,1.531c0.839,0 1.354,-0.5 1.354,-1.492l0,-3.1l0.946,0l0,3.054c0,1.607 -0.907,2.415 -2.315,2.415c-1.4,0 -2.292,-0.808 -2.292,-2.369" style="fill:#fff;"></path><path d="M144.305,39.121c0.715,0 1.161,-0.4 1.161,-0.962l0,-0.015c0,-0.631 -0.454,-0.962 -1.161,-0.962l-1.1,0l0,1.939l1.1,0Zm-2.046,-2.8l2.123,0c1.261,0 2.045,0.716 2.045,1.8l0,0.015c0,1.208 -0.969,1.838 -2.153,1.838l-1.069,0l0,1.731l-0.946,0l0,-5.384Z" style="fill:#fff;"></path></g></svg> 