<svg xmlns="http://www.w3.org/2000/svg" width="130" height="112" viewBox="0 0 130 112"><path fill="#FFF" d="M110.99.996v110H1v-69.58C1 17.196 18.97.996 42.44.996h68.55z"/><path fill="#E30613" d="M1 110.993v-54h4.887v49.22h100.539V32.936h-10.72v45.82H15.807V56.993h2.998c.788 12.045 10.09 18.207 19.07 17.75 5.36-.31 10.401-2.46 14.182-7.408l-6.462-5.398c-7.72 7.254-17.491 2.164-17.491-4.944h23.953c1.73-33.161-31.835-28.377-33.252-8.011h-2.998v-7.565c0-3.549 0-25.303 26.634-25.303V6.237c-19.378 0-36.555 12.81-36.555 35.18v7.564H1.001v-7.564C1 17.2 18.967 1.001 42.442 1.001h68.551v109.992H1z"/><path fill="#FFF" d="M55.368 53.759c0 12.342 7.091 20.984 19.06 20.984 11.821 0 17.976-8.177 17.976-20.984 0-12.803-4.886-20.982-17.976-20.824-2.359 0-5.51.306-8.982 2.16 0 0-.15-18.672-.15-18.98h-9.928v37.644z"/><path fill="#E30613" d="M15.808 102.663V81.84h2.368v9.57c1.11-1.236 2.835-2.168 4.412-2.168 3.941 0 6.307 3.09 6.307 6.957 0 3.545-2.366 6.932-6.307 6.932-1.577 0-3.303-.928-4.412-2.315v1.848h-2.368zM74.74 96.653H64.503c0 2.305 1.734 4.315 4.265 4.315 1.882 0 2.981-1.074 3.931-2.787l1.897 1.252c-1.42 2.162-3.47 3.697-5.988 3.697-4.105 0-6.464-2.938-6.464-6.793 0-4.006 2.359-7.096 6.296-7.096 4.26 0 6.464 3.551 6.3 7.412M65.446 53.759c0-5.861 2.056-11.881 8.982-11.881 6.944 0 8.824 6.02 8.824 11.88 0 5.714-1.88 12.343-8.824 12.343-6.926 0-8.982-6.63-8.982-12.342"/><path fill="#FFF" d="M101.07 18.276c-3.319 0-6.15 2.774-6.15 6.016 0 3.39 2.831 6.168 6.15 6.168 3.312 0 5.987-2.778 5.987-6.168 0-3.242-2.675-6.016-5.987-6.016"/><path fill="#E30613" d="M42.605 48.981h-14.5c.31-10.181 14.66-10.181 14.5 0"/><path fill="#FFF" d="M64.503 94.64h7.883c-.317-1.848-1.893-3.391-3.778-3.391-1.898 0-3.944 1.543-4.105 3.39M22.277 91.249c-2.529 0-4.264 2.31-4.264 4.787 0 2.465 1.58 4.932 4.264 4.932 2.83 0 4.408-2.31 4.408-4.932s-1.727-4.787-4.408-4.787"/><path fill="#E30613" d="M32.519 89.558h2.2v13.105h-2.2zM33.623 83.228c.783 0 1.574.609 1.574 1.55 0 .762-.791 1.535-1.574 1.535-.794 0-1.58-.773-1.58-1.535 0-.941.786-1.55 1.58-1.55M39.133 81.837h2.207v20.826h-2.207zM52.691 91.55l-1.735 1.08c-.316-.764-1.105-1.381-1.89-1.381-.789 0-1.422.617-1.422 1.543 0 1.234 1.584 1.691 2.841 2.158 1.574.621 3.143 1.703 3.143 3.864 0 2.464-2.044 4.316-4.4 4.316-2.208 0-3.945-1.39-4.734-3.387l2.041-.785c.64 1.234 1.11 2.01 2.693 2.01 1.093 0 2.042-.776 2.042-2.01 0-2.922-5.836-1.848-5.836-6.01 0-2.154 1.742-3.707 3.794-3.707 1.574 0 2.83 1.082 3.463 2.309M58.993 91.55v11.113h-2.206V91.55h-1.419v-1.992h1.42v-4.641h2.205v4.64h2.361v1.993zM78.061 89.558h2.366v13.105h-2.366zM79.321 83.228c.782 0 1.568.609 1.568 1.55 0 .762-.785 1.535-1.568 1.535-.946 0-1.579-.773-1.579-1.535 0-.941.633-1.55 1.58-1.55M87.196 89.558v1.691h.16c.786-1.393 2.041-2.008 3.626-2.008 3.62 0 4.416 2.625 4.416 5.559v7.863h-2.21v-7.412c0-1.992-.16-4.002-2.684-4.002-3.149 0-3.308 2.943-3.308 5.242v6.172h-2.203V89.558h2.203zM121.071 12.902c3.331 0 5.966-2.635 5.966-5.95S124.402 1 121.071 1c-3.332 0-5.964 2.635-5.964 5.951s2.632 5.951 5.964 5.951"/><path fill="#FFF" d="M121.071 1.97c2.726 0 4.998 2.165 4.998 4.981 0 2.802-2.272 4.983-4.998 4.983s-5-2.18-5-4.983c0-2.816 2.275-4.981 5-4.981"/><path fill="#E30613" d="M122.102 7.254c.89-.03 1.785-.514 1.785-1.833 0-1.408-1.09-1.771-2.302-1.771h-2.817v6.693h.97V7.254h1.242l1.711 3.089h1.106l-1.695-3.089z"/><path fill="#FFF" d="M121.404 4.62c.8 0 1.516.06 1.516.908 0 .91-1.242.757-2.152.757h-1.03V4.619h1.666z"/></svg>