<?xml version="1.0" encoding="UTF-8"?>
<svg width="130px" height="72px" viewBox="0 0 130 72" version="1.1" xmlns="http://www.w3.org/2000/svg" xmlns:xlink="http://www.w3.org/1999/xlink">
    <!-- Generator: Sketch 48.2 (47327) - http://www.bohemiancoding.com/sketch -->
    <title>LOGO SACHS WHITE@2x</title>
    <desc>Created with Sketch.</desc>
    <defs></defs>
    <g id="Symbole" stroke="none" stroke-width="1" fill="none" fill-rule="evenodd">
        <g id="LOGO-SACHS-WHITE" fill="#005ca9">
            <g id="LOGO-SACHS">
                <path d="M71.3934426,19.1803279 C71.3934426,15.6512353 68.5306603,12.7868852 65,12.7868852 C61.4693397,12.7868852 58.6065574,15.6512353 58.6065574,19.1803279 C58.6065574,22.712556 61.4693397,25.5737705 65,25.5737705 C68.5306603,25.5737705 71.3934426,22.712556 71.3934426,19.1803279" id="Fill-1"></path>
                <path d="M73.0257504,14.3443561 C75.1012301,16.5216084 76.2680896,18.916426 76.2680896,21.4312244 C76.2680896,28.6508714 66.7227961,34.8946743 52.8719186,37.8590009 C51.9776451,38.0493705 52.0095265,38.3805176 52.8719186,38.3597209 C70.2472858,37.9181915 84.7565144,33.1269566 89.8846388,26.6255949 C90.9972999,25.2114207 90.6035645,23.656469 89.8224701,22.6806249 C86.9164798,19.0572035 81.0981229,15.9680968 73.491219,13.8772307 C73.0640081,13.7620491 72.7627288,14.0707998 73.0257504,14.3443561" id="Fill-3"></path>
                <path d="M55.4405622,24.48301 C55.8693642,24.5997887 56.1690474,24.2878457 55.9076216,24.0126959 C53.830562,21.8370932 52.6653045,19.4423304 52.6653045,16.930789 C52.6653045,9.70810779 62.2089391,3.46444783 76.0613167,0.503388487 C76.9571782,0.309823831 76.925297,-0.0213157065 76.0613167,0.00108020417 C58.6844734,0.440999879 44.1769373,5.23372477 39.0504417,11.7365374 C37.9377882,13.1474798 38.3299268,14.7023959 39.111016,15.6782177 C42.0153925,19.3063552 47.835304,22.3905921 55.4405622,24.48301" id="Fill-5"></path>
                <path d="M64.3222448,54.4176858 C68.8282509,54.4176858 70.5797919,56.1896855 70.5797919,57.1610635 L76.7213115,57.1610635 C76.7213115,55.9029437 74.5740048,51.147541 64.3222448,51.147541 C54.7459882,51.147541 51.147541,56.4361545 51.147541,61.26727 C51.147541,66.0999963 54.7443988,71.3934426 64.3222448,71.3934426 C74.5740048,71.3934426 76.7213115,66.6315962 76.7213115,65.3783092 L70.5782025,65.3783092 C70.5782025,66.3464654 68.8266615,68.1216869 64.3222448,68.1216869 C60.105513,68.1216869 57.1158137,65.2510474 57.1158137,61.26727 C57.1158137,57.2851035 60.105513,54.4176858 64.3222448,54.4176858" id="Fill-7"></path>
                <polygon id="Fill-9" points="95.8565489 58.9401452 84.2238761 58.9401452 84.2238761 51.147541 78.852459 51.147541 78.852459 70.3278689 84.2238761 70.3278689 84.2238761 62.536854 95.8565489 62.536854 95.8565489 70.3278689 101.229508 70.3278689 101.229508 51.147541 95.8565489 51.147541"></polygon>
                <path d="M33.9446931,64.3344137 L38.3614662,55.8456723 L42.7814809,64.3344137 L33.9446931,64.3344137 Z M35.5379731,51.147541 L24.5081967,70.3278689 L30.8245874,70.3278689 L32.2800964,67.5321946 L44.4444567,67.5321946 L45.8999658,70.3278689 L52.2131148,70.3278689 L41.1865801,51.147541 L35.5379731,51.147541 Z" id="Fill-11"></path>
                <path d="M18.3780665,59.665688 C14.3548331,58.4891399 9.78933784,57.7291906 7.98126813,56.8807331 C6.55484902,56.2169219 6.50555249,54.2148064 12.3638892,54.2148064 C14.6267592,54.2148064 18.3796567,54.581047 18.3796567,56.1345178 L24.7723042,56.1345178 C24.7723042,52.5377294 18.8201451,51.147541 12.2859688,51.147541 C7.32769148,51.147541 0.772842461,52.4049672 0.772842461,56.3359501 C0.772842461,60.767462 14.0590539,62.0706683 17.57501,63.5539429 C19.3989819,64.2910022 18.2921951,67.2743375 12.362299,67.2743375 C10.2695815,67.2743375 6.42127131,66.6456244 6.42127131,64.9639694 L0,64.9639694 C0,69.4458393 8.66823921,70.3278689 12.7662125,70.3278689 C21.3056446,70.3278689 25.5737705,67.8816865 25.5737705,64.9517614 C25.5737705,62.1530724 22.8672317,60.8834382 18.3780665,59.665688" id="Fill-13"></path>
                <path d="M122.804296,60.1389184 C118.781063,58.8970066 114.215567,58.0948378 112.409088,57.1992438 C110.981079,56.4985542 110.933372,54.38521 116.791709,54.38521 C119.052989,54.38521 122.805886,54.7717974 122.805886,56.4115721 L129.200124,56.4115721 C129.200124,52.6149621 123.247965,51.147541 116.712198,51.147541 C111.753921,51.147541 105.199072,52.4748242 105.199072,56.6241951 C105.199072,61.301902 118.486874,62.6775087 121.999649,64.2431874 C123.825211,65.0211945 122.720015,68.1702706 116.788528,68.1702706 C114.695811,68.1702706 110.847501,67.506629 110.847501,65.7315487 L104.42623,65.7315487 C104.42623,70.4624114 113.094469,71.3934426 117.192442,71.3934426 C125.731874,71.3934426 130,68.8113613 130,65.7186625 C130,62.7644908 127.291871,61.4243214 122.804296,60.1389184" id="Fill-16"></path>
            </g>
        </g>
    </g>
</svg>