<svg  viewBox="0 0 194 80" xmlns="http://www.w3.org/2000/svg">
<path d="M12.8579 39.9999L96.6225 74.7044L180.482 39.9999L96.6225 5.29541L12.8579 39.9999Z" fill="#F5B51C"/>
<path fill-rule="evenodd" clip-rule="evenodd" d="M0 40L96.6224 80L193.245 40L96.6224 0L0 40ZM180.482 40L96.6224 74.7045L12.8578 40L96.6224 5.29551L180.482 40Z" fill="#2A2522"/>
<path d="M66.6526 33.0969L60.4128 30.922L70.2452 26.5721L67.7871 20.1418L44.4351 30.4492C42.8279 31.2057 41.977 33.1915 42.6388 34.9882C43.0169 35.9338 43.7733 36.6903 44.7187 36.974L64.289 43.3097H64.3835C64.8563 43.5934 65.0453 44.1608 64.8562 44.7281L63.8163 49.5508C63.6272 50.0236 63.0599 50.4965 62.5872 50.3073L37.2499 39.1489L34.7917 45.5792L62.2091 57.6832C62.9654 58.0615 63.8163 58.2506 64.7617 58.2506C67.5034 58.2506 69.867 56.4539 70.907 53.8062C71.1906 52.9551 71.3797 52.0095 71.3797 51.0638V40C71.3797 36.7849 69.4888 34.0426 66.6526 33.0969Z" fill="#2A2522"/>
<path d="M120.353 17.8723V25.4373L132.738 30.922V56.7376L145.406 51.2529V36.4066L157.791 41.8912V34.4208L120.353 17.8723Z" fill="#2A2522"/>
<path d="M116.76 17.6833L110.331 15.0355L90.1936 36.123V12.0095L77.5249 17.2105V62.6951L90.1936 67.9906V45.4847L96.2443 39.149L111.655 64.3972L123.473 59.48L105.32 29.5982L116.76 17.6833Z" fill="#2A2522"/>
</svg>
